%TF.GenerationSoftware,KiCad,Pcbnew,(7.0.0)*%
%TF.CreationDate,2023-06-29T15:53:59-07:00*%
%TF.ProjectId,GlowPrism Corner PCB,476c6f77-5072-4697-936d-20436f726e65,rev?*%
%TF.SameCoordinates,Original*%
%TF.FileFunction,Soldermask,Bot*%
%TF.FilePolarity,Negative*%
%FSLAX46Y46*%
G04 Gerber Fmt 4.6, Leading zero omitted, Abs format (unit mm)*
G04 Created by KiCad (PCBNEW (7.0.0)) date 2023-06-29 15:53:59*
%MOMM*%
%LPD*%
G01*
G04 APERTURE LIST*
G04 Aperture macros list*
%AMRoundRect*
0 Rectangle with rounded corners*
0 $1 Rounding radius*
0 $2 $3 $4 $5 $6 $7 $8 $9 X,Y pos of 4 corners*
0 Add a 4 corners polygon primitive as box body*
4,1,4,$2,$3,$4,$5,$6,$7,$8,$9,$2,$3,0*
0 Add four circle primitives for the rounded corners*
1,1,$1+$1,$2,$3*
1,1,$1+$1,$4,$5*
1,1,$1+$1,$6,$7*
1,1,$1+$1,$8,$9*
0 Add four rect primitives between the rounded corners*
20,1,$1+$1,$2,$3,$4,$5,0*
20,1,$1+$1,$4,$5,$6,$7,0*
20,1,$1+$1,$6,$7,$8,$9,0*
20,1,$1+$1,$8,$9,$2,$3,0*%
%AMRotRect*
0 Rectangle, with rotation*
0 The origin of the aperture is its center*
0 $1 length*
0 $2 width*
0 $3 Rotation angle, in degrees counterclockwise*
0 Add horizontal line*
21,1,$1,$2,0,0,$3*%
%AMFreePoly0*
4,1,19,0.550000,-0.750000,0.000000,-0.750000,-0.000001,-0.744911,-0.071157,-0.744911,-0.207708,-0.704817,-0.327430,-0.627875,-0.420627,-0.520320,-0.479746,-0.390866,-0.500000,-0.250000,-0.500000,0.250000,-0.479746,0.390866,-0.420627,0.520320,-0.327430,0.627875,-0.207707,0.704816,-0.071157,0.744911,0.000001,0.744911,0.000000,0.750000,0.550000,0.750000,0.550000,-0.750000,0.550000,-0.750000,
$1*%
%AMFreePoly1*
4,1,19,0.000001,0.744911,0.071157,0.744911,0.207708,0.704817,0.327430,0.627875,0.420627,0.520320,0.479746,0.390866,0.500000,0.250000,0.500000,-0.250000,0.479746,-0.390866,0.420627,-0.520320,0.327430,-0.627875,0.207707,-0.704816,0.071157,-0.744911,-0.000001,-0.744911,0.000000,-0.750000,-0.550000,-0.750000,-0.550000,0.750000,0.000000,0.750000,0.000001,0.744911,0.000001,0.744911,
$1*%
G04 Aperture macros list end*
%ADD10RoundRect,0.700000X1.908846X-0.293782X-1.208846X1.506218X-1.908846X0.293782X1.208846X-1.506218X0*%
%ADD11R,1.700000X1.700000*%
%ADD12O,1.700000X1.700000*%
%ADD13RoundRect,0.250000X-0.750000X0.600000X-0.750000X-0.600000X0.750000X-0.600000X0.750000X0.600000X0*%
%ADD14O,2.000000X1.700000*%
%ADD15C,5.600000*%
%ADD16R,1.500000X2.300000*%
%ADD17O,1.500000X2.300000*%
%ADD18RoundRect,0.250000X-0.250000X-0.475000X0.250000X-0.475000X0.250000X0.475000X-0.250000X0.475000X0*%
%ADD19RoundRect,1.500000X-1.500000X-1.500000X1.500000X-1.500000X1.500000X1.500000X-1.500000X1.500000X0*%
%ADD20C,6.000000*%
%ADD21FreePoly0,120.000000*%
%ADD22RotRect,1.000000X1.500000X120.000000*%
%ADD23FreePoly1,120.000000*%
%ADD24RoundRect,0.243750X-0.243750X-0.456250X0.243750X-0.456250X0.243750X0.456250X-0.243750X0.456250X0*%
%ADD25FreePoly0,240.000000*%
%ADD26RotRect,1.000000X1.500000X240.000000*%
%ADD27FreePoly1,240.000000*%
%ADD28RoundRect,0.243750X0.243750X0.456250X-0.243750X0.456250X-0.243750X-0.456250X0.243750X-0.456250X0*%
%ADD29RoundRect,0.250000X0.250000X0.475000X-0.250000X0.475000X-0.250000X-0.475000X0.250000X-0.475000X0*%
%ADD30RoundRect,0.700000X-0.700000X1.800000X-0.700000X-1.800000X0.700000X-1.800000X0.700000X1.800000X0*%
%ADD31FreePoly0,0.000000*%
%ADD32R,1.000000X1.500000*%
%ADD33FreePoly1,0.000000*%
%ADD34RoundRect,0.700000X-1.208846X-1.506218X1.908846X0.293782X1.208846X1.506218X-1.908846X-0.293782X0*%
G04 APERTURE END LIST*
D10*
%TO.C,J3*%
X17572284Y-6103911D03*
X15822284Y-9135000D03*
X14072284Y-12166089D03*
%TD*%
D11*
%TO.C,J8*%
X8999999Y-3809999D03*
D12*
X8999999Y-1269999D03*
X8999999Y1269999D03*
X8999999Y3809999D03*
%TD*%
D13*
%TO.C,J9*%
X15468600Y2184400D03*
D14*
X15468599Y-315599D03*
%TD*%
D15*
%TO.C,H2*%
X14722432Y8500000D03*
%TD*%
D16*
%TO.C,U1*%
X-7416799Y2895599D03*
D17*
X-9956799Y2895599D03*
X-12496799Y2895599D03*
%TD*%
D15*
%TO.C,H1*%
X0Y-17000000D03*
%TD*%
%TO.C,H3*%
X-14722432Y8500000D03*
%TD*%
D18*
%TO.C,R3*%
X-2997200Y-10058400D03*
X-1097200Y-10058400D03*
%TD*%
D19*
%TO.C,J7*%
X-3600000Y8250000D03*
D20*
X3600000Y8250000D03*
%TD*%
D21*
%TO.C,JP5*%
X-11669000Y-8288633D03*
D22*
X-12318999Y-7162799D03*
D23*
X-12969000Y-6036967D03*
%TD*%
D24*
%TO.C,D4*%
X-2937500Y-8000000D03*
X-1062500Y-8000000D03*
%TD*%
D25*
%TO.C,JP7*%
X12994400Y-6011567D03*
D26*
X12344399Y-7137399D03*
D27*
X11694400Y-8263233D03*
%TD*%
D28*
%TO.C,D5*%
X2937500Y-8000000D03*
X1062500Y-8000000D03*
%TD*%
D29*
%TO.C,R4*%
X2956600Y-10058400D03*
X1056600Y-10058400D03*
%TD*%
D30*
%TO.C,J2*%
X-3500000Y18270000D03*
X0Y18270000D03*
X3500000Y18270000D03*
%TD*%
D31*
%TO.C,JP6*%
X-1295400Y14224000D03*
D32*
X4599Y14223999D03*
D33*
X1304600Y14224000D03*
%TD*%
D34*
%TO.C,J1*%
X-14072284Y-12166089D03*
X-15822284Y-9135000D03*
X-17572284Y-6103911D03*
%TD*%
M02*
