%TF.GenerationSoftware,KiCad,Pcbnew,(7.0.0)*%
%TF.CreationDate,2023-06-29T15:53:58-07:00*%
%TF.ProjectId,GlowPrism Corner PCB,476c6f77-5072-4697-936d-20436f726e65,rev?*%
%TF.SameCoordinates,Original*%
%TF.FileFunction,Copper,L1,Top*%
%TF.FilePolarity,Positive*%
%FSLAX46Y46*%
G04 Gerber Fmt 4.6, Leading zero omitted, Abs format (unit mm)*
G04 Created by KiCad (PCBNEW (7.0.0)) date 2023-06-29 15:53:58*
%MOMM*%
%LPD*%
G01*
G04 APERTURE LIST*
G04 Aperture macros list*
%AMRoundRect*
0 Rectangle with rounded corners*
0 $1 Rounding radius*
0 $2 $3 $4 $5 $6 $7 $8 $9 X,Y pos of 4 corners*
0 Add a 4 corners polygon primitive as box body*
4,1,4,$2,$3,$4,$5,$6,$7,$8,$9,$2,$3,0*
0 Add four circle primitives for the rounded corners*
1,1,$1+$1,$2,$3*
1,1,$1+$1,$4,$5*
1,1,$1+$1,$6,$7*
1,1,$1+$1,$8,$9*
0 Add four rect primitives between the rounded corners*
20,1,$1+$1,$2,$3,$4,$5,0*
20,1,$1+$1,$4,$5,$6,$7,0*
20,1,$1+$1,$6,$7,$8,$9,0*
20,1,$1+$1,$8,$9,$2,$3,0*%
%AMRotRect*
0 Rectangle, with rotation*
0 The origin of the aperture is its center*
0 $1 length*
0 $2 width*
0 $3 Rotation angle, in degrees counterclockwise*
0 Add horizontal line*
21,1,$1,$2,0,0,$3*%
%AMFreePoly0*
4,1,19,0.550000,-0.750000,0.000000,-0.750000,0.000000,-0.744911,-0.071157,-0.744911,-0.207707,-0.704816,-0.327430,-0.627875,-0.420627,-0.520320,-0.479746,-0.390866,-0.500000,-0.250000,-0.500000,0.250000,-0.479746,0.390866,-0.420627,0.520320,-0.327430,0.627875,-0.207708,0.704817,-0.071157,0.744911,0.000000,0.744911,0.000000,0.750000,0.550000,0.750000,0.550000,-0.750000,0.550000,-0.750000,
$1*%
%AMFreePoly1*
4,1,19,0.000000,0.744911,0.071157,0.744911,0.207707,0.704816,0.327430,0.627875,0.420627,0.520320,0.479746,0.390866,0.500000,0.250000,0.500000,-0.250000,0.479746,-0.390866,0.420627,-0.520320,0.327430,-0.627875,0.207708,-0.704817,0.071157,-0.744911,0.000000,-0.744911,0.000000,-0.750000,-0.550000,-0.750000,-0.550000,0.750000,0.000000,0.750000,0.000000,0.744911,0.000000,0.744911,
$1*%
%AMFreePoly2*
4,1,19,0.500000,-0.750000,0.000000,-0.750000,-0.000001,-0.744911,-0.071157,-0.744911,-0.207708,-0.704817,-0.327430,-0.627875,-0.420627,-0.520320,-0.479746,-0.390866,-0.500000,-0.250000,-0.500000,0.250000,-0.479746,0.390866,-0.420627,0.520320,-0.327430,0.627875,-0.207707,0.704816,-0.071157,0.744911,0.000001,0.744911,0.000000,0.750000,0.500000,0.750000,0.500000,-0.750000,0.500000,-0.750000,
$1*%
%AMFreePoly3*
4,1,19,0.000001,0.744911,0.071157,0.744911,0.207708,0.704817,0.327430,0.627875,0.420627,0.520320,0.479746,0.390866,0.500000,0.250000,0.500000,-0.250000,0.479746,-0.390866,0.420627,-0.520320,0.327430,-0.627875,0.207707,-0.704816,0.071157,-0.744911,-0.000001,-0.744911,0.000000,-0.750000,-0.500000,-0.750000,-0.500000,0.750000,0.000000,0.750000,0.000001,0.744911,0.000001,0.744911,
$1*%
G04 Aperture macros list end*
%TA.AperFunction,SMDPad,CuDef*%
%ADD10RoundRect,0.700000X-0.700000X1.800000X-0.700000X-1.800000X0.700000X-1.800000X0.700000X1.800000X0*%
%TD*%
%TA.AperFunction,ComponentPad*%
%ADD11R,1.700000X1.700000*%
%TD*%
%TA.AperFunction,ComponentPad*%
%ADD12O,1.700000X1.700000*%
%TD*%
%TA.AperFunction,SMDPad,CuDef*%
%ADD13FreePoly0,60.000000*%
%TD*%
%TA.AperFunction,SMDPad,CuDef*%
%ADD14RotRect,1.000000X1.500000X60.000000*%
%TD*%
%TA.AperFunction,SMDPad,CuDef*%
%ADD15FreePoly1,60.000000*%
%TD*%
%TA.AperFunction,ComponentPad*%
%ADD16RoundRect,0.250000X-0.750000X0.600000X-0.750000X-0.600000X0.750000X-0.600000X0.750000X0.600000X0*%
%TD*%
%TA.AperFunction,ComponentPad*%
%ADD17O,2.000000X1.700000*%
%TD*%
%TA.AperFunction,SMDPad,CuDef*%
%ADD18RoundRect,0.700000X1.908846X-0.293782X-1.208846X1.506218X-1.908846X0.293782X1.208846X-1.506218X0*%
%TD*%
%TA.AperFunction,ComponentPad*%
%ADD19C,5.600000*%
%TD*%
%TA.AperFunction,SMDPad,CuDef*%
%ADD20FreePoly0,180.000000*%
%TD*%
%TA.AperFunction,SMDPad,CuDef*%
%ADD21R,1.000000X1.500000*%
%TD*%
%TA.AperFunction,SMDPad,CuDef*%
%ADD22FreePoly1,180.000000*%
%TD*%
%TA.AperFunction,SMDPad,CuDef*%
%ADD23FreePoly0,300.000000*%
%TD*%
%TA.AperFunction,SMDPad,CuDef*%
%ADD24RotRect,1.000000X1.500000X300.000000*%
%TD*%
%TA.AperFunction,SMDPad,CuDef*%
%ADD25FreePoly1,300.000000*%
%TD*%
%TA.AperFunction,ComponentPad*%
%ADD26R,1.500000X2.300000*%
%TD*%
%TA.AperFunction,ComponentPad*%
%ADD27O,1.500000X2.300000*%
%TD*%
%TA.AperFunction,SMDPad,CuDef*%
%ADD28FreePoly2,30.000000*%
%TD*%
%TA.AperFunction,SMDPad,CuDef*%
%ADD29FreePoly3,30.000000*%
%TD*%
%TA.AperFunction,SMDPad,CuDef*%
%ADD30RoundRect,0.700000X-1.208846X-1.506218X1.908846X0.293782X1.208846X1.506218X-1.908846X-0.293782X0*%
%TD*%
%TA.AperFunction,SMDPad,CuDef*%
%ADD31RoundRect,0.250000X-0.550000X1.500000X-0.550000X-1.500000X0.550000X-1.500000X0.550000X1.500000X0*%
%TD*%
%TA.AperFunction,ComponentPad*%
%ADD32RoundRect,1.500000X-1.500000X-1.500000X1.500000X-1.500000X1.500000X1.500000X-1.500000X1.500000X0*%
%TD*%
%TA.AperFunction,ComponentPad*%
%ADD33C,6.000000*%
%TD*%
%TA.AperFunction,SMDPad,CuDef*%
%ADD34RoundRect,0.250000X-0.250000X-0.475000X0.250000X-0.475000X0.250000X0.475000X-0.250000X0.475000X0*%
%TD*%
%TA.AperFunction,ViaPad*%
%ADD35C,0.800000*%
%TD*%
%TA.AperFunction,Conductor*%
%ADD36C,3.000000*%
%TD*%
%TA.AperFunction,Conductor*%
%ADD37C,2.000000*%
%TD*%
%TA.AperFunction,Conductor*%
%ADD38C,0.500000*%
%TD*%
%TA.AperFunction,Conductor*%
%ADD39C,1.000000*%
%TD*%
%TA.AperFunction,Conductor*%
%ADD40C,0.700000*%
%TD*%
%TA.AperFunction,Conductor*%
%ADD41C,5.000000*%
%TD*%
G04 APERTURE END LIST*
D10*
%TO.P,J5,1,Pin_1*%
%TO.N,VCC*%
X3500000Y18270000D03*
%TO.P,J5,2,Pin_2*%
%TO.N,Net-(J5-Pin_2)*%
X0Y18270000D03*
%TO.P,J5,3,Pin_3*%
%TO.N,GND*%
X-3500000Y18270000D03*
%TD*%
D11*
%TO.P,J8,1,Pin_1*%
%TO.N,GND*%
X8999999Y-3809999D03*
D12*
%TO.P,J8,2,Pin_2*%
%TO.N,AInput*%
X8999999Y-1269999D03*
%TO.P,J8,3,Pin_3*%
%TO.N,unconnected-(J8-Pin_3-Pad3)*%
X8999999Y1269999D03*
%TO.P,J8,4,Pin_4*%
%TO.N,+5V*%
X8999999Y3809999D03*
%TD*%
D13*
%TO.P,JP4,1,A*%
%TO.N,Net-(JP4-A)*%
X11704800Y-8271466D03*
D14*
%TO.P,JP4,2,C*%
%TO.N,Net-(J6-Pin_2)*%
X12354799Y-7145632D03*
D15*
%TO.P,JP4,3,B*%
%TO.N,Net-(JP4-B)*%
X13004800Y-6019800D03*
%TD*%
D16*
%TO.P,J9,1,Pin_1*%
%TO.N,VCC*%
X15468600Y2184400D03*
D17*
%TO.P,J9,2,Pin_2*%
%TO.N,GND*%
X15468599Y-315599D03*
%TD*%
D18*
%TO.P,J6,1,Pin_1*%
%TO.N,VCC*%
X14072284Y-12166089D03*
%TO.P,J6,2,Pin_2*%
%TO.N,Net-(J6-Pin_2)*%
X15822284Y-9135000D03*
%TO.P,J6,3,Pin_3*%
%TO.N,GND*%
X17572284Y-6103911D03*
%TD*%
D19*
%TO.P,H2,1,1*%
%TO.N,GND*%
X14722432Y8500000D03*
%TD*%
D20*
%TO.P,JP3,1,A*%
%TO.N,Net-(JP3-A)*%
X1304600Y14224000D03*
D21*
%TO.P,JP3,2,C*%
%TO.N,Net-(J5-Pin_2)*%
X4599Y14223999D03*
D22*
%TO.P,JP3,3,B*%
%TO.N,Net-(JP3-B)*%
X-1295400Y14224000D03*
%TD*%
D23*
%TO.P,JP2,1,A*%
%TO.N,Net-(JP2-A)*%
X-12954000Y-6045200D03*
D24*
%TO.P,JP2,2,C*%
%TO.N,Net-(J4-Pin_2)*%
X-12303999Y-7171032D03*
D25*
%TO.P,JP2,3,B*%
%TO.N,Net-(JP2-B)*%
X-11654000Y-8296866D03*
%TD*%
D26*
%TO.P,U1,1,IN*%
%TO.N,VCC*%
X-7416799Y2895599D03*
D27*
%TO.P,U1,2,GND*%
%TO.N,GND*%
X-9956799Y2895599D03*
%TO.P,U1,3,OUT*%
%TO.N,+5V*%
X-12496799Y2895599D03*
%TD*%
D28*
%TO.P,JP1,1,A*%
%TO.N,Net-(J4-Pin_2)*%
X-10295234Y-6111000D03*
D29*
%TO.P,JP1,2,B*%
%TO.N,AInput*%
X-9169400Y-5461000D03*
%TD*%
D19*
%TO.P,H1,1,1*%
%TO.N,GND*%
X0Y-17000000D03*
%TD*%
D30*
%TO.P,J4,1,Pin_1*%
%TO.N,VCC*%
X-17572284Y-6103911D03*
%TO.P,J4,2,Pin_2*%
%TO.N,Net-(J4-Pin_2)*%
X-15822284Y-9135000D03*
%TO.P,J4,3,Pin_3*%
%TO.N,GND*%
X-14072284Y-12166089D03*
%TD*%
D31*
%TO.P,C3,1*%
%TO.N,VCC*%
X-5308600Y-6826600D03*
%TO.P,C3,2*%
%TO.N,GND*%
X-5308600Y-12426600D03*
%TD*%
D19*
%TO.P,H3,1,1*%
%TO.N,GND*%
X-14722432Y8500000D03*
%TD*%
D32*
%TO.P,J7,1,Pin_1*%
%TO.N,GND*%
X-3600000Y8250000D03*
D33*
%TO.P,J7,2,Pin_2*%
%TO.N,VCC*%
X3600000Y8250000D03*
%TD*%
D34*
%TO.P,C5,1*%
%TO.N,VCC*%
X9159200Y12446000D03*
%TO.P,C5,2*%
%TO.N,GND*%
X11059200Y12446000D03*
%TD*%
D35*
%TO.N,GND*%
X12115800Y12446000D03*
%TO.N,VCC*%
X11450000Y2336800D03*
%TO.N,Net-(JP3-A)*%
X8626300Y9134300D03*
%TO.N,Net-(JP4-B)*%
X9575800Y10083800D03*
%TO.N,AInput*%
X7836733Y-8094778D03*
X-17919Y-10737900D03*
%TO.N,VCC*%
X3600000Y-6527800D03*
%TO.N,+5V*%
X-10079038Y-7423220D03*
X-3022600Y-11430000D03*
X3556000Y-13182600D03*
X12039600Y-279400D03*
X8667219Y-8692618D03*
%TO.N,Net-(JP2-B)*%
X3303206Y-14222794D03*
%TO.N,Net-(JP4-A)*%
X-11607800Y-9779000D03*
X10792535Y-9252895D03*
X2949308Y-15211692D03*
%TO.N,Net-(JP3-A)*%
X12065000Y889000D03*
X14071600Y762000D03*
X14322580Y-6362250D03*
%TO.N,VCC*%
X4191000Y16738600D03*
X2895600Y18846800D03*
X4216400Y18846800D03*
X12984600Y-10761178D03*
X-15849600Y-5740400D03*
X2870200Y16738600D03*
X12425800Y-11827978D03*
X-18059400Y-5740400D03*
X-17526000Y-6705600D03*
X3581400Y17805400D03*
X-16383000Y-4775200D03*
X14274800Y-12877800D03*
X-16967200Y-5740400D03*
X13741400Y-11836400D03*
X14833600Y-11811000D03*
%TO.N,GND*%
X-12349600Y-11802578D03*
X15925800Y-5765800D03*
X939800Y11557000D03*
X18415000Y-5791200D03*
X-5308600Y-13716000D03*
X-13462000Y-11811000D03*
X-2794000Y18796000D03*
X-5308600Y-11303000D03*
X16484600Y-4699000D03*
X-3454400Y17729200D03*
X17856200Y-6858000D03*
X-4129800Y16738600D03*
X2819400Y14020800D03*
X-2809000Y16738600D03*
X17170400Y-5765800D03*
X-12883000Y-10837378D03*
X-14630400Y-11912600D03*
X-5308600Y-12573000D03*
X-4114800Y18796000D03*
X-14097000Y-12877800D03*
%TO.N,Net-(JP2-A)*%
X-2235200Y13081000D03*
X-11963400Y-4394200D03*
X-13844614Y3363050D03*
%TO.N,Net-(JP3-A)*%
X1301523Y12853085D03*
%TO.N,Net-(JP3-B)*%
X-12163998Y6220398D03*
%TD*%
D36*
%TO.N,GND*%
X-7017232Y16205200D02*
X-4663200Y16205200D01*
X-14722432Y8500000D02*
X-7017232Y16205200D01*
D37*
X-4663200Y16205200D02*
X-4129800Y16738600D01*
X-12497311Y-12166089D02*
X-14072284Y-12166089D01*
X-176600Y-17176600D02*
X-7486800Y-17176600D01*
X0Y-17000000D02*
X-176600Y-17176600D01*
X-7486800Y-17176600D02*
X-12497311Y-12166089D01*
D38*
X15468600Y-315600D02*
X15468600Y-482600D01*
X15468600Y-482600D02*
X16484600Y-1498600D01*
D36*
X18168600Y185400D02*
X18168600Y3449092D01*
X16484600Y-1498600D02*
X18168600Y185400D01*
X16484600Y-4699000D02*
X16484600Y-1498600D01*
X17918600Y4484400D02*
X17918600Y3962400D01*
X14722432Y7158568D02*
X17396600Y4484400D01*
X17396600Y4484400D02*
X17918600Y4484400D01*
X14722432Y8500000D02*
X14722432Y7158568D01*
D38*
X11059200Y12446000D02*
X12115800Y12446000D01*
%TO.N,VCC*%
X7546000Y12446000D02*
X6600000Y11500000D01*
X9159200Y12446000D02*
X7546000Y12446000D01*
D39*
X11450000Y3552032D02*
X10896600Y4105432D01*
X11450000Y2336800D02*
X11450000Y3552032D01*
D40*
%TO.N,Net-(JP3-A)*%
X8626300Y8366300D02*
X8626300Y9134300D01*
X12917000Y4075600D02*
X8626300Y8366300D01*
%TO.N,Net-(JP4-B)*%
X9575800Y8887456D02*
X9575800Y10083800D01*
X11924028Y6539228D02*
X9575800Y8887456D01*
X13918600Y4544656D02*
X11924028Y6539228D01*
D38*
%TO.N,AInput*%
X-2162000Y-10887400D02*
X-167419Y-10887400D01*
X-167419Y-10887400D02*
X-17919Y-10737900D01*
X-6188000Y-9026600D02*
X-4022800Y-9026600D01*
X-9169400Y-6045200D02*
X-9169400Y-5461000D01*
X-6188000Y-9026600D02*
X-9169400Y-6045200D01*
X10922000Y-5105400D02*
X7932622Y-8094778D01*
X9000000Y-1270000D02*
X10922000Y-3192000D01*
X10922000Y-3192000D02*
X10922000Y-5105400D01*
X7932622Y-8094778D02*
X7836733Y-8094778D01*
X-4022800Y-9026600D02*
X-2162000Y-10887400D01*
D41*
%TO.N,VCC*%
X3600000Y8500000D02*
X6600000Y11500000D01*
X4500277Y16763101D02*
X4478658Y16763101D01*
X3600000Y-8241399D02*
X5731100Y-10372500D01*
X-14216165Y-1294200D02*
X-5209963Y-1294200D01*
X11886051Y-12836943D02*
X12372168Y-12372168D01*
X6600000Y11500000D02*
X6600000Y14663378D01*
X3600000Y8500000D02*
X3600000Y4648200D01*
X6600000Y14663378D02*
X4500277Y16763101D01*
D38*
X2242001Y-6883400D02*
X3600000Y-8241399D01*
D37*
X-5308600Y-6826600D02*
X-5308600Y-1392837D01*
D41*
X4478658Y16763101D02*
X4275214Y16966545D01*
X-16966545Y-4275214D02*
X-17009403Y-4087438D01*
X-17009403Y-4087438D02*
X-14216165Y-1294200D01*
D39*
X-7416800Y2895600D02*
X-7416800Y912637D01*
X-7416800Y912637D02*
X-5209963Y-1294200D01*
D41*
X5731100Y-10372500D02*
X8195544Y-12836943D01*
X8195544Y-12836943D02*
X11886051Y-12836943D01*
D37*
X-5308600Y-1392837D02*
X-5209963Y-1294200D01*
D41*
X-474030Y574170D02*
X-3341594Y574170D01*
X-3341594Y574170D02*
X-5209963Y-1294200D01*
X852299Y1900499D02*
X2092100Y3140300D01*
X2092100Y3140300D02*
X3600000Y4648200D01*
X2092100Y3140300D02*
X-474030Y574170D01*
X3600000Y4648200D02*
X3600000Y-6527800D01*
X3600000Y-6527800D02*
X3600000Y-8241399D01*
D39*
X10896600Y4105432D02*
X6502032Y8500000D01*
X6502032Y8500000D02*
X3600000Y8500000D01*
D40*
%TO.N,+5V*%
X3556000Y-13182600D02*
X2060800Y-11687400D01*
X-5384800Y-9982200D02*
X-8684008Y-9982200D01*
X-838200Y-11687400D02*
X-2765200Y-11687400D01*
X-3022600Y-11430000D02*
X-4470400Y-9982200D01*
X-2765200Y-11687400D02*
X-3022600Y-11430000D01*
X-4470400Y-9982200D02*
X-5384800Y-9982200D01*
X2060800Y-11687400D02*
X-838200Y-11687400D01*
X2222500Y-11849100D02*
X3556000Y-13182600D01*
X-10007600Y-8658608D02*
X-10007600Y-7670800D01*
X-8684008Y-9982200D02*
X-10007600Y-8658608D01*
X-10079038Y-7599362D02*
X-10079038Y-7423220D01*
X-10007600Y-7670800D02*
X-10079038Y-7599362D01*
X8667219Y-8555044D02*
X11738294Y-5483969D01*
X11738294Y-5151406D02*
X12114500Y-4775200D01*
X12039600Y-4700300D02*
X12039600Y-279400D01*
X12114500Y-4775200D02*
X12039600Y-4700300D01*
X8667219Y-8692618D02*
X8667219Y-8555044D01*
X11738294Y-5483969D02*
X11738294Y-5151406D01*
%TO.N,Net-(JP3-A)*%
X12065000Y1383200D02*
X12065000Y889000D01*
X13018600Y3985600D02*
X13018600Y2336800D01*
X13018600Y2336800D02*
X12065000Y1383200D01*
X12928600Y4075600D02*
X13018600Y3985600D01*
X12917000Y4075600D02*
X12928600Y4075600D01*
%TO.N,Net-(JP4-B)*%
X13918600Y1929800D02*
X13918600Y4544656D01*
X13014500Y-6010100D02*
X13014500Y1048403D01*
X13817600Y1828800D02*
X13918600Y1929800D01*
X13004800Y-6019800D02*
X13014500Y-6010100D01*
X13014500Y1048403D02*
X13794897Y1828800D01*
X13794897Y1828800D02*
X13817600Y1828800D01*
%TO.N,Net-(JP2-B)*%
X3268204Y-14257796D02*
X3303206Y-14222794D01*
X1597808Y-12587400D02*
X3268204Y-14257796D01*
X-2288029Y-12587400D02*
X1597808Y-12587400D01*
X-4427229Y-14726600D02*
X-2288029Y-12587400D01*
%TO.N,Net-(JP4-A)*%
X1225016Y-13487400D02*
X2949308Y-15211692D01*
X-3790200Y-15626600D02*
X-1651000Y-13487400D01*
X-8596200Y-12790600D02*
X-8596200Y-13593163D01*
X-8596200Y-13593163D02*
X-6562763Y-15626600D01*
X-11607800Y-9779000D02*
X-8596200Y-12790600D01*
X-6562763Y-15626600D02*
X-3790200Y-15626600D01*
X-1651000Y-13487400D02*
X1225016Y-13487400D01*
X10792535Y-9183731D02*
X10792535Y-9252895D01*
X11704800Y-8271466D02*
X10792535Y-9183731D01*
%TO.N,Net-(JP3-A)*%
X13918600Y-895499D02*
X13918600Y609000D01*
X13918600Y609000D02*
X14071600Y762000D01*
X14322580Y-1299479D02*
X13918600Y-895499D01*
X14322580Y-6362250D02*
X14322580Y-1299479D01*
D38*
%TO.N,Net-(J4-Pin_2)*%
X-11243967Y-6111000D02*
X-10295234Y-6111000D01*
X-12304000Y-7171033D02*
X-11243967Y-6111000D01*
D39*
%TO.N,GND*%
X2819400Y12816739D02*
X2401170Y12398509D01*
X2819400Y13028081D02*
X2819400Y12816739D01*
X2859038Y13878856D02*
X2768247Y13969647D01*
X2859038Y13067719D02*
X2859038Y13878856D01*
X2819400Y13028081D02*
X2859038Y13067719D01*
D40*
X2819400Y14020800D02*
X2819400Y13028081D01*
D37*
X-5308600Y-12426600D02*
X-5308600Y-12573000D01*
D39*
X2401170Y12398509D02*
X2401170Y12397803D01*
X2401170Y12397803D02*
X1756805Y11753438D01*
X1136238Y11753438D02*
X939800Y11557000D01*
X1756805Y11753438D02*
X1136238Y11753438D01*
D40*
%TO.N,Net-(J4-Pin_2)*%
X-12331818Y-7171033D02*
X-12304000Y-7171033D01*
X-15822284Y-9135000D02*
X-14295785Y-9135000D01*
X-14295785Y-9135000D02*
X-12331818Y-7171033D01*
D38*
%TO.N,Net-(J5-Pin_2)*%
X0Y14228600D02*
X4600Y14224000D01*
X0Y18270000D02*
X0Y14228600D01*
D40*
%TO.N,Net-(J6-Pin_2)*%
X15822284Y-9135000D02*
X14371985Y-9135000D01*
X14371985Y-9135000D02*
X12368709Y-7131724D01*
%TO.N,Net-(JP2-A)*%
X-7160103Y9881497D02*
X-12446000Y4595600D01*
X-7160103Y10839035D02*
X-5857938Y12141200D01*
X-12954000Y-5384800D02*
X-11963400Y-4394200D01*
X-12446000Y4595600D02*
X-13035278Y4595600D01*
X-3175000Y12141200D02*
X-2235200Y13081000D01*
X-5857938Y12141200D02*
X-3175000Y12141200D01*
X-13035278Y4595600D02*
X-13844614Y3786264D01*
X-12954000Y-6045200D02*
X-12954000Y-5384800D01*
X-13844614Y3786264D02*
X-13844614Y3363050D01*
X-7160103Y10839035D02*
X-7160103Y9881497D01*
%TO.N,Net-(JP2-B)*%
X-11642134Y-8296866D02*
X-7696200Y-12242800D01*
X-11654000Y-8296866D02*
X-11642134Y-8296866D01*
X-7696200Y-12242800D02*
X-7696200Y-13220371D01*
X-6189971Y-14726600D02*
X-4427229Y-14726600D01*
X-7696200Y-13220371D02*
X-6189971Y-14726600D01*
%TO.N,Net-(JP3-A)*%
X1304600Y12856162D02*
X1301523Y12853085D01*
X1304600Y14224000D02*
X1304600Y12856162D01*
%TO.N,Net-(JP3-B)*%
X-8102600Y10312400D02*
X-12163998Y6251002D01*
X-8102600Y11277600D02*
X-8102600Y10312400D01*
X-3185200Y13474503D02*
X-3185200Y13403792D01*
X-12163998Y6251002D02*
X-12163998Y6220398D01*
X-3185200Y13403792D02*
X-5976408Y13403792D01*
X-1295400Y14224000D02*
X-2435703Y14224000D01*
X-2435703Y14224000D02*
X-3185200Y13474503D01*
X-5976408Y13403792D02*
X-8102600Y11277600D01*
%TD*%
%TA.AperFunction,Conductor*%
%TO.N,VCC*%
G36*
X1790519Y19919137D02*
G01*
X1794943Y19918739D01*
X2682402Y19818747D01*
X2686805Y19818150D01*
X3568849Y19678448D01*
X3573220Y19677655D01*
X4448135Y19498515D01*
X4452467Y19497526D01*
X5318454Y19279316D01*
X5322736Y19278134D01*
X6178054Y19021294D01*
X6182280Y19019921D01*
X7025225Y18724962D01*
X7029384Y18723401D01*
X7858241Y18390923D01*
X7862326Y18389177D01*
X8675421Y18019852D01*
X8679424Y18017925D01*
X9475171Y17612471D01*
X9479083Y17610365D01*
X10255783Y17169650D01*
X10259597Y17167372D01*
X11015788Y16692226D01*
X11019496Y16689778D01*
X11753581Y16181202D01*
X11757175Y16178591D01*
X12467710Y15637589D01*
X12471184Y15634819D01*
X13156747Y15062470D01*
X13160092Y15059547D01*
X13819255Y14457045D01*
X13822467Y14453975D01*
X14453975Y13822467D01*
X14457045Y13819255D01*
X15059547Y13160092D01*
X15062470Y13156747D01*
X15634819Y12471184D01*
X15637589Y12467710D01*
X16178591Y11757175D01*
X16181202Y11753581D01*
X16688990Y11020634D01*
X16706565Y10967315D01*
X16692318Y10913012D01*
X16650833Y10875188D01*
X16595448Y10866005D01*
X16543978Y10888415D01*
X16517243Y10910849D01*
X16225225Y11102913D01*
X15912883Y11259777D01*
X15584443Y11379319D01*
X15244346Y11459923D01*
X14897191Y11500500D01*
X14547673Y11500500D01*
X14200518Y11459923D01*
X13860421Y11379319D01*
X13531981Y11259777D01*
X13529412Y11258487D01*
X13529410Y11258486D01*
X13456462Y11221850D01*
X13219639Y11102913D01*
X12927621Y10910849D01*
X12659874Y10686183D01*
X12420020Y10431953D01*
X12418305Y10429649D01*
X12418303Y10429647D01*
X12310850Y10285313D01*
X12211302Y10151596D01*
X12209871Y10149118D01*
X12209868Y10149113D01*
X12039043Y9853235D01*
X12036543Y9848904D01*
X12035408Y9846274D01*
X12035405Y9846267D01*
X11899247Y9530617D01*
X11898106Y9527971D01*
X11897283Y9525223D01*
X11897280Y9525214D01*
X11827180Y9291062D01*
X11797863Y9193136D01*
X11797364Y9190308D01*
X11797361Y9190294D01*
X11737670Y8851762D01*
X11737170Y8848927D01*
X11737003Y8846075D01*
X11737002Y8846059D01*
X11727064Y8675421D01*
X11716847Y8500000D01*
X11717014Y8497133D01*
X11737002Y8153940D01*
X11737004Y8153922D01*
X11737170Y8151073D01*
X11737667Y8148248D01*
X11737669Y8148240D01*
X11797361Y7809705D01*
X11797365Y7809687D01*
X11797863Y7806864D01*
X11798687Y7804110D01*
X11798691Y7804095D01*
X11840467Y7664554D01*
X11841823Y7612770D01*
X11816840Y7567390D01*
X11772360Y7540839D01*
X11720560Y7540387D01*
X11675624Y7566155D01*
X10155296Y9086485D01*
X10133836Y9118603D01*
X10126300Y9156489D01*
X10126300Y9823949D01*
X10133836Y9861835D01*
X10139501Y9875513D01*
X10160844Y9927038D01*
X10181482Y10083800D01*
X10160844Y10240562D01*
X10100336Y10386641D01*
X10004082Y10512082D01*
X9878641Y10608336D01*
X9732562Y10668844D01*
X9600859Y10686183D01*
X9582234Y10688635D01*
X9575800Y10689482D01*
X9569366Y10688635D01*
X9550741Y10686183D01*
X9419038Y10668844D01*
X9272959Y10608336D01*
X9147518Y10512082D01*
X9143563Y10506928D01*
X9077696Y10421088D01*
X9051264Y10386641D01*
X8990756Y10240562D01*
X8989909Y10234131D01*
X8989908Y10234126D01*
X8970965Y10090234D01*
X8970118Y10083800D01*
X8970965Y10077366D01*
X8989908Y9933473D01*
X8989909Y9933466D01*
X8990756Y9927038D01*
X8993239Y9921043D01*
X8993240Y9921040D01*
X9017764Y9861835D01*
X9025300Y9823949D01*
X9025300Y9767170D01*
X9013610Y9720502D01*
X8981302Y9684855D01*
X8936004Y9668647D01*
X8888415Y9675706D01*
X8789062Y9716859D01*
X8789060Y9716859D01*
X8783062Y9719344D01*
X8626300Y9739982D01*
X8469538Y9719344D01*
X8323459Y9658836D01*
X8198018Y9562582D01*
X8194063Y9557428D01*
X8134648Y9479997D01*
X8101764Y9437141D01*
X8041256Y9291062D01*
X8040409Y9284631D01*
X8040408Y9284626D01*
X8023539Y9156489D01*
X8020618Y9134300D01*
X8021465Y9127866D01*
X8040408Y8983973D01*
X8040409Y8983966D01*
X8041256Y8977538D01*
X8043739Y8971543D01*
X8043740Y8971540D01*
X8068264Y8912335D01*
X8075800Y8874449D01*
X8075800Y8377379D01*
X8075742Y8373999D01*
X8073538Y8309474D01*
X8075141Y8302897D01*
X8083567Y8268319D01*
X8085459Y8258363D01*
X8090308Y8223084D01*
X8090309Y8223080D01*
X8091230Y8216380D01*
X8093923Y8210178D01*
X8093926Y8210170D01*
X8099233Y8197953D01*
X8104611Y8181960D01*
X8107763Y8169027D01*
X8107764Y8169022D01*
X8109367Y8162448D01*
X8112683Y8156549D01*
X8112684Y8156548D01*
X8130130Y8125519D01*
X8134637Y8116446D01*
X8151520Y8077580D01*
X8155789Y8072332D01*
X8155796Y8072321D01*
X8164194Y8061999D01*
X8173687Y8048052D01*
X8180215Y8036442D01*
X8180218Y8036437D01*
X8183534Y8030541D01*
X8188314Y8025760D01*
X8188323Y8025749D01*
X8213496Y8000576D01*
X8220283Y7993055D01*
X8242743Y7965449D01*
X8242751Y7965441D01*
X8247022Y7960192D01*
X8252550Y7956289D01*
X8252554Y7956286D01*
X8263427Y7948611D01*
X8276335Y7937738D01*
X12439104Y3774972D01*
X12460564Y3742854D01*
X12468100Y3704968D01*
X12468100Y2605832D01*
X12460564Y2567946D01*
X12439104Y2535828D01*
X11683571Y1780296D01*
X11681140Y1777947D01*
X11638904Y1738502D01*
X11638901Y1738498D01*
X11633956Y1733880D01*
X11630436Y1728092D01*
X11611945Y1697685D01*
X11606242Y1689306D01*
X11580639Y1655542D01*
X11578155Y1649244D01*
X11578154Y1649242D01*
X11573268Y1636853D01*
X11565761Y1621739D01*
X11555328Y1604582D01*
X11553501Y1598060D01*
X11543896Y1563783D01*
X11540667Y1554181D01*
X11525124Y1514764D01*
X11524431Y1508033D01*
X11524430Y1508026D01*
X11523067Y1494776D01*
X11519917Y1478202D01*
X11518418Y1472849D01*
X11514500Y1458865D01*
X11514500Y1452092D01*
X11514500Y1416500D01*
X11513981Y1406376D01*
X11509648Y1364228D01*
X11510797Y1357559D01*
X11510798Y1357553D01*
X11513060Y1344439D01*
X11514500Y1327618D01*
X11514500Y1148851D01*
X11506964Y1110965D01*
X11479956Y1045762D01*
X11479109Y1039331D01*
X11479108Y1039326D01*
X11464818Y930779D01*
X11459318Y889000D01*
X11460165Y882566D01*
X11479108Y738673D01*
X11479109Y738666D01*
X11479956Y732238D01*
X11482439Y726243D01*
X11482440Y726240D01*
X11537980Y592154D01*
X11537982Y592149D01*
X11540464Y586159D01*
X11544411Y581015D01*
X11544414Y581010D01*
X11632763Y465871D01*
X11632767Y465866D01*
X11636718Y460718D01*
X11641866Y456767D01*
X11641867Y456767D01*
X11724857Y393087D01*
X11759007Y344315D01*
X11759007Y284775D01*
X11724856Y236003D01*
X11696725Y214417D01*
X11611318Y148882D01*
X11515064Y23441D01*
X11512581Y17447D01*
X11512580Y17445D01*
X11494635Y-25880D01*
X11454556Y-122638D01*
X11453709Y-129066D01*
X11453708Y-129073D01*
X11436189Y-262150D01*
X11433918Y-279400D01*
X11434765Y-285834D01*
X11453708Y-429726D01*
X11453709Y-429731D01*
X11454556Y-436162D01*
X11457039Y-442158D01*
X11457040Y-442159D01*
X11481564Y-501365D01*
X11489100Y-539251D01*
X11489100Y-2897553D01*
X11475086Y-2948330D01*
X11437012Y-2984732D01*
X11385657Y-2996453D01*
X11335560Y-2980175D01*
X11306936Y-2947410D01*
X11305821Y-2948171D01*
X11301646Y-2942047D01*
X11298425Y-2935358D01*
X11293668Y-2930231D01*
X11291829Y-2927640D01*
X11288565Y-2921462D01*
X11247810Y-2880707D01*
X11245242Y-2878040D01*
X11241177Y-2873659D01*
X11206055Y-2835806D01*
X11200305Y-2832486D01*
X11193577Y-2826474D01*
X10032510Y-1665407D01*
X10006481Y-1619458D01*
X10007777Y-1566665D01*
X10019656Y-1527504D01*
X10035300Y-1475934D01*
X10055583Y-1270000D01*
X10035300Y-1064066D01*
X9975232Y-866046D01*
X9877685Y-683550D01*
X9746410Y-523590D01*
X9647185Y-442159D01*
X9590208Y-395399D01*
X9590207Y-395398D01*
X9586450Y-392315D01*
X9582166Y-390025D01*
X9582163Y-390023D01*
X9408248Y-297063D01*
X9408246Y-297062D01*
X9403954Y-294768D01*
X9399293Y-293354D01*
X9210590Y-236112D01*
X9210586Y-236111D01*
X9205934Y-234700D01*
X9000000Y-214417D01*
X8995157Y-214894D01*
X8798908Y-234223D01*
X8798907Y-234223D01*
X8794066Y-234700D01*
X8789415Y-236110D01*
X8789409Y-236112D01*
X8600706Y-293354D01*
X8600702Y-293355D01*
X8596046Y-294768D01*
X8591757Y-297060D01*
X8591751Y-297063D01*
X8417836Y-390023D01*
X8417828Y-390028D01*
X8413550Y-392315D01*
X8409796Y-395394D01*
X8409791Y-395399D01*
X8257354Y-520500D01*
X8257348Y-520505D01*
X8253590Y-523590D01*
X8250505Y-527348D01*
X8250500Y-527354D01*
X8125399Y-679791D01*
X8125394Y-679796D01*
X8122315Y-683550D01*
X8120028Y-687828D01*
X8120023Y-687836D01*
X8027063Y-861751D01*
X8027060Y-861757D01*
X8024768Y-866046D01*
X8023355Y-870702D01*
X8023354Y-870706D01*
X7966112Y-1059409D01*
X7966110Y-1059415D01*
X7964700Y-1064066D01*
X7944417Y-1270000D01*
X7964700Y-1475934D01*
X7966111Y-1480586D01*
X7966112Y-1480590D01*
X8022175Y-1665407D01*
X8024768Y-1673954D01*
X8027062Y-1678246D01*
X8027063Y-1678248D01*
X8120023Y-1852163D01*
X8120025Y-1852166D01*
X8122315Y-1856450D01*
X8253590Y-2016410D01*
X8413550Y-2147685D01*
X8596046Y-2245232D01*
X8794066Y-2305300D01*
X9000000Y-2325583D01*
X9205934Y-2305300D01*
X9296665Y-2277776D01*
X9349457Y-2276481D01*
X9395406Y-2302510D01*
X9683392Y-2590496D01*
X9710486Y-2641186D01*
X9704852Y-2698386D01*
X9668389Y-2742815D01*
X9613388Y-2759500D01*
X8130252Y-2759500D01*
X8125494Y-2760446D01*
X8125488Y-2760447D01*
X8081333Y-2769230D01*
X8081330Y-2769231D01*
X8071769Y-2771133D01*
X8063663Y-2776549D01*
X8063659Y-2776551D01*
X8013558Y-2810028D01*
X8013555Y-2810030D01*
X8005448Y-2815448D01*
X8000030Y-2823555D01*
X8000028Y-2823558D01*
X7966551Y-2873659D01*
X7966549Y-2873663D01*
X7961133Y-2881769D01*
X7959231Y-2891330D01*
X7959230Y-2891333D01*
X7950447Y-2935488D01*
X7950446Y-2935494D01*
X7949500Y-2940252D01*
X7949500Y-4679748D01*
X7950446Y-4684506D01*
X7950447Y-4684511D01*
X7955991Y-4712382D01*
X7961133Y-4738231D01*
X7966550Y-4746338D01*
X7966551Y-4746340D01*
X7970691Y-4752536D01*
X8005448Y-4804552D01*
X8071769Y-4848867D01*
X8130252Y-4860500D01*
X9864890Y-4860500D01*
X9869748Y-4860500D01*
X9928231Y-4848867D01*
X9994552Y-4804552D01*
X10038867Y-4738231D01*
X10050500Y-4679748D01*
X10050500Y-3196612D01*
X10067185Y-3141611D01*
X10111614Y-3105148D01*
X10168814Y-3099514D01*
X10219504Y-3126608D01*
X10442504Y-3349608D01*
X10463964Y-3381726D01*
X10471500Y-3419612D01*
X10471500Y-4877788D01*
X10463964Y-4915674D01*
X10442504Y-4947792D01*
X7928220Y-7462074D01*
X7890040Y-7485816D01*
X7849654Y-7489794D01*
X7849654Y-7489943D01*
X7848139Y-7489943D01*
X7845296Y-7490223D01*
X7843169Y-7489943D01*
X7843167Y-7489943D01*
X7836733Y-7489096D01*
X7830299Y-7489943D01*
X7686406Y-7508886D01*
X7686399Y-7508887D01*
X7679971Y-7509734D01*
X7673976Y-7512217D01*
X7673973Y-7512218D01*
X7539887Y-7567758D01*
X7539882Y-7567760D01*
X7533892Y-7570242D01*
X7528748Y-7574189D01*
X7528743Y-7574192D01*
X7413604Y-7662541D01*
X7413599Y-7662545D01*
X7408451Y-7666496D01*
X7404500Y-7671644D01*
X7404496Y-7671649D01*
X7316147Y-7786788D01*
X7316144Y-7786793D01*
X7312197Y-7791937D01*
X7309715Y-7797927D01*
X7309713Y-7797932D01*
X7254173Y-7932018D01*
X7251689Y-7938016D01*
X7250842Y-7944444D01*
X7250841Y-7944451D01*
X7236531Y-8053151D01*
X7231051Y-8094778D01*
X7231898Y-8101212D01*
X7250841Y-8245104D01*
X7250842Y-8245109D01*
X7251689Y-8251540D01*
X7254172Y-8257536D01*
X7254173Y-8257537D01*
X7308541Y-8388794D01*
X7312197Y-8397619D01*
X7316146Y-8402766D01*
X7316147Y-8402767D01*
X7356570Y-8455448D01*
X7408451Y-8523060D01*
X7533892Y-8619314D01*
X7679971Y-8679822D01*
X7777167Y-8692618D01*
X7829995Y-8699573D01*
X7836733Y-8700460D01*
X7960570Y-8684156D01*
X8011375Y-8690845D01*
X8052031Y-8722041D01*
X8071643Y-8769386D01*
X8081327Y-8842944D01*
X8081328Y-8842949D01*
X8082175Y-8849380D01*
X8084658Y-8855375D01*
X8084659Y-8855377D01*
X8139423Y-8987590D01*
X8142683Y-8995459D01*
X8146632Y-9000606D01*
X8146633Y-9000607D01*
X8226251Y-9104368D01*
X8238937Y-9120900D01*
X8364378Y-9217154D01*
X8510457Y-9277662D01*
X8667219Y-9298300D01*
X8823981Y-9277662D01*
X8970060Y-9217154D01*
X9095501Y-9120900D01*
X9191755Y-8995459D01*
X9252263Y-8849380D01*
X9263167Y-8766550D01*
X9272528Y-8735689D01*
X9291312Y-8709474D01*
X11274809Y-6725977D01*
X11324228Y-6699146D01*
X11380289Y-6703558D01*
X11424904Y-6737792D01*
X11443675Y-6790802D01*
X11430548Y-6845483D01*
X11274199Y-7116288D01*
X11274196Y-7116293D01*
X11271769Y-7120498D01*
X11270207Y-7125096D01*
X11270206Y-7125101D01*
X11255736Y-7167728D01*
X11255735Y-7167730D01*
X11252602Y-7176962D01*
X11253239Y-7186689D01*
X11253129Y-7187528D01*
X11240712Y-7224102D01*
X11215246Y-7253142D01*
X11214575Y-7253656D01*
X11205833Y-7257968D01*
X11199406Y-7265296D01*
X11199404Y-7265298D01*
X11156449Y-7314279D01*
X11156445Y-7314284D01*
X11153241Y-7317938D01*
X11150809Y-7322149D01*
X11150807Y-7322153D01*
X10914185Y-7731993D01*
X10914185Y-7731994D01*
X10844058Y-7853457D01*
X10844054Y-7853464D01*
X10842296Y-7856510D01*
X10840986Y-7859780D01*
X10840984Y-7859786D01*
X10821984Y-7907244D01*
X10821981Y-7907253D01*
X10820670Y-7910528D01*
X10819838Y-7913953D01*
X10819835Y-7913966D01*
X10787608Y-8046811D01*
X10786773Y-8050254D01*
X10786437Y-8053765D01*
X10786436Y-8053776D01*
X10781578Y-8104659D01*
X10781577Y-8104671D01*
X10781243Y-8108177D01*
X10781411Y-8111704D01*
X10781411Y-8111706D01*
X10787915Y-8248259D01*
X10787916Y-8248268D01*
X10788084Y-8251792D01*
X10788752Y-8255261D01*
X10788753Y-8255264D01*
X10790073Y-8262115D01*
X10799096Y-8308928D01*
X10800248Y-8312259D01*
X10800251Y-8312267D01*
X10801895Y-8317015D01*
X10804819Y-8371587D01*
X10778343Y-8419396D01*
X10411091Y-8786648D01*
X10408661Y-8788996D01*
X10402922Y-8794356D01*
X10395618Y-8800544D01*
X10369400Y-8820662D01*
X10369393Y-8820668D01*
X10364253Y-8824613D01*
X10360305Y-8829757D01*
X10360303Y-8829760D01*
X10271949Y-8944905D01*
X10271946Y-8944910D01*
X10267999Y-8950054D01*
X10265517Y-8956044D01*
X10265515Y-8956049D01*
X10209975Y-9090135D01*
X10207491Y-9096133D01*
X10206644Y-9102561D01*
X10206643Y-9102568D01*
X10191558Y-9217154D01*
X10186853Y-9252895D01*
X10187700Y-9259329D01*
X10206643Y-9403221D01*
X10206644Y-9403226D01*
X10207491Y-9409657D01*
X10209974Y-9415653D01*
X10209975Y-9415654D01*
X10264571Y-9547462D01*
X10267999Y-9555736D01*
X10271948Y-9560883D01*
X10271949Y-9560884D01*
X10319027Y-9622238D01*
X10364253Y-9681177D01*
X10489694Y-9777431D01*
X10635773Y-9837939D01*
X10792535Y-9858577D01*
X10949297Y-9837939D01*
X11095376Y-9777431D01*
X11220817Y-9681177D01*
X11317071Y-9555736D01*
X11377579Y-9409657D01*
X11378426Y-9403218D01*
X11380105Y-9396956D01*
X11380690Y-9397112D01*
X11387470Y-9374754D01*
X11406257Y-9348532D01*
X11647813Y-9106976D01*
X11691055Y-9081667D01*
X11741152Y-9080772D01*
X11782784Y-9090871D01*
X11925911Y-9104537D01*
X11984029Y-9101769D01*
X12125209Y-9074560D01*
X12180196Y-9055529D01*
X12307991Y-8989646D01*
X12355388Y-8955895D01*
X12459446Y-8856676D01*
X12495416Y-8810937D01*
X12531360Y-8748679D01*
X12531358Y-8748681D01*
X12567303Y-8686423D01*
X12567304Y-8686422D01*
X12714203Y-8431983D01*
X12758100Y-8391761D01*
X12817130Y-8383989D01*
X12869942Y-8411481D01*
X12939649Y-8481189D01*
X13008063Y-8549603D01*
X13033685Y-8593982D01*
X13033686Y-8645227D01*
X13020470Y-8694553D01*
X13020468Y-8694562D01*
X13019126Y-8699573D01*
X13018855Y-8704751D01*
X13018854Y-8704759D01*
X13009490Y-8883425D01*
X13009490Y-8883430D01*
X13009219Y-8888606D01*
X13010029Y-8893725D01*
X13010030Y-8893728D01*
X13038019Y-9070445D01*
X13038020Y-9070450D01*
X13038831Y-9075568D01*
X13040686Y-9080402D01*
X13040688Y-9080407D01*
X13103849Y-9244947D01*
X13106667Y-9252288D01*
X13109492Y-9256638D01*
X13109493Y-9256640D01*
X13146344Y-9313386D01*
X13209763Y-9411042D01*
X13343614Y-9544892D01*
X13408610Y-9589563D01*
X16366842Y-11297498D01*
X16404403Y-11336104D01*
X16416192Y-11388662D01*
X16398719Y-11439613D01*
X16181202Y-11753581D01*
X16178591Y-11757175D01*
X15637589Y-12467710D01*
X15634819Y-12471184D01*
X15062470Y-13156747D01*
X15059547Y-13160092D01*
X14457045Y-13819255D01*
X14453975Y-13822467D01*
X13822467Y-14453975D01*
X13819255Y-14457045D01*
X13160092Y-15059547D01*
X13156747Y-15062470D01*
X12471184Y-15634819D01*
X12467710Y-15637589D01*
X11757175Y-16178591D01*
X11753581Y-16181202D01*
X11019496Y-16689778D01*
X11015788Y-16692226D01*
X10259597Y-17167372D01*
X10255783Y-17169650D01*
X9479083Y-17610365D01*
X9475171Y-17612471D01*
X8679424Y-18017925D01*
X8675421Y-18019852D01*
X7862326Y-18389177D01*
X7858241Y-18390923D01*
X7029384Y-18723401D01*
X7025225Y-18724962D01*
X6182280Y-19019921D01*
X6178054Y-19021294D01*
X5322736Y-19278134D01*
X5318454Y-19279316D01*
X4452467Y-19497526D01*
X4448135Y-19498515D01*
X3573220Y-19677655D01*
X3568849Y-19678448D01*
X2686805Y-19818150D01*
X2682402Y-19818747D01*
X1794944Y-19918739D01*
X1790520Y-19919137D01*
X1213164Y-19958064D01*
X1158637Y-19945947D01*
X1119348Y-19906244D01*
X1107803Y-19851594D01*
X1127678Y-19799393D01*
X1172645Y-19766258D01*
X1175812Y-19765104D01*
X1190451Y-19759777D01*
X1502793Y-19602913D01*
X1794811Y-19410849D01*
X2062558Y-19186183D01*
X2302412Y-18931953D01*
X2511130Y-18651596D01*
X2685889Y-18348904D01*
X2824326Y-18027971D01*
X2924569Y-17693136D01*
X2985262Y-17348927D01*
X3005585Y-17000000D01*
X2985262Y-16651073D01*
X2924569Y-16306864D01*
X2824326Y-15972029D01*
X2815143Y-15950741D01*
X2807759Y-15899682D01*
X2827069Y-15851837D01*
X2867830Y-15820206D01*
X2918967Y-15813379D01*
X2949308Y-15817374D01*
X3106070Y-15796736D01*
X3252149Y-15736228D01*
X3377590Y-15639974D01*
X3473844Y-15514533D01*
X3534352Y-15368454D01*
X3554990Y-15211692D01*
X3534352Y-15054930D01*
X3473983Y-14909188D01*
X3467295Y-14858381D01*
X3486906Y-14811035D01*
X3527563Y-14779839D01*
X3606047Y-14747330D01*
X3731488Y-14651076D01*
X3827742Y-14525635D01*
X3888250Y-14379556D01*
X3908888Y-14222794D01*
X3888250Y-14066032D01*
X3827742Y-13919953D01*
X3789867Y-13870594D01*
X3769505Y-13814645D01*
X3784916Y-13757134D01*
X3830526Y-13718864D01*
X3858841Y-13707136D01*
X3984282Y-13610882D01*
X4080536Y-13485441D01*
X4141044Y-13339362D01*
X4161682Y-13182600D01*
X4141044Y-13025838D01*
X4080536Y-12879759D01*
X3984282Y-12754318D01*
X3858841Y-12658064D01*
X3852847Y-12655581D01*
X3852845Y-12655580D01*
X3793639Y-12631056D01*
X3761521Y-12609596D01*
X2457896Y-11305971D01*
X2455547Y-11303540D01*
X2416102Y-11261304D01*
X2416098Y-11261301D01*
X2411480Y-11256356D01*
X2375285Y-11234345D01*
X2366905Y-11228642D01*
X2333142Y-11203039D01*
X2326844Y-11200555D01*
X2326842Y-11200554D01*
X2314453Y-11195668D01*
X2299339Y-11188161D01*
X2298593Y-11187707D01*
X2282182Y-11177728D01*
X2241384Y-11166296D01*
X2231780Y-11163067D01*
X2198656Y-11150005D01*
X2198655Y-11150004D01*
X2192364Y-11147524D01*
X2185633Y-11146831D01*
X2185626Y-11146830D01*
X2172376Y-11145467D01*
X2155802Y-11142317D01*
X2142988Y-11138727D01*
X2142984Y-11138726D01*
X2136465Y-11136900D01*
X2129692Y-11136900D01*
X2094100Y-11136900D01*
X2083976Y-11136381D01*
X2048563Y-11132740D01*
X2048560Y-11132740D01*
X2041828Y-11132048D01*
X2035159Y-11133197D01*
X2035153Y-11133198D01*
X2022039Y-11135460D01*
X2005218Y-11136900D01*
X614951Y-11136900D01*
X568283Y-11125210D01*
X532636Y-11092902D01*
X516428Y-11047604D01*
X523487Y-11000015D01*
X564640Y-10900662D01*
X564640Y-10900660D01*
X567125Y-10894662D01*
X587763Y-10737900D01*
X567125Y-10581138D01*
X506617Y-10435059D01*
X410363Y-10309618D01*
X284922Y-10213364D01*
X278928Y-10210881D01*
X278926Y-10210880D01*
X144840Y-10155340D01*
X144839Y-10155339D01*
X138843Y-10152856D01*
X132412Y-10152009D01*
X132407Y-10152008D01*
X-11485Y-10133065D01*
X-17919Y-10132218D01*
X-24353Y-10133065D01*
X-168245Y-10152008D01*
X-168250Y-10152009D01*
X-174681Y-10152856D01*
X-180677Y-10155339D01*
X-180678Y-10155340D01*
X-314764Y-10210880D01*
X-314766Y-10210881D01*
X-320760Y-10213364D01*
X-446201Y-10309618D01*
X-450155Y-10314771D01*
X-514147Y-10398167D01*
X-548902Y-10426690D01*
X-592689Y-10436900D01*
X-1934389Y-10436900D01*
X-1972275Y-10429364D01*
X-2004393Y-10407904D01*
X-3682430Y-8729865D01*
X-3689825Y-8721589D01*
X-3708292Y-8698433D01*
X-3708296Y-8698429D01*
X-3712921Y-8692630D01*
X-3719047Y-8688452D01*
X-3719056Y-8688445D01*
X-3760548Y-8660156D01*
X-3763565Y-8658016D01*
X-3803951Y-8628210D01*
X-3803954Y-8628208D01*
X-3809918Y-8623807D01*
X-3816502Y-8621502D01*
X-3819354Y-8620062D01*
X-3825127Y-8616128D01*
X-3832205Y-8613944D01*
X-3832213Y-8613941D01*
X-3880209Y-8599136D01*
X-3883724Y-8597980D01*
X-3931101Y-8581402D01*
X-3931109Y-8581400D01*
X-3938101Y-8578954D01*
X-3945075Y-8578692D01*
X-3948222Y-8578158D01*
X-3954898Y-8576100D01*
X-3962314Y-8576100D01*
X-4012516Y-8576100D01*
X-4016218Y-8576031D01*
X-4066394Y-8574153D01*
X-4066397Y-8574153D01*
X-4073810Y-8573876D01*
X-4080222Y-8575594D01*
X-4089235Y-8576100D01*
X-5960389Y-8576100D01*
X-5998275Y-8568564D01*
X-6030393Y-8547104D01*
X-8421223Y-6156272D01*
X-8443700Y-6121600D01*
X-8450066Y-6080773D01*
X-8439214Y-6040904D01*
X-8399249Y-5963382D01*
X-8385337Y-5936396D01*
X-8384180Y-5933054D01*
X-8367461Y-5884748D01*
X-8367458Y-5884739D01*
X-8366306Y-5881409D01*
X-8363861Y-5868725D01*
X-8339766Y-5743704D01*
X-8339764Y-5743694D01*
X-8339097Y-5740229D01*
X-8338929Y-5736702D01*
X-8338928Y-5736694D01*
X-8336497Y-5685640D01*
X-8336497Y-5685638D01*
X-8336329Y-5682111D01*
X-8336663Y-5678605D01*
X-8336664Y-5678593D01*
X-8349659Y-5542493D01*
X-8349661Y-5542479D01*
X-8349995Y-5538984D01*
X-8350824Y-5535563D01*
X-8350826Y-5535556D01*
X-8362878Y-5485873D01*
X-8362880Y-5485866D01*
X-8363712Y-5482437D01*
X-8365021Y-5479166D01*
X-8365025Y-5479155D01*
X-8415838Y-5352229D01*
X-8415844Y-5352216D01*
X-8417149Y-5348957D01*
X-8430841Y-5325242D01*
X-8444478Y-5301621D01*
X-8444487Y-5301606D01*
X-8446245Y-5298563D01*
X-8448425Y-5295790D01*
X-8448429Y-5295785D01*
X-8455165Y-5287219D01*
X-8463077Y-5275527D01*
X-8655615Y-4942042D01*
X-8661786Y-4929340D01*
X-8665833Y-4919229D01*
X-8665842Y-4919210D01*
X-8667149Y-4915946D01*
X-8668911Y-4912893D01*
X-8668917Y-4912882D01*
X-8694474Y-4868617D01*
X-8694477Y-4868611D01*
X-8696243Y-4865554D01*
X-8698418Y-4862787D01*
X-8698427Y-4862775D01*
X-8782932Y-4755318D01*
X-8782941Y-4755308D01*
X-8785121Y-4752536D01*
X-8787676Y-4750099D01*
X-8787684Y-4750091D01*
X-8824670Y-4714824D01*
X-8824684Y-4714812D01*
X-8827233Y-4712382D01*
X-8830106Y-4710335D01*
X-8830116Y-4710328D01*
X-8941464Y-4631038D01*
X-8941478Y-4631029D01*
X-8944352Y-4628983D01*
X-8947492Y-4627364D01*
X-8947499Y-4627360D01*
X-8992925Y-4603942D01*
X-8992928Y-4603940D01*
X-8996068Y-4602322D01*
X-8999401Y-4601168D01*
X-8999409Y-4601165D01*
X-9128602Y-4556450D01*
X-9128609Y-4556447D01*
X-9131938Y-4555296D01*
X-9135400Y-4554628D01*
X-9135403Y-4554628D01*
X-9185601Y-4544953D01*
X-9185605Y-4544952D01*
X-9189074Y-4544284D01*
X-9192595Y-4544116D01*
X-9192606Y-4544115D01*
X-9329159Y-4537611D01*
X-9329161Y-4537611D01*
X-9332689Y-4537443D01*
X-9336195Y-4537777D01*
X-9336206Y-4537778D01*
X-9387089Y-4542636D01*
X-9387097Y-4542637D01*
X-9390612Y-4542973D01*
X-9530338Y-4576870D01*
X-9549920Y-4584710D01*
X-9581076Y-4597183D01*
X-9581080Y-4597185D01*
X-9584357Y-4598497D01*
X-9646612Y-4634440D01*
X-9646618Y-4634443D01*
X-10076266Y-4882500D01*
X-10076270Y-4882503D01*
X-10079627Y-4884441D01*
X-10129333Y-4924692D01*
X-10155615Y-4965164D01*
X-10194275Y-4999746D01*
X-10245116Y-5010033D01*
X-10254172Y-5009439D01*
X-10254176Y-5009439D01*
X-10263904Y-5008802D01*
X-10339435Y-5034441D01*
X-10601318Y-5185639D01*
X-10710190Y-5248496D01*
X-10831646Y-5318618D01*
X-10831649Y-5318620D01*
X-10834706Y-5320385D01*
X-10837480Y-5322567D01*
X-10837485Y-5322570D01*
X-10853762Y-5335371D01*
X-10880444Y-5356354D01*
X-10979663Y-5460412D01*
X-10981712Y-5463290D01*
X-11011358Y-5504921D01*
X-11011361Y-5504926D01*
X-11013414Y-5507809D01*
X-11046185Y-5571377D01*
X-11064480Y-5606864D01*
X-11100949Y-5646034D01*
X-11152475Y-5660500D01*
X-11213103Y-5660500D01*
X-11224187Y-5659878D01*
X-11253629Y-5656560D01*
X-11253633Y-5656560D01*
X-11261002Y-5655730D01*
X-11268289Y-5657108D01*
X-11268295Y-5657109D01*
X-11317631Y-5666444D01*
X-11321279Y-5667064D01*
X-11370917Y-5674546D01*
X-11378254Y-5675652D01*
X-11384549Y-5678684D01*
X-11387569Y-5679677D01*
X-11394439Y-5680977D01*
X-11431321Y-5700470D01*
X-11445391Y-5707906D01*
X-11448695Y-5709574D01*
X-11493929Y-5731358D01*
X-11500609Y-5734575D01*
X-11505726Y-5739322D01*
X-11508330Y-5741170D01*
X-11514505Y-5744434D01*
X-11519747Y-5749675D01*
X-11519747Y-5749676D01*
X-11555271Y-5785200D01*
X-11557938Y-5787768D01*
X-11594720Y-5821896D01*
X-11594721Y-5821898D01*
X-11600161Y-5826945D01*
X-11603479Y-5832693D01*
X-11609487Y-5839416D01*
X-11747275Y-5977204D01*
X-11800088Y-6004696D01*
X-11859118Y-5996925D01*
X-11903015Y-5956700D01*
X-12091495Y-5630244D01*
X-12091496Y-5630244D01*
X-12161618Y-5508787D01*
X-12161624Y-5508778D01*
X-12163385Y-5505728D01*
X-12165564Y-5502957D01*
X-12165577Y-5502938D01*
X-12167633Y-5500324D01*
X-12187163Y-5457092D01*
X-12184339Y-5409738D01*
X-12159809Y-5369134D01*
X-11757877Y-4967202D01*
X-11725758Y-4945742D01*
X-11660559Y-4918736D01*
X-11535118Y-4822482D01*
X-11481446Y-4752536D01*
X-11442814Y-4702189D01*
X-11442813Y-4702188D01*
X-11438864Y-4697041D01*
X-11429688Y-4674890D01*
X-11380840Y-4556959D01*
X-11380839Y-4556958D01*
X-11378356Y-4550962D01*
X-11377509Y-4544531D01*
X-11377508Y-4544526D01*
X-11358565Y-4400634D01*
X-11357718Y-4394200D01*
X-11358565Y-4387766D01*
X-11377508Y-4243873D01*
X-11377509Y-4243866D01*
X-11378356Y-4237438D01*
X-11398553Y-4188677D01*
X-11436380Y-4097354D01*
X-11436382Y-4097349D01*
X-11438864Y-4091359D01*
X-11442811Y-4086215D01*
X-11442814Y-4086210D01*
X-11531163Y-3971071D01*
X-11531167Y-3971066D01*
X-11535118Y-3965918D01*
X-11540266Y-3961967D01*
X-11540271Y-3961963D01*
X-11655410Y-3873614D01*
X-11655415Y-3873611D01*
X-11660559Y-3869664D01*
X-11666549Y-3867182D01*
X-11666554Y-3867180D01*
X-11800640Y-3811640D01*
X-11800643Y-3811639D01*
X-11806638Y-3809156D01*
X-11813066Y-3808309D01*
X-11813073Y-3808308D01*
X-11956966Y-3789365D01*
X-11963400Y-3788518D01*
X-11969834Y-3789365D01*
X-12113726Y-3808308D01*
X-12113731Y-3808309D01*
X-12120162Y-3809156D01*
X-12126158Y-3811639D01*
X-12126159Y-3811640D01*
X-12260245Y-3867180D01*
X-12260247Y-3867181D01*
X-12266241Y-3869664D01*
X-12391682Y-3965918D01*
X-12487936Y-4091359D01*
X-12514942Y-4156558D01*
X-12536402Y-4188677D01*
X-13335428Y-4987703D01*
X-13337859Y-4990052D01*
X-13385044Y-5034120D01*
X-13388560Y-5039902D01*
X-13407057Y-5070319D01*
X-13412761Y-5078699D01*
X-13438361Y-5112458D01*
X-13445728Y-5131140D01*
X-13453234Y-5146254D01*
X-13463672Y-5163418D01*
X-13465499Y-5169938D01*
X-13465500Y-5169941D01*
X-13475102Y-5204213D01*
X-13478331Y-5213816D01*
X-13493876Y-5253236D01*
X-13494568Y-5259969D01*
X-13495929Y-5273208D01*
X-13499079Y-5289790D01*
X-13504500Y-5309135D01*
X-13504500Y-5315907D01*
X-13504500Y-5351500D01*
X-13505019Y-5361624D01*
X-13509352Y-5403772D01*
X-13508201Y-5410446D01*
X-13505940Y-5423561D01*
X-13504500Y-5440382D01*
X-13504500Y-5489389D01*
X-13516052Y-5535798D01*
X-13547707Y-5571039D01*
X-13549446Y-5572043D01*
X-13552226Y-5574229D01*
X-13552230Y-5574232D01*
X-13659681Y-5658732D01*
X-13659684Y-5658735D01*
X-13662464Y-5660921D01*
X-13664906Y-5663482D01*
X-13664908Y-5663484D01*
X-13700175Y-5700470D01*
X-13700180Y-5700476D01*
X-13702618Y-5703033D01*
X-13704670Y-5705915D01*
X-13704671Y-5705916D01*
X-13783961Y-5817264D01*
X-13783964Y-5817268D01*
X-13786017Y-5820152D01*
X-13812678Y-5871868D01*
X-13859704Y-6007738D01*
X-13870716Y-6064874D01*
X-13877557Y-6208489D01*
X-13872027Y-6266412D01*
X-13838130Y-6406138D01*
X-13816503Y-6460157D01*
X-13780558Y-6522415D01*
X-13780560Y-6522413D01*
X-13744616Y-6584671D01*
X-13744615Y-6584672D01*
X-13505559Y-6998728D01*
X-13452967Y-7058698D01*
X-13444216Y-7063013D01*
X-13443557Y-7063519D01*
X-13418085Y-7092563D01*
X-13405669Y-7129144D01*
X-13405560Y-7129971D01*
X-13406198Y-7139704D01*
X-13387031Y-7196168D01*
X-13332939Y-7289857D01*
X-13320052Y-7330728D01*
X-13325645Y-7373217D01*
X-13348671Y-7409361D01*
X-13480372Y-7541062D01*
X-13533185Y-7568554D01*
X-13592215Y-7560783D01*
X-13636112Y-7520558D01*
X-13864107Y-7125662D01*
X-13864119Y-7125642D01*
X-13865093Y-7123956D01*
X-13866196Y-7122351D01*
X-13866207Y-7122333D01*
X-13907189Y-7062704D01*
X-13907194Y-7062698D01*
X-13909764Y-7058958D01*
X-13912975Y-7055747D01*
X-13912977Y-7055744D01*
X-14039943Y-6928777D01*
X-14039948Y-6928772D01*
X-14043614Y-6925107D01*
X-14047965Y-6922281D01*
X-14047968Y-6922279D01*
X-14198015Y-6824837D01*
X-14198021Y-6824833D01*
X-14202368Y-6822011D01*
X-14207203Y-6820154D01*
X-14207209Y-6820152D01*
X-14374248Y-6756032D01*
X-14374255Y-6756029D01*
X-14379088Y-6754175D01*
X-14384203Y-6753364D01*
X-14384210Y-6753363D01*
X-14560927Y-6725374D01*
X-14560930Y-6725373D01*
X-14566050Y-6724563D01*
X-14571225Y-6724834D01*
X-14571230Y-6724834D01*
X-14749896Y-6734198D01*
X-14749897Y-6734198D01*
X-14755083Y-6734470D01*
X-14760093Y-6735812D01*
X-14760096Y-6735813D01*
X-14933542Y-6782288D01*
X-14933544Y-6782289D01*
X-14937926Y-6783463D01*
X-14942015Y-6785413D01*
X-14942022Y-6785416D01*
X-15007356Y-6816579D01*
X-15007363Y-6816583D01*
X-15009110Y-6817416D01*
X-15085757Y-6861668D01*
X-17968438Y-8525985D01*
X-18021146Y-8539196D01*
X-18072888Y-8522598D01*
X-18108075Y-8481190D01*
X-18389177Y-7862326D01*
X-18390923Y-7858241D01*
X-18723401Y-7029384D01*
X-18724962Y-7025225D01*
X-19019921Y-6182280D01*
X-19021294Y-6178054D01*
X-19278134Y-5322736D01*
X-19279316Y-5318454D01*
X-19497526Y-4452467D01*
X-19498515Y-4448135D01*
X-19677655Y-3573220D01*
X-19678448Y-3568849D01*
X-19818150Y-2686805D01*
X-19818747Y-2682402D01*
X-19918739Y-1794944D01*
X-19919137Y-1790520D01*
X-19979213Y-899483D01*
X-19979412Y-895044D01*
X-19999450Y-2221D01*
X-19999450Y2221D01*
X-19979412Y895044D01*
X-19979213Y899483D01*
X-19954232Y1270000D01*
X7944417Y1270000D01*
X7964700Y1064066D01*
X7966110Y1059415D01*
X7966112Y1059409D01*
X8023354Y870706D01*
X8024768Y866046D01*
X8027060Y861757D01*
X8027063Y861751D01*
X8120023Y687836D01*
X8120028Y687828D01*
X8122315Y683550D01*
X8125394Y679796D01*
X8125399Y679791D01*
X8250500Y527354D01*
X8250505Y527348D01*
X8253590Y523590D01*
X8257348Y520505D01*
X8257354Y520500D01*
X8409791Y395399D01*
X8409796Y395394D01*
X8413550Y392315D01*
X8417828Y390028D01*
X8417836Y390023D01*
X8591751Y297063D01*
X8591757Y297060D01*
X8596046Y294768D01*
X8600702Y293355D01*
X8600706Y293354D01*
X8789409Y236112D01*
X8789415Y236110D01*
X8794066Y234700D01*
X8798907Y234223D01*
X8798908Y234223D01*
X8995157Y214894D01*
X9000000Y214417D01*
X9205934Y234700D01*
X9210586Y236111D01*
X9210590Y236112D01*
X9399293Y293354D01*
X9399294Y293354D01*
X9403954Y294768D01*
X9417157Y301825D01*
X9582163Y390023D01*
X9582166Y390025D01*
X9586450Y392315D01*
X9642421Y438249D01*
X9742645Y520500D01*
X9746410Y523590D01*
X9877685Y683550D01*
X9975232Y866046D01*
X10035300Y1064066D01*
X10055583Y1270000D01*
X10035300Y1475934D01*
X9975232Y1673954D01*
X9877685Y1856450D01*
X9746410Y2016410D01*
X9586450Y2147685D01*
X9403954Y2245232D01*
X9205934Y2305300D01*
X9000000Y2325583D01*
X8794066Y2305300D01*
X8596046Y2245232D01*
X8413550Y2147685D01*
X8253590Y2016410D01*
X8250500Y2012645D01*
X8192553Y1942036D01*
X8122315Y1856450D01*
X8120025Y1852166D01*
X8120023Y1852163D01*
X8035134Y1693347D01*
X8024768Y1673954D01*
X8023354Y1669294D01*
X8023354Y1669293D01*
X7967863Y1486360D01*
X7964700Y1475934D01*
X7944417Y1270000D01*
X-19954232Y1270000D01*
X-19919137Y1790520D01*
X-19918739Y1794944D01*
X-19818747Y2682402D01*
X-19818150Y2686805D01*
X-19678448Y3568849D01*
X-19677655Y3573220D01*
X-19498515Y4448135D01*
X-19497526Y4452467D01*
X-19279316Y5318454D01*
X-19278134Y5322736D01*
X-19021294Y6178054D01*
X-19019921Y6182280D01*
X-18724962Y7025225D01*
X-18723401Y7029384D01*
X-18390923Y7858241D01*
X-18389177Y7862326D01*
X-18019852Y8675421D01*
X-18017925Y8679424D01*
X-17889960Y8930568D01*
X-17851847Y8971012D01*
X-17797948Y8984550D01*
X-17745247Y8966915D01*
X-17710351Y8923665D01*
X-17704255Y8868429D01*
X-17707694Y8848927D01*
X-17728017Y8500000D01*
X-17727850Y8497133D01*
X-17710425Y8197953D01*
X-17707694Y8151073D01*
X-17647001Y7806864D01*
X-17546758Y7472029D01*
X-17408321Y7151096D01*
X-17233562Y6848404D01*
X-17024844Y6568047D01*
X-16784990Y6313817D01*
X-16517243Y6089151D01*
X-16479874Y6064573D01*
X-16233711Y5902668D01*
X-16225225Y5897087D01*
X-16222648Y5895793D01*
X-16222645Y5895791D01*
X-15915453Y5741513D01*
X-15915443Y5741508D01*
X-15912883Y5740223D01*
X-15910182Y5739240D01*
X-15910180Y5739239D01*
X-15624757Y5635354D01*
X-15584443Y5620681D01*
X-15581642Y5620017D01*
X-15581635Y5620015D01*
X-15261152Y5544060D01*
X-15244346Y5540077D01*
X-15241489Y5539743D01*
X-15241483Y5539742D01*
X-14900052Y5499834D01*
X-14900045Y5499833D01*
X-14897191Y5499500D01*
X-14550557Y5499500D01*
X-14547673Y5499500D01*
X-14544819Y5499833D01*
X-14544811Y5499834D01*
X-14203380Y5539742D01*
X-14203371Y5539743D01*
X-14200518Y5540077D01*
X-14197710Y5540742D01*
X-14197707Y5540743D01*
X-13863228Y5620015D01*
X-13863216Y5620018D01*
X-13860421Y5620681D01*
X-13857724Y5621662D01*
X-13857716Y5621665D01*
X-13534683Y5739239D01*
X-13534674Y5739242D01*
X-13531981Y5740223D01*
X-13529426Y5741505D01*
X-13529410Y5741513D01*
X-13222218Y5895791D01*
X-13222207Y5895796D01*
X-13219639Y5897087D01*
X-13217233Y5898668D01*
X-13217225Y5898674D01*
X-12930022Y6087571D01*
X-12930012Y6087578D01*
X-12927621Y6089151D01*
X-12925430Y6090988D01*
X-12925405Y6091008D01*
X-12905726Y6107520D01*
X-12861402Y6128778D01*
X-12812317Y6126095D01*
X-12770574Y6100132D01*
X-12749847Y6063302D01*
X-12749042Y6063636D01*
X-12688534Y5917557D01*
X-12592280Y5792116D01*
X-12466839Y5695862D01*
X-12460848Y5693380D01*
X-12460844Y5693378D01*
X-12361485Y5652223D01*
X-12322843Y5623564D01*
X-12302273Y5580073D01*
X-12304634Y5532021D01*
X-12329366Y5490758D01*
X-12578959Y5241166D01*
X-12645029Y5175096D01*
X-12677146Y5153636D01*
X-12715032Y5146100D01*
X-13024199Y5146100D01*
X-13027579Y5146158D01*
X-13027643Y5146160D01*
X-13092104Y5148362D01*
X-13101147Y5146158D01*
X-13133259Y5138332D01*
X-13143221Y5136438D01*
X-13185198Y5130670D01*
X-13203623Y5122665D01*
X-13219623Y5117286D01*
X-13239130Y5112533D01*
X-13276066Y5091764D01*
X-13285136Y5087259D01*
X-13323998Y5070380D01*
X-13339573Y5057707D01*
X-13353536Y5048205D01*
X-13371037Y5038366D01*
X-13375828Y5033574D01*
X-13375829Y5033574D01*
X-13401003Y5008399D01*
X-13408509Y5001624D01*
X-13441386Y4974878D01*
X-13452965Y4958472D01*
X-13463835Y4945566D01*
X-14226085Y4183316D01*
X-14228455Y4181027D01*
X-14275658Y4136944D01*
X-14297674Y4100738D01*
X-14303361Y4092381D01*
X-14328975Y4058606D01*
X-14336343Y4039920D01*
X-14343848Y4024809D01*
X-14354286Y4007646D01*
X-14356113Y4001124D01*
X-14365717Y3966846D01*
X-14368942Y3957253D01*
X-14384490Y3917828D01*
X-14386543Y3897856D01*
X-14389696Y3881267D01*
X-14395114Y3861929D01*
X-14395114Y3855159D01*
X-14395114Y3819564D01*
X-14395633Y3809440D01*
X-14399966Y3767292D01*
X-14396554Y3747503D01*
X-14395114Y3730682D01*
X-14395114Y3622901D01*
X-14402650Y3585015D01*
X-14406094Y3576701D01*
X-14429658Y3519812D01*
X-14450296Y3363050D01*
X-14449449Y3356616D01*
X-14447432Y3341295D01*
X-14429658Y3206288D01*
X-14369150Y3060209D01*
X-14272896Y2934768D01*
X-14267742Y2930813D01*
X-14152603Y2842464D01*
X-14147455Y2838514D01*
X-14141461Y2836031D01*
X-14141459Y2836030D01*
X-14007373Y2780490D01*
X-14001376Y2778006D01*
X-13994945Y2777159D01*
X-13994940Y2777158D01*
X-13851048Y2758215D01*
X-13844614Y2757368D01*
X-13838180Y2758215D01*
X-13694287Y2777158D01*
X-13694280Y2777159D01*
X-13687852Y2778006D01*
X-13681857Y2780489D01*
X-13681854Y2780490D01*
X-13584186Y2820946D01*
X-13536596Y2828005D01*
X-13491299Y2811798D01*
X-13458990Y2776150D01*
X-13447300Y2729482D01*
X-13447300Y2447394D01*
X-13432645Y2303279D01*
X-13374774Y2118832D01*
X-13280959Y1949809D01*
X-13277688Y1945999D01*
X-13158308Y1806938D01*
X-13158304Y1806934D01*
X-13155040Y1803132D01*
X-13002173Y1684804D01*
X-12997669Y1682594D01*
X-12997668Y1682594D01*
X-12833118Y1601878D01*
X-12833115Y1601876D01*
X-12828616Y1599670D01*
X-12823769Y1598415D01*
X-12823761Y1598412D01*
X-12646333Y1552473D01*
X-12641474Y1551215D01*
X-12636464Y1550960D01*
X-12636458Y1550960D01*
X-12453426Y1541678D01*
X-12453422Y1541678D01*
X-12448410Y1541424D01*
X-12443452Y1542183D01*
X-12443442Y1542184D01*
X-12262294Y1569935D01*
X-12262285Y1569937D01*
X-12257326Y1570697D01*
X-12252617Y1572440D01*
X-12252613Y1572442D01*
X-12080758Y1636090D01*
X-12080747Y1636094D01*
X-12076047Y1637836D01*
X-12071788Y1640490D01*
X-12071783Y1640493D01*
X-11916254Y1737434D01*
X-11916246Y1737439D01*
X-11911993Y1740091D01*
X-11908361Y1743542D01*
X-11908355Y1743548D01*
X-11775516Y1869821D01*
X-11775512Y1869824D01*
X-11771881Y1873277D01*
X-11769021Y1877385D01*
X-11769015Y1877393D01*
X-11664315Y2027820D01*
X-11664311Y2027827D01*
X-11661447Y2031942D01*
X-11659468Y2036553D01*
X-11659465Y2036559D01*
X-11587190Y2204979D01*
X-11587187Y2204986D01*
X-11585213Y2209588D01*
X-11584205Y2214488D01*
X-11584203Y2214498D01*
X-11547309Y2394032D01*
X-11547308Y2394036D01*
X-11546300Y2398944D01*
X-11546300Y2447394D01*
X-10907300Y2447394D01*
X-10892645Y2303279D01*
X-10834774Y2118832D01*
X-10740959Y1949809D01*
X-10737688Y1945999D01*
X-10618308Y1806938D01*
X-10618304Y1806934D01*
X-10615040Y1803132D01*
X-10462173Y1684804D01*
X-10457669Y1682594D01*
X-10457668Y1682594D01*
X-10293118Y1601878D01*
X-10293115Y1601876D01*
X-10288616Y1599670D01*
X-10283769Y1598415D01*
X-10283761Y1598412D01*
X-10106333Y1552473D01*
X-10101474Y1551215D01*
X-10096464Y1550960D01*
X-10096458Y1550960D01*
X-9913426Y1541678D01*
X-9913422Y1541678D01*
X-9908410Y1541424D01*
X-9903452Y1542183D01*
X-9903442Y1542184D01*
X-9722294Y1569935D01*
X-9722285Y1569937D01*
X-9717326Y1570697D01*
X-9712617Y1572440D01*
X-9712613Y1572442D01*
X-9540758Y1636090D01*
X-9540747Y1636094D01*
X-9536047Y1637836D01*
X-9531788Y1640490D01*
X-9531783Y1640493D01*
X-9376254Y1737434D01*
X-9376246Y1737439D01*
X-9371993Y1740091D01*
X-9368361Y1743542D01*
X-9368355Y1743548D01*
X-9235516Y1869821D01*
X-9235512Y1869824D01*
X-9231881Y1873277D01*
X-9229021Y1877385D01*
X-9229015Y1877393D01*
X-9124315Y2027820D01*
X-9124311Y2027827D01*
X-9121447Y2031942D01*
X-9119468Y2036553D01*
X-9119465Y2036559D01*
X-9047190Y2204979D01*
X-9047187Y2204986D01*
X-9045213Y2209588D01*
X-9044205Y2214488D01*
X-9044203Y2214498D01*
X-9007309Y2394032D01*
X-9007308Y2394036D01*
X-9006300Y2398944D01*
X-9006300Y3343806D01*
X-9013103Y3410706D01*
X-9020446Y3482922D01*
X-9020447Y3482928D01*
X-9020955Y3487921D01*
X-9022457Y3492708D01*
X-9022458Y3492713D01*
X-9077323Y3667578D01*
X-9077323Y3667579D01*
X-9078826Y3672368D01*
X-9081259Y3676752D01*
X-9081262Y3676758D01*
X-9155217Y3810000D01*
X7944417Y3810000D01*
X7944894Y3805157D01*
X7958444Y3667578D01*
X7964700Y3604066D01*
X7966110Y3599415D01*
X7966112Y3599409D01*
X8001448Y3482922D01*
X8024768Y3406046D01*
X8027060Y3401757D01*
X8027063Y3401751D01*
X8120023Y3227836D01*
X8120028Y3227828D01*
X8122315Y3223550D01*
X8125394Y3219796D01*
X8125399Y3219791D01*
X8250500Y3067354D01*
X8250505Y3067348D01*
X8253590Y3063590D01*
X8257348Y3060505D01*
X8257354Y3060500D01*
X8409791Y2935399D01*
X8409796Y2935394D01*
X8413550Y2932315D01*
X8417828Y2930028D01*
X8417836Y2930023D01*
X8591751Y2837063D01*
X8591757Y2837060D01*
X8596046Y2834768D01*
X8600702Y2833355D01*
X8600706Y2833354D01*
X8789409Y2776112D01*
X8789415Y2776110D01*
X8794066Y2774700D01*
X8798907Y2774223D01*
X8798908Y2774223D01*
X8995157Y2754894D01*
X9000000Y2754417D01*
X9205934Y2774700D01*
X9210586Y2776111D01*
X9210590Y2776112D01*
X9399293Y2833354D01*
X9399294Y2833354D01*
X9403954Y2834768D01*
X9408248Y2837063D01*
X9582163Y2930023D01*
X9582166Y2930025D01*
X9586450Y2932315D01*
X9746410Y3063590D01*
X9877685Y3223550D01*
X9975232Y3406046D01*
X10035300Y3604066D01*
X10055583Y3810000D01*
X10035300Y4015934D01*
X9975232Y4213954D01*
X9877685Y4396450D01*
X9746410Y4556410D01*
X9586450Y4687685D01*
X9403954Y4785232D01*
X9205934Y4845300D01*
X9000000Y4865583D01*
X8794066Y4845300D01*
X8596046Y4785232D01*
X8413550Y4687685D01*
X8253590Y4556410D01*
X8250500Y4552645D01*
X8140883Y4419075D01*
X8122315Y4396450D01*
X8120025Y4392166D01*
X8120023Y4392163D01*
X8027335Y4218757D01*
X8024768Y4213954D01*
X8023354Y4209294D01*
X8023354Y4209293D01*
X7967389Y4024798D01*
X7964700Y4015934D01*
X7944417Y3810000D01*
X-9155217Y3810000D01*
X-9170203Y3836999D01*
X-9170204Y3837000D01*
X-9172641Y3841391D01*
X-9232475Y3911089D01*
X-9295291Y3984261D01*
X-9295295Y3984264D01*
X-9298560Y3988068D01*
X-9451427Y4106396D01*
X-9624984Y4191530D01*
X-9629836Y4192786D01*
X-9629838Y4192787D01*
X-9711590Y4213954D01*
X-9812126Y4239985D01*
X-10005190Y4249776D01*
X-10196274Y4220503D01*
X-10377553Y4153364D01*
X-10541607Y4051109D01*
X-10681719Y3917923D01*
X-10792153Y3759258D01*
X-10868387Y3581612D01*
X-10907300Y3392256D01*
X-10907300Y2447394D01*
X-11546300Y2447394D01*
X-11546300Y3343806D01*
X-11553103Y3410706D01*
X-11560446Y3482922D01*
X-11560447Y3482928D01*
X-11560955Y3487921D01*
X-11562457Y3492708D01*
X-11562458Y3492713D01*
X-11617323Y3667578D01*
X-11617323Y3667579D01*
X-11618826Y3672368D01*
X-11621259Y3676752D01*
X-11621262Y3676758D01*
X-11710203Y3836999D01*
X-11710204Y3837000D01*
X-11712641Y3841391D01*
X-11772475Y3911089D01*
X-11835291Y3984261D01*
X-11835295Y3984264D01*
X-11838560Y3988068D01*
X-11991427Y4106396D01*
X-11990892Y4107086D01*
X-12026122Y4147767D01*
X-12032779Y4205867D01*
X-12005486Y4257587D01*
X-6969504Y9293572D01*
X-6918814Y9320666D01*
X-6861614Y9315032D01*
X-6817185Y9278569D01*
X-6800500Y9223568D01*
X-6800500Y6645590D01*
X-6797687Y6586896D01*
X-6752893Y6329657D01*
X-6699058Y6170228D01*
X-6671805Y6089518D01*
X-6669357Y6082270D01*
X-6667613Y6078911D01*
X-6661637Y6067402D01*
X-6549036Y5850534D01*
X-6394751Y5639881D01*
X-6210119Y5455249D01*
X-6207062Y5453010D01*
X-6026282Y5320604D01*
X-5999466Y5300964D01*
X-5996107Y5299220D01*
X-5771088Y5182386D01*
X-5771082Y5182383D01*
X-5767730Y5180643D01*
X-5764151Y5179434D01*
X-5764143Y5179431D01*
X-5523939Y5098321D01*
X-5523935Y5098320D01*
X-5520343Y5097107D01*
X-5516602Y5096455D01*
X-5516600Y5096455D01*
X-5266143Y5052842D01*
X-5266139Y5052841D01*
X-5263104Y5052313D01*
X-5260023Y5052165D01*
X-5260020Y5052165D01*
X-5205594Y5049556D01*
X-5205563Y5049555D01*
X-5204410Y5049500D01*
X-1996765Y5049500D01*
X-1995590Y5049500D01*
X-1994437Y5049555D01*
X-1994405Y5049556D01*
X-1939979Y5052165D01*
X-1939975Y5052165D01*
X-1936896Y5052313D01*
X-1933861Y5052841D01*
X-1933856Y5052842D01*
X-1683399Y5096455D01*
X-1683394Y5096456D01*
X-1679657Y5097107D01*
X-1676067Y5098319D01*
X-1676060Y5098321D01*
X-1435856Y5179431D01*
X-1435843Y5179436D01*
X-1432270Y5180643D01*
X-1428922Y5182381D01*
X-1428911Y5182386D01*
X-1203892Y5299220D01*
X-1203887Y5299222D01*
X-1200534Y5300964D01*
X-1197485Y5303196D01*
X-1197477Y5303202D01*
X-992937Y5453010D01*
X-992931Y5453015D01*
X-989881Y5455249D01*
X-987213Y5457916D01*
X-987206Y5457923D01*
X-807923Y5637206D01*
X-807916Y5637213D01*
X-805249Y5639881D01*
X-803015Y5642931D01*
X-803010Y5642937D01*
X-653202Y5847477D01*
X-653196Y5847485D01*
X-650964Y5850534D01*
X-628378Y5894034D01*
X-532386Y6078911D01*
X-532381Y6078922D01*
X-530643Y6082270D01*
X-529436Y6085843D01*
X-529431Y6085856D01*
X-448321Y6326060D01*
X-448319Y6326067D01*
X-447107Y6329657D01*
X-402313Y6586896D01*
X-402165Y6589979D01*
X-399556Y6644405D01*
X-399555Y6644437D01*
X-399500Y6645590D01*
X-399500Y9854410D01*
X-399555Y9855563D01*
X-399556Y9855594D01*
X-402165Y9910020D01*
X-402165Y9910023D01*
X-402313Y9913104D01*
X-406215Y9935513D01*
X-446455Y10166600D01*
X-446455Y10166602D01*
X-447107Y10170343D01*
X-449918Y10178667D01*
X-529431Y10414143D01*
X-529434Y10414151D01*
X-530643Y10417730D01*
X-532383Y10421082D01*
X-532386Y10421088D01*
X-649220Y10646107D01*
X-650964Y10649466D01*
X-663337Y10666359D01*
X-803010Y10857062D01*
X-805249Y10860119D01*
X-989881Y11044751D01*
X-1200534Y11199036D01*
X-1432270Y11319357D01*
X-1679657Y11402893D01*
X-1936896Y11447687D01*
X-1995590Y11450500D01*
X-2902125Y11450500D01*
X-2951821Y11463877D01*
X-2988087Y11500392D01*
X-3001123Y11550178D01*
X-2987406Y11599781D01*
X-2950643Y11635796D01*
X-2934219Y11645030D01*
X-2925146Y11649537D01*
X-2892490Y11663722D01*
X-2892487Y11663723D01*
X-2886280Y11666420D01*
X-2881032Y11670689D01*
X-2881021Y11670696D01*
X-2870699Y11679094D01*
X-2856752Y11688587D01*
X-2845142Y11695115D01*
X-2845137Y11695118D01*
X-2839241Y11698434D01*
X-2834460Y11703214D01*
X-2834449Y11703223D01*
X-2809276Y11728396D01*
X-2801755Y11735183D01*
X-2774149Y11757643D01*
X-2774141Y11757651D01*
X-2768892Y11761922D01*
X-2764989Y11767450D01*
X-2764986Y11767454D01*
X-2757311Y11778327D01*
X-2746438Y11791235D01*
X-2029677Y12507996D01*
X-1997560Y12529455D01*
X-1938358Y12553978D01*
X-1938351Y12553981D01*
X-1932359Y12556464D01*
X-1927215Y12560411D01*
X-1927210Y12560414D01*
X-1812071Y12648763D01*
X-1812066Y12648767D01*
X-1806918Y12652718D01*
X-1802967Y12657866D01*
X-1802963Y12657871D01*
X-1714614Y12773010D01*
X-1714611Y12773015D01*
X-1710664Y12778159D01*
X-1708182Y12784149D01*
X-1708180Y12784154D01*
X-1652640Y12918240D01*
X-1652639Y12918243D01*
X-1650156Y12924238D01*
X-1649309Y12930666D01*
X-1649308Y12930673D01*
X-1630365Y13074566D01*
X-1629518Y13081000D01*
X-1632108Y13100672D01*
X-1644858Y13197521D01*
X-1639151Y13245866D01*
X-1611090Y13285647D01*
X-1567461Y13307243D01*
X-1518814Y13305433D01*
X-1451427Y13285647D01*
X-1424883Y13277853D01*
X-1421387Y13277350D01*
X-1421381Y13277349D01*
X-1370796Y13270076D01*
X-1370792Y13270075D01*
X-1367289Y13269572D01*
X-750258Y13269572D01*
X-745400Y13269572D01*
X-740642Y13270518D01*
X-740636Y13270519D01*
X-676728Y13283231D01*
X-676725Y13283232D01*
X-667169Y13285133D01*
X-659065Y13290547D01*
X-658285Y13290871D01*
X-620400Y13298407D01*
X-582515Y13290871D01*
X-581735Y13290547D01*
X-573631Y13285133D01*
X-564070Y13283231D01*
X-519911Y13274447D01*
X-519906Y13274446D01*
X-515148Y13273500D01*
X519490Y13273500D01*
X524348Y13273500D01*
X529106Y13274446D01*
X529111Y13274447D01*
X573270Y13283231D01*
X582831Y13285133D01*
X590935Y13290547D01*
X591715Y13290871D01*
X629600Y13298407D01*
X667484Y13290872D01*
X668262Y13290549D01*
X676369Y13285133D01*
X685932Y13283230D01*
X692984Y13280310D01*
X737415Y13243847D01*
X754100Y13188845D01*
X754100Y13120365D01*
X746564Y13082480D01*
X718963Y13015847D01*
X718960Y13015838D01*
X716479Y13009847D01*
X715632Y13003416D01*
X715631Y13003411D01*
X700989Y12892191D01*
X695841Y12853085D01*
X696688Y12846651D01*
X715631Y12702758D01*
X715632Y12702751D01*
X716479Y12696323D01*
X718962Y12690328D01*
X718963Y12690325D01*
X774503Y12556239D01*
X774505Y12556234D01*
X776987Y12550244D01*
X780935Y12545099D01*
X809403Y12507999D01*
X829718Y12453030D01*
X815394Y12396205D01*
X780321Y12365263D01*
X781768Y12362871D01*
X776642Y12359772D01*
X771181Y12357315D01*
X766469Y12353623D01*
X766465Y12353621D01*
X723243Y12319758D01*
X718451Y12316231D01*
X668309Y12281621D01*
X664337Y12277138D01*
X664335Y12277136D01*
X627934Y12236047D01*
X623835Y12231692D01*
X414510Y12022367D01*
X412665Y12020012D01*
X339615Y11926772D01*
X339611Y11926766D01*
X335922Y11922057D01*
X333465Y11916599D01*
X333463Y11916595D01*
X268563Y11772394D01*
X266105Y11766932D01*
X265025Y11761038D01*
X236638Y11606130D01*
X235442Y11599606D01*
X235803Y11593633D01*
X235803Y11593628D01*
X244623Y11447834D01*
X245714Y11429804D01*
X247492Y11424096D01*
X247494Y11424088D01*
X294539Y11273112D01*
X294543Y11273103D01*
X296322Y11267394D01*
X299418Y11262272D01*
X299421Y11262266D01*
X372865Y11140777D01*
X384328Y11121815D01*
X388556Y11117586D01*
X388560Y11117582D01*
X500382Y11005760D01*
X500386Y11005756D01*
X504615Y11001528D01*
X509736Y10998431D01*
X509739Y10998430D01*
X645066Y10916621D01*
X645072Y10916618D01*
X650194Y10913522D01*
X655903Y10911743D01*
X655912Y10911739D01*
X806888Y10864694D01*
X806896Y10864692D01*
X812604Y10862914D01*
X818579Y10862552D01*
X818582Y10862552D01*
X976428Y10853003D01*
X976433Y10853003D01*
X982406Y10852642D01*
X988293Y10853720D01*
X988296Y10853721D01*
X1111807Y10876355D01*
X1149732Y10883305D01*
X1155191Y10885762D01*
X1155194Y10885763D01*
X1299395Y10950663D01*
X1299399Y10950665D01*
X1304857Y10953122D01*
X1309566Y10956811D01*
X1309572Y10956815D01*
X1405167Y11031710D01*
X1405710Y11031016D01*
X1431234Y11046482D01*
X1466401Y11052938D01*
X1732650Y11052938D01*
X1738628Y11052757D01*
X1793429Y11049441D01*
X1793436Y11049441D01*
X1799411Y11049080D01*
X1805297Y11050158D01*
X1805304Y11050159D01*
X1859334Y11060060D01*
X1865242Y11060959D01*
X1919732Y11067576D01*
X1925677Y11068298D01*
X1931272Y11070419D01*
X1931277Y11070421D01*
X1937269Y11072694D01*
X1954526Y11077505D01*
X1960843Y11078662D01*
X1960849Y11078663D01*
X1966737Y11079743D01*
X1972197Y11082200D01*
X1972202Y11082202D01*
X2022279Y11104740D01*
X2027795Y11107025D01*
X2084735Y11128620D01*
X2089659Y11132018D01*
X2089663Y11132021D01*
X2094944Y11135667D01*
X2110549Y11144468D01*
X2116399Y11147101D01*
X2116400Y11147102D01*
X2121862Y11149560D01*
X2126576Y11153253D01*
X2169797Y11187114D01*
X2174611Y11190656D01*
X2219802Y11221850D01*
X2219805Y11221852D01*
X2224734Y11225255D01*
X2236769Y11238839D01*
X2265107Y11270827D01*
X2269206Y11275182D01*
X2879424Y11885400D01*
X2883779Y11889499D01*
X2914521Y11916734D01*
X10358700Y11916734D01*
X10358914Y11914444D01*
X10358915Y11914438D01*
X10360991Y11892297D01*
X10360992Y11892291D01*
X10361554Y11886301D01*
X10363542Y11880617D01*
X10363544Y11880612D01*
X10403956Y11765120D01*
X10403958Y11765116D01*
X10406407Y11758118D01*
X10410809Y11752152D01*
X10410812Y11752148D01*
X10482641Y11654823D01*
X10482643Y11654820D01*
X10487050Y11648850D01*
X10493020Y11644443D01*
X10493023Y11644441D01*
X10590348Y11572612D01*
X10590352Y11572609D01*
X10596318Y11568207D01*
X10603314Y11565758D01*
X10603320Y11565756D01*
X10718812Y11525344D01*
X10718817Y11525342D01*
X10724501Y11523354D01*
X10730491Y11522792D01*
X10730497Y11522791D01*
X10752638Y11520715D01*
X10752644Y11520714D01*
X10754934Y11520500D01*
X11361155Y11520500D01*
X11363466Y11520500D01*
X11365756Y11520714D01*
X11365761Y11520715D01*
X11387902Y11522791D01*
X11387906Y11522792D01*
X11393899Y11523354D01*
X11399584Y11525343D01*
X11399587Y11525344D01*
X11515079Y11565756D01*
X11515082Y11565757D01*
X11522082Y11568207D01*
X11549495Y11588438D01*
X11625376Y11644441D01*
X11631350Y11648850D01*
X11711993Y11758118D01*
X11740111Y11838476D01*
X11770391Y11882009D01*
X11818798Y11903670D01*
X11871439Y11897240D01*
X11953037Y11863440D01*
X11953048Y11863436D01*
X11959038Y11860956D01*
X11965466Y11860109D01*
X11965473Y11860108D01*
X12109366Y11841165D01*
X12115800Y11840318D01*
X12122234Y11841165D01*
X12266126Y11860108D01*
X12266131Y11860109D01*
X12272562Y11860956D01*
X12320016Y11880612D01*
X12412645Y11918980D01*
X12412647Y11918981D01*
X12418641Y11921464D01*
X12429601Y11929874D01*
X12538928Y12013763D01*
X12544082Y12017718D01*
X12640336Y12143159D01*
X12700844Y12289238D01*
X12721482Y12446000D01*
X12720556Y12453030D01*
X12707623Y12551267D01*
X12700844Y12602762D01*
X12640336Y12748841D01*
X12544082Y12874282D01*
X12418641Y12970536D01*
X12272562Y13031044D01*
X12115800Y13051682D01*
X11959038Y13031044D01*
X11871437Y12994758D01*
X11818799Y12988329D01*
X11770392Y13009990D01*
X11740111Y13053523D01*
X11711993Y13133882D01*
X11631350Y13243150D01*
X11522082Y13323793D01*
X11393899Y13368646D01*
X11363466Y13371500D01*
X10754934Y13371500D01*
X10724501Y13368646D01*
X10596318Y13323793D01*
X10590348Y13319387D01*
X10586278Y13316383D01*
X10487050Y13243150D01*
X10406407Y13133882D01*
X10403957Y13126882D01*
X10403956Y13126879D01*
X10363544Y13011387D01*
X10361554Y13005699D01*
X10360992Y12999706D01*
X10360991Y12999702D01*
X10360256Y12991860D01*
X10358700Y12975266D01*
X10358700Y11916734D01*
X2914521Y11916734D01*
X2924873Y11925905D01*
X2929353Y11929874D01*
X2937970Y11942358D01*
X2949441Y11956124D01*
X3297646Y12304329D01*
X3302001Y12308428D01*
X3343100Y12344838D01*
X3343101Y12344839D01*
X3347583Y12348810D01*
X3367908Y12378256D01*
X3382181Y12398933D01*
X3385725Y12403749D01*
X3419581Y12446964D01*
X3423278Y12451683D01*
X3428368Y12462993D01*
X3437165Y12478592D01*
X3444218Y12488809D01*
X3465810Y12545745D01*
X3468098Y12551267D01*
X3490637Y12601344D01*
X3490639Y12601352D01*
X3493095Y12606808D01*
X3495332Y12619015D01*
X3500142Y12636271D01*
X3504540Y12647867D01*
X3511879Y12708314D01*
X3512778Y12714220D01*
X3518024Y12742845D01*
X3523758Y12774133D01*
X3521833Y12805938D01*
X3529245Y12846374D01*
X3528494Y12846609D01*
X3530277Y12852331D01*
X3532733Y12857788D01*
X3534970Y12869995D01*
X3539780Y12887251D01*
X3544178Y12898847D01*
X3551517Y12959294D01*
X3552416Y12965200D01*
X3553394Y12970536D01*
X3563396Y13025113D01*
X3559719Y13085896D01*
X3559538Y13091874D01*
X3559538Y13854701D01*
X3559719Y13860679D01*
X3560801Y13878572D01*
X3563396Y13921462D01*
X3552415Y13981380D01*
X3551516Y13987289D01*
X3549597Y14003093D01*
X3544178Y14047728D01*
X3539783Y14059317D01*
X3534969Y14076584D01*
X3533813Y14082892D01*
X3532733Y14088787D01*
X3507715Y14144372D01*
X3505466Y14149800D01*
X3483856Y14206786D01*
X3476812Y14216990D01*
X3468002Y14232611D01*
X3465374Y14238450D01*
X3462916Y14243913D01*
X3425341Y14291872D01*
X3421835Y14296636D01*
X3387221Y14346785D01*
X3341628Y14387175D01*
X3337307Y14391242D01*
X3233614Y14494937D01*
X3133304Y14573525D01*
X2978179Y14643342D01*
X2810853Y14674005D01*
X2641051Y14663733D01*
X2635336Y14661952D01*
X2635335Y14661952D01*
X2484359Y14614907D01*
X2484357Y14614906D01*
X2478641Y14613125D01*
X2333062Y14525119D01*
X2212775Y14404832D01*
X2209677Y14399707D01*
X2193954Y14373699D01*
X2154852Y14337053D01*
X2102382Y14326153D01*
X2051920Y14344192D01*
X2018251Y14385885D01*
X2011391Y14437876D01*
X2011333Y14437881D01*
X2011353Y14438163D01*
X2011241Y14439011D01*
X2012089Y14444907D01*
X2012089Y14503093D01*
X1991627Y14645408D01*
X1975234Y14701238D01*
X1915506Y14832023D01*
X1884049Y14880971D01*
X1789895Y14989632D01*
X1745920Y15027737D01*
X1624966Y15105469D01*
X1572038Y15129640D01*
X1434083Y15170147D01*
X1376489Y15178428D01*
X754600Y15178428D01*
X676369Y15162867D01*
X668260Y15157449D01*
X667488Y15157129D01*
X629600Y15149592D01*
X591712Y15157129D01*
X590939Y15157449D01*
X582831Y15162867D01*
X546232Y15170147D01*
X530186Y15173339D01*
X489232Y15191895D01*
X460710Y15226651D01*
X450500Y15270437D01*
X450500Y15470501D01*
X463763Y15520001D01*
X500000Y15556238D01*
X549500Y15569501D01*
X761070Y15569501D01*
X763020Y15569501D01*
X764941Y15569652D01*
X764962Y15569653D01*
X837124Y15575332D01*
X837126Y15575332D01*
X841645Y15575688D01*
X846023Y15576861D01*
X1019484Y15623339D01*
X1019485Y15623339D01*
X1024488Y15624680D01*
X1029099Y15627029D01*
X1029103Y15627031D01*
X1188529Y15708263D01*
X1193149Y15710617D01*
X1340257Y15829743D01*
X1459383Y15976851D01*
X1545320Y16145512D01*
X1594312Y16328355D01*
X1600500Y16406979D01*
X1600499Y19826049D01*
X1614895Y19877460D01*
X1653896Y19913920D01*
X1706159Y19924825D01*
X1790519Y19919137D01*
G37*
%TD.AperFunction*%
%TA.AperFunction,Conductor*%
G36*
X14570221Y4905907D02*
G01*
X16108726Y3367402D01*
X16117449Y3357423D01*
X16121045Y3352705D01*
X16121058Y3352689D01*
X16123350Y3349684D01*
X16126073Y3347062D01*
X16126077Y3347059D01*
X16204972Y3271130D01*
X16206323Y3269805D01*
X16238921Y3237208D01*
X16238934Y3237195D01*
X16240252Y3235878D01*
X16241670Y3234661D01*
X16241682Y3234651D01*
X16250481Y3227106D01*
X16254681Y3223289D01*
X16308748Y3171256D01*
X16308755Y3171249D01*
X16311486Y3168622D01*
X16314587Y3166440D01*
X16314594Y3166435D01*
X16347731Y3143126D01*
X16355209Y3137312D01*
X16385967Y3110941D01*
X16385972Y3110937D01*
X16388851Y3108469D01*
X16392074Y3106468D01*
X16392080Y3106464D01*
X16421312Y3088319D01*
X16455616Y3052332D01*
X16468100Y3004207D01*
X16468100Y930779D01*
X16460564Y892893D01*
X16439104Y860775D01*
X16214846Y636517D01*
X16179714Y613866D01*
X16138366Y607733D01*
X16098174Y619211D01*
X16022554Y659632D01*
X15824534Y719700D01*
X15670208Y734900D01*
X15266992Y734900D01*
X15112666Y719700D01*
X14914646Y659632D01*
X14814794Y606259D01*
X14762461Y594732D01*
X14711786Y612165D01*
X14677620Y653451D01*
X14669974Y706492D01*
X14673683Y734660D01*
X14677282Y762000D01*
X14656644Y918762D01*
X14596136Y1064841D01*
X14499882Y1190282D01*
X14374441Y1286536D01*
X14284641Y1323732D01*
X14246000Y1352390D01*
X14225430Y1395881D01*
X14227791Y1443933D01*
X14252524Y1485199D01*
X14300028Y1532703D01*
X14302459Y1535052D01*
X14322940Y1554180D01*
X14349644Y1579120D01*
X14371657Y1615319D01*
X14377361Y1623699D01*
X14390096Y1640493D01*
X14402961Y1657458D01*
X14410328Y1676141D01*
X14417834Y1691254D01*
X14428272Y1708418D01*
X14433785Y1728092D01*
X14439702Y1749213D01*
X14442934Y1758825D01*
X14458476Y1798236D01*
X14460529Y1818210D01*
X14463681Y1834796D01*
X14469100Y1854135D01*
X14469100Y1896500D01*
X14469619Y1906624D01*
X14469879Y1909154D01*
X14473952Y1948772D01*
X14470539Y1968561D01*
X14469100Y1985382D01*
X14469100Y4533560D01*
X14469158Y4536940D01*
X14469590Y4549577D01*
X14471363Y4601482D01*
X14461327Y4642658D01*
X14459437Y4652607D01*
X14454592Y4687864D01*
X14453670Y4694576D01*
X14445667Y4712998D01*
X14440287Y4728995D01*
X14435533Y4748508D01*
X14414764Y4785445D01*
X14410272Y4794487D01*
X14409426Y4796433D01*
X14402230Y4850028D01*
X14424270Y4899409D01*
X14468970Y4929843D01*
X14522993Y4932247D01*
X14570221Y4905907D01*
G37*
%TD.AperFunction*%
%TD*%
M02*
