%TF.GenerationSoftware,KiCad,Pcbnew,(7.0.0)*%
%TF.CreationDate,2023-06-29T15:53:59-07:00*%
%TF.ProjectId,GlowPrism Corner PCB,476c6f77-5072-4697-936d-20436f726e65,rev?*%
%TF.SameCoordinates,Original*%
%TF.FileFunction,Legend,Bot*%
%TF.FilePolarity,Positive*%
%FSLAX46Y46*%
G04 Gerber Fmt 4.6, Leading zero omitted, Abs format (unit mm)*
G04 Created by KiCad (PCBNEW (7.0.0)) date 2023-06-29 15:53:59*
%MOMM*%
%LPD*%
G01*
G04 APERTURE LIST*
%ADD10C,0.150000*%
%ADD11C,0.100000*%
%ADD12C,0.120000*%
G04 APERTURE END LIST*
D10*
X-2625695Y13603419D02*
X-2625695Y14603419D01*
X-2625695Y14603419D02*
X-2863790Y14603419D01*
X-2863790Y14603419D02*
X-3006647Y14555800D01*
X-3006647Y14555800D02*
X-3101885Y14460561D01*
X-3101885Y14460561D02*
X-3149504Y14365323D01*
X-3149504Y14365323D02*
X-3197123Y14174847D01*
X-3197123Y14174847D02*
X-3197123Y14031990D01*
X-3197123Y14031990D02*
X-3149504Y13841514D01*
X-3149504Y13841514D02*
X-3101885Y13746276D01*
X-3101885Y13746276D02*
X-3006647Y13651038D01*
X-3006647Y13651038D02*
X-2863790Y13603419D01*
X-2863790Y13603419D02*
X-2625695Y13603419D01*
X10823628Y-9974190D02*
X10823628Y-10450380D01*
X11156961Y-9450380D02*
X10823628Y-9974190D01*
X10823628Y-9974190D02*
X10490295Y-9450380D01*
X3356028Y14257409D02*
X3356028Y13781219D01*
X3689361Y14781219D02*
X3356028Y14257409D01*
X3356028Y14257409D02*
X3022695Y14781219D01*
X14011304Y-5090980D02*
X14011304Y-4090980D01*
X14011304Y-4090980D02*
X13773209Y-4090980D01*
X13773209Y-4090980D02*
X13630352Y-4138600D01*
X13630352Y-4138600D02*
X13535114Y-4233838D01*
X13535114Y-4233838D02*
X13487495Y-4329076D01*
X13487495Y-4329076D02*
X13439876Y-4519552D01*
X13439876Y-4519552D02*
X13439876Y-4662409D01*
X13439876Y-4662409D02*
X13487495Y-4852885D01*
X13487495Y-4852885D02*
X13535114Y-4948123D01*
X13535114Y-4948123D02*
X13630352Y-5043361D01*
X13630352Y-5043361D02*
X13773209Y-5090980D01*
X13773209Y-5090980D02*
X14011304Y-5090980D01*
X-10525095Y-10323380D02*
X-10525095Y-9323380D01*
X-10525095Y-9323380D02*
X-10763190Y-9323380D01*
X-10763190Y-9323380D02*
X-10906047Y-9371000D01*
X-10906047Y-9371000D02*
X-11001285Y-9466238D01*
X-11001285Y-9466238D02*
X-11048904Y-9561476D01*
X-11048904Y-9561476D02*
X-11096523Y-9751952D01*
X-11096523Y-9751952D02*
X-11096523Y-9894809D01*
X-11096523Y-9894809D02*
X-11048904Y-10085285D01*
X-11048904Y-10085285D02*
X-11001285Y-10180523D01*
X-11001285Y-10180523D02*
X-10906047Y-10275761D01*
X-10906047Y-10275761D02*
X-10763190Y-10323380D01*
X-10763190Y-10323380D02*
X-10525095Y-10323380D01*
X-13772571Y-4693638D02*
X-13772571Y-5169828D01*
X-13439238Y-4169828D02*
X-13772571Y-4693638D01*
X-13772571Y-4693638D02*
X-14105904Y-4169828D01*
%TO.C,R3*%
X-1880533Y-12105780D02*
X-1547200Y-11629590D01*
X-1309105Y-12105780D02*
X-1309105Y-11105780D01*
X-1309105Y-11105780D02*
X-1690057Y-11105780D01*
X-1690057Y-11105780D02*
X-1785295Y-11153400D01*
X-1785295Y-11153400D02*
X-1832914Y-11201019D01*
X-1832914Y-11201019D02*
X-1880533Y-11296257D01*
X-1880533Y-11296257D02*
X-1880533Y-11439114D01*
X-1880533Y-11439114D02*
X-1832914Y-11534352D01*
X-1832914Y-11534352D02*
X-1785295Y-11581971D01*
X-1785295Y-11581971D02*
X-1690057Y-11629590D01*
X-1690057Y-11629590D02*
X-1309105Y-11629590D01*
X-2213867Y-11105780D02*
X-2832914Y-11105780D01*
X-2832914Y-11105780D02*
X-2499581Y-11486733D01*
X-2499581Y-11486733D02*
X-2642438Y-11486733D01*
X-2642438Y-11486733D02*
X-2737676Y-11534352D01*
X-2737676Y-11534352D02*
X-2785295Y-11581971D01*
X-2785295Y-11581971D02*
X-2832914Y-11677209D01*
X-2832914Y-11677209D02*
X-2832914Y-11915304D01*
X-2832914Y-11915304D02*
X-2785295Y-12010542D01*
X-2785295Y-12010542D02*
X-2737676Y-12058161D01*
X-2737676Y-12058161D02*
X-2642438Y-12105780D01*
X-2642438Y-12105780D02*
X-2356724Y-12105780D01*
X-2356724Y-12105780D02*
X-2261486Y-12058161D01*
X-2261486Y-12058161D02*
X-2213867Y-12010542D01*
%TO.C,D4*%
X-1268505Y-6793580D02*
X-1268505Y-5793580D01*
X-1268505Y-5793580D02*
X-1506600Y-5793580D01*
X-1506600Y-5793580D02*
X-1649457Y-5841200D01*
X-1649457Y-5841200D02*
X-1744695Y-5936438D01*
X-1744695Y-5936438D02*
X-1792314Y-6031676D01*
X-1792314Y-6031676D02*
X-1839933Y-6222152D01*
X-1839933Y-6222152D02*
X-1839933Y-6365009D01*
X-1839933Y-6365009D02*
X-1792314Y-6555485D01*
X-1792314Y-6555485D02*
X-1744695Y-6650723D01*
X-1744695Y-6650723D02*
X-1649457Y-6745961D01*
X-1649457Y-6745961D02*
X-1506600Y-6793580D01*
X-1506600Y-6793580D02*
X-1268505Y-6793580D01*
X-2697076Y-6126914D02*
X-2697076Y-6793580D01*
X-2458981Y-5745961D02*
X-2220886Y-6460247D01*
X-2220886Y-6460247D02*
X-2839933Y-6460247D01*
%TO.C,D5*%
X2738094Y-6717380D02*
X2738094Y-5717380D01*
X2738094Y-5717380D02*
X2499999Y-5717380D01*
X2499999Y-5717380D02*
X2357142Y-5765000D01*
X2357142Y-5765000D02*
X2261904Y-5860238D01*
X2261904Y-5860238D02*
X2214285Y-5955476D01*
X2214285Y-5955476D02*
X2166666Y-6145952D01*
X2166666Y-6145952D02*
X2166666Y-6288809D01*
X2166666Y-6288809D02*
X2214285Y-6479285D01*
X2214285Y-6479285D02*
X2261904Y-6574523D01*
X2261904Y-6574523D02*
X2357142Y-6669761D01*
X2357142Y-6669761D02*
X2499999Y-6717380D01*
X2499999Y-6717380D02*
X2738094Y-6717380D01*
X1261904Y-5717380D02*
X1738094Y-5717380D01*
X1738094Y-5717380D02*
X1785713Y-6193571D01*
X1785713Y-6193571D02*
X1738094Y-6145952D01*
X1738094Y-6145952D02*
X1642856Y-6098333D01*
X1642856Y-6098333D02*
X1404761Y-6098333D01*
X1404761Y-6098333D02*
X1309523Y-6145952D01*
X1309523Y-6145952D02*
X1261904Y-6193571D01*
X1261904Y-6193571D02*
X1214285Y-6288809D01*
X1214285Y-6288809D02*
X1214285Y-6526904D01*
X1214285Y-6526904D02*
X1261904Y-6622142D01*
X1261904Y-6622142D02*
X1309523Y-6669761D01*
X1309523Y-6669761D02*
X1404761Y-6717380D01*
X1404761Y-6717380D02*
X1642856Y-6717380D01*
X1642856Y-6717380D02*
X1738094Y-6669761D01*
X1738094Y-6669761D02*
X1785713Y-6622142D01*
%TO.C,R4*%
X2173266Y-12102180D02*
X2506599Y-11625990D01*
X2744694Y-12102180D02*
X2744694Y-11102180D01*
X2744694Y-11102180D02*
X2363742Y-11102180D01*
X2363742Y-11102180D02*
X2268504Y-11149800D01*
X2268504Y-11149800D02*
X2220885Y-11197419D01*
X2220885Y-11197419D02*
X2173266Y-11292657D01*
X2173266Y-11292657D02*
X2173266Y-11435514D01*
X2173266Y-11435514D02*
X2220885Y-11530752D01*
X2220885Y-11530752D02*
X2268504Y-11578371D01*
X2268504Y-11578371D02*
X2363742Y-11625990D01*
X2363742Y-11625990D02*
X2744694Y-11625990D01*
X1316123Y-11435514D02*
X1316123Y-12102180D01*
X1554218Y-11054561D02*
X1792313Y-11768847D01*
X1792313Y-11768847D02*
X1173266Y-11768847D01*
D11*
%TO.C,J3*%
X17333094Y-3402700D02*
G75*
G03*
X17333094Y-3402700I-360555J0D01*
G01*
D12*
%TO.C,R3*%
X-2308452Y-9323400D02*
X-1785948Y-9323400D01*
X-2308452Y-10793400D02*
X-1785948Y-10793400D01*
%TO.C,J7*%
X-5000000Y12400000D02*
X7850000Y12400000D01*
X7850000Y12400000D02*
X7850000Y4100000D01*
X7850000Y4100000D02*
X-5000000Y4100000D01*
X-7850000Y9800000D02*
X-5000000Y12400000D01*
X-7850000Y6650000D02*
X-7850000Y9800000D01*
X-5000000Y4100000D02*
X-7850000Y6650000D01*
%TO.C,JP5*%
X-13885025Y-6450364D02*
X-12485025Y-8875236D01*
X-13084192Y-5237448D02*
X-13603808Y-5537448D01*
X-10752975Y-7875236D02*
X-12152975Y-5450364D01*
X-12758230Y-8802030D02*
X-13168038Y-8692223D01*
X-11553808Y-9088152D02*
X-11034192Y-8788152D01*
X-12758230Y-8802030D02*
X-12868038Y-9211838D01*
X-12868038Y-9211838D02*
X-13168038Y-8692223D01*
X-12127974Y-5493666D02*
G75*
G03*
X-13084192Y-5237448I-606218J-350000D01*
G01*
X-11034192Y-8788151D02*
G75*
G03*
X-10777976Y-7831934I-349999J606216D01*
G01*
X-12510025Y-8831934D02*
G75*
G03*
X-11553808Y-9088152I606217J349998D01*
G01*
X-13603807Y-5537449D02*
G75*
G03*
X-13860025Y-6493666I349999J-606217D01*
G01*
%TO.C,D4*%
X-3685000Y-7040000D02*
X-1000000Y-7040000D01*
X-3685000Y-8960000D02*
X-3685000Y-7040000D01*
X-1000000Y-8960000D02*
X-3685000Y-8960000D01*
%TO.C,JP7*%
X12510425Y-8849836D02*
X13910425Y-6424964D01*
X11059592Y-8762752D02*
X11579208Y-9062752D01*
X12178375Y-5424964D02*
X10778375Y-7849836D01*
X13983630Y-6698170D02*
X14093438Y-7107977D01*
X13629208Y-5512048D02*
X13109592Y-5212048D01*
X13983630Y-6698170D02*
X14393438Y-6588362D01*
X14393438Y-6588362D02*
X14093438Y-7107977D01*
X10803374Y-7806534D02*
G75*
G03*
X11059592Y-8762752I606218J-350000D01*
G01*
X13109592Y-5212048D02*
G75*
G03*
X12153375Y-5468266I-350000J-606216D01*
G01*
X13885424Y-6468266D02*
G75*
G03*
X13629208Y-5512049I-606215J350001D01*
G01*
X11579209Y-9062751D02*
G75*
G03*
X12535425Y-8806534I349999J606217D01*
G01*
%TO.C,D5*%
X3685000Y-8960000D02*
X1000000Y-8960000D01*
X3685000Y-7040000D02*
X3685000Y-8960000D01*
X1000000Y-7040000D02*
X3685000Y-7040000D01*
%TO.C,R4*%
X2267852Y-10793400D02*
X1745348Y-10793400D01*
X2267852Y-9323400D02*
X1745348Y-9323400D01*
D11*
%TO.C,J2*%
X-5178890Y16400000D02*
G75*
G03*
X-5178890Y16400000I-360555J0D01*
G01*
D12*
%TO.C,JP6*%
X1404600Y15224000D02*
X-1395400Y15224000D01*
X2054600Y13924000D02*
X2054600Y14524000D01*
X-1395400Y13224000D02*
X1404600Y13224000D01*
X-1195400Y15424000D02*
X-895400Y15724000D01*
X-2045400Y14524000D02*
X-2045400Y13924000D01*
X-1195400Y15424000D02*
X-1495400Y15724000D01*
X-1495400Y15724000D02*
X-895400Y15724000D01*
X1354600Y13224000D02*
G75*
G03*
X2054600Y13924000I0J700000D01*
G01*
X-2045400Y13924000D02*
G75*
G03*
X-1345400Y13224000I699999J-1D01*
G01*
X-1345400Y15224000D02*
G75*
G03*
X-2045400Y14524000I-1J-699999D01*
G01*
X2054600Y14524000D02*
G75*
G03*
X1354600Y15224000I-700000J0D01*
G01*
D11*
%TO.C,J1*%
X-11072539Y-12997300D02*
G75*
G03*
X-11072539Y-12997300I-360555J0D01*
G01*
%TD*%
M02*
