M48
; DRILL file {KiCad (7.0.0)} date Thu Jun 29 15:53:56 2023
; FORMAT={-:-/ absolute / inch / decimal}
; #@! TF.CreationDate,2023-06-29T15:53:56-07:00
; #@! TF.GenerationSoftware,Kicad,Pcbnew,(7.0.0)
; #@! TF.FileFunction,Plated,1,2,PTH
FMAT,2
INCH
; #@! TA.AperFunction,Plated,PTH,ViaDrill
T1C0.0157
; #@! TA.AperFunction,Plated,PTH,ComponentDrill
T2C0.0394
; #@! TA.AperFunction,Plated,PTH,ComponentDrill
T3C0.1260
; #@! TA.AperFunction,Plated,PTH,ComponentDrill
T4C0.1772
%
G90
G05
T1
X-0.711Y-0.226
X-0.69Y-0.264
X-0.668Y-0.226
X-0.645Y-0.188
X-0.624Y-0.226
X-0.576Y-0.469
X-0.555Y-0.507
X-0.5451Y0.1324
X-0.53Y-0.465
X-0.5072Y-0.4267
X-0.4862Y-0.4647
X-0.4789Y0.2449
X-0.471Y-0.173
X-0.457Y-0.385
X-0.3968Y-0.2923
X-0.209Y-0.445
X-0.209Y-0.495
X-0.209Y-0.54
X-0.1626Y0.659
X-0.162Y0.74
X-0.136Y0.698
X-0.119Y-0.45
X-0.1106Y0.659
X-0.11Y0.74
X-0.088Y0.515
X-0.0007Y-0.4228
X0.037Y0.455
X0.0512Y0.506
X0.111Y0.552
X0.113Y0.659
X0.114Y0.742
X0.1161Y-0.5989
X0.13Y-0.56
X0.14Y-0.519
X0.141Y0.701
X0.1417Y-0.257
X0.165Y0.659
X0.166Y0.742
X0.3085Y-0.3187
X0.3396Y0.3596
X0.3412Y-0.3422
X0.377Y0.397
X0.4249Y-0.3643
X0.4508Y0.092
X0.474Y-0.011
X0.475Y0.035
X0.477Y0.49
X0.4892Y-0.4657
X0.5112Y-0.4237
X0.541Y-0.466
X0.554Y0.03
X0.562Y-0.507
X0.5639Y-0.2505
X0.584Y-0.465
X0.627Y-0.227
X0.649Y-0.185
X0.676Y-0.227
X0.703Y-0.27
X0.725Y-0.228
T2
X-0.492Y0.114
X-0.392Y0.114
X-0.292Y0.114
X0.3543Y0.15
X0.3543Y0.05
X0.3543Y-0.05
X0.3543Y-0.15
X0.609Y0.086
X0.609Y-0.0124
T3
X-0.5796Y0.3346
X0.0Y-0.6693
X0.5796Y0.3346
T4
X-0.1417Y0.3248
X0.1417Y0.3248
T0
M30
