%TF.GenerationSoftware,KiCad,Pcbnew,(7.0.0)*%
%TF.CreationDate,2023-06-29T20:54:47-07:00*%
%TF.ProjectId,glowprism_pipe_pcb,676c6f77-7072-4697-936d-5f706970655f,rev?*%
%TF.SameCoordinates,Original*%
%TF.FileFunction,Legend,Top*%
%TF.FilePolarity,Positive*%
%FSLAX46Y46*%
G04 Gerber Fmt 4.6, Leading zero omitted, Abs format (unit mm)*
G04 Created by KiCad (PCBNEW (7.0.0)) date 2023-06-29 20:54:47*
%MOMM*%
%LPD*%
G01*
G04 APERTURE LIST*
%ADD10C,0.150000*%
%ADD11C,0.120000*%
%ADD12C,0.100000*%
G04 APERTURE END LIST*
D10*
X6194371Y5504619D02*
X6384847Y5504619D01*
X6384847Y5504619D02*
X6480085Y5457000D01*
X6480085Y5457000D02*
X6575323Y5361761D01*
X6575323Y5361761D02*
X6622942Y5171285D01*
X6622942Y5171285D02*
X6622942Y4837952D01*
X6622942Y4837952D02*
X6575323Y4647476D01*
X6575323Y4647476D02*
X6480085Y4552238D01*
X6480085Y4552238D02*
X6384847Y4504619D01*
X6384847Y4504619D02*
X6194371Y4504619D01*
X6194371Y4504619D02*
X6099133Y4552238D01*
X6099133Y4552238D02*
X6003895Y4647476D01*
X6003895Y4647476D02*
X5956276Y4837952D01*
X5956276Y4837952D02*
X5956276Y5171285D01*
X5956276Y5171285D02*
X6003895Y5361761D01*
X6003895Y5361761D02*
X6099133Y5457000D01*
X6099133Y5457000D02*
X6194371Y5504619D01*
X7051514Y5504619D02*
X7051514Y4695095D01*
X7051514Y4695095D02*
X7099133Y4599857D01*
X7099133Y4599857D02*
X7146752Y4552238D01*
X7146752Y4552238D02*
X7241990Y4504619D01*
X7241990Y4504619D02*
X7432466Y4504619D01*
X7432466Y4504619D02*
X7527704Y4552238D01*
X7527704Y4552238D02*
X7575323Y4599857D01*
X7575323Y4599857D02*
X7622942Y4695095D01*
X7622942Y4695095D02*
X7622942Y5504619D01*
X7956276Y5504619D02*
X8527704Y5504619D01*
X8241990Y4504619D02*
X8241990Y5504619D01*
X6003895Y2884619D02*
X6003895Y3884619D01*
X6480085Y2884619D02*
X6480085Y3884619D01*
X6480085Y3884619D02*
X7051513Y2884619D01*
X7051513Y2884619D02*
X7051513Y3884619D01*
X-313619Y-12995113D02*
X-1313619Y-12995113D01*
X-313619Y-12518923D02*
X-1313619Y-12518923D01*
X-1313619Y-12518923D02*
X-313619Y-11947495D01*
X-313619Y-11947495D02*
X-1313619Y-11947495D01*
X306380Y-14137971D02*
X306380Y-13947495D01*
X306380Y-13947495D02*
X354000Y-13852257D01*
X354000Y-13852257D02*
X449238Y-13757019D01*
X449238Y-13757019D02*
X639714Y-13709400D01*
X639714Y-13709400D02*
X973047Y-13709400D01*
X973047Y-13709400D02*
X1163523Y-13757019D01*
X1163523Y-13757019D02*
X1258761Y-13852257D01*
X1258761Y-13852257D02*
X1306380Y-13947495D01*
X1306380Y-13947495D02*
X1306380Y-14137971D01*
X1306380Y-14137971D02*
X1258761Y-14233209D01*
X1258761Y-14233209D02*
X1163523Y-14328447D01*
X1163523Y-14328447D02*
X973047Y-14376066D01*
X973047Y-14376066D02*
X639714Y-14376066D01*
X639714Y-14376066D02*
X449238Y-14328447D01*
X449238Y-14328447D02*
X354000Y-14233209D01*
X354000Y-14233209D02*
X306380Y-14137971D01*
X306380Y-13280828D02*
X1115904Y-13280828D01*
X1115904Y-13280828D02*
X1211142Y-13233209D01*
X1211142Y-13233209D02*
X1258761Y-13185590D01*
X1258761Y-13185590D02*
X1306380Y-13090352D01*
X1306380Y-13090352D02*
X1306380Y-12899876D01*
X1306380Y-12899876D02*
X1258761Y-12804638D01*
X1258761Y-12804638D02*
X1211142Y-12757019D01*
X1211142Y-12757019D02*
X1115904Y-12709400D01*
X1115904Y-12709400D02*
X306380Y-12709400D01*
X306380Y-12376066D02*
X306380Y-11804638D01*
X1306380Y-12090352D02*
X306380Y-12090352D01*
X-6653219Y2689171D02*
X-6653219Y2879647D01*
X-6653219Y2879647D02*
X-6605600Y2974885D01*
X-6605600Y2974885D02*
X-6510361Y3070123D01*
X-6510361Y3070123D02*
X-6319885Y3117742D01*
X-6319885Y3117742D02*
X-5986552Y3117742D01*
X-5986552Y3117742D02*
X-5796076Y3070123D01*
X-5796076Y3070123D02*
X-5700838Y2974885D01*
X-5700838Y2974885D02*
X-5653219Y2879647D01*
X-5653219Y2879647D02*
X-5653219Y2689171D01*
X-5653219Y2689171D02*
X-5700838Y2593933D01*
X-5700838Y2593933D02*
X-5796076Y2498695D01*
X-5796076Y2498695D02*
X-5986552Y2451076D01*
X-5986552Y2451076D02*
X-6319885Y2451076D01*
X-6319885Y2451076D02*
X-6510361Y2498695D01*
X-6510361Y2498695D02*
X-6605600Y2593933D01*
X-6605600Y2593933D02*
X-6653219Y2689171D01*
X-6653219Y3546314D02*
X-5843695Y3546314D01*
X-5843695Y3546314D02*
X-5748457Y3593933D01*
X-5748457Y3593933D02*
X-5700838Y3641552D01*
X-5700838Y3641552D02*
X-5653219Y3736790D01*
X-5653219Y3736790D02*
X-5653219Y3927266D01*
X-5653219Y3927266D02*
X-5700838Y4022504D01*
X-5700838Y4022504D02*
X-5748457Y4070123D01*
X-5748457Y4070123D02*
X-5843695Y4117742D01*
X-5843695Y4117742D02*
X-6653219Y4117742D01*
X-6653219Y4451076D02*
X-6653219Y5022504D01*
X-5653219Y4736790D02*
X-6653219Y4736790D01*
X-7933855Y6729774D02*
X-7768898Y6825012D01*
X-7768898Y6825012D02*
X-7662610Y6831392D01*
X-7662610Y6831392D02*
X-7532512Y6796533D01*
X-7532512Y6796533D02*
X-7396035Y6655385D01*
X-7396035Y6655385D02*
X-7229368Y6366710D01*
X-7229368Y6366710D02*
X-7175369Y6177943D01*
X-7175369Y6177943D02*
X-7210229Y6047845D01*
X-7210229Y6047845D02*
X-7268898Y5958987D01*
X-7268898Y5958987D02*
X-7433855Y5863749D01*
X-7433855Y5863749D02*
X-7540143Y5857369D01*
X-7540143Y5857369D02*
X-7670241Y5892229D01*
X-7670241Y5892229D02*
X-7806718Y6033376D01*
X-7806718Y6033376D02*
X-7973385Y6322051D01*
X-7973385Y6322051D02*
X-8027384Y6510818D01*
X-8027384Y6510818D02*
X-7992524Y6640916D01*
X-7992524Y6640916D02*
X-7933855Y6729774D01*
X-7191548Y7158346D02*
X-6786786Y6457277D01*
X-6786786Y6457277D02*
X-6697928Y6398608D01*
X-6697928Y6398608D02*
X-6632879Y6381179D01*
X-6632879Y6381179D02*
X-6526591Y6387558D01*
X-6526591Y6387558D02*
X-6361633Y6482796D01*
X-6361633Y6482796D02*
X-6302964Y6571655D01*
X-6302964Y6571655D02*
X-6285535Y6636704D01*
X-6285535Y6636704D02*
X-6291914Y6742992D01*
X-6291914Y6742992D02*
X-6696676Y7444060D01*
X-6408001Y7610727D02*
X-5913129Y7896441D01*
X-5660565Y6887558D02*
X-6160565Y7753584D01*
X-4824313Y-3058980D02*
X-4824313Y-2058980D01*
X-4824313Y-2058980D02*
X-4586218Y-2058980D01*
X-4586218Y-2058980D02*
X-4443361Y-2106600D01*
X-4443361Y-2106600D02*
X-4348123Y-2201838D01*
X-4348123Y-2201838D02*
X-4300504Y-2297076D01*
X-4300504Y-2297076D02*
X-4252885Y-2487552D01*
X-4252885Y-2487552D02*
X-4252885Y-2630409D01*
X-4252885Y-2630409D02*
X-4300504Y-2820885D01*
X-4300504Y-2820885D02*
X-4348123Y-2916123D01*
X-4348123Y-2916123D02*
X-4443361Y-3011361D01*
X-4443361Y-3011361D02*
X-4586218Y-3058980D01*
X-4586218Y-3058980D02*
X-4824313Y-3058980D01*
X-3633837Y-2058980D02*
X-3443361Y-2058980D01*
X-3443361Y-2058980D02*
X-3348123Y-2106600D01*
X-3348123Y-2106600D02*
X-3252885Y-2201838D01*
X-3252885Y-2201838D02*
X-3205266Y-2392314D01*
X-3205266Y-2392314D02*
X-3205266Y-2725647D01*
X-3205266Y-2725647D02*
X-3252885Y-2916123D01*
X-3252885Y-2916123D02*
X-3348123Y-3011361D01*
X-3348123Y-3011361D02*
X-3443361Y-3058980D01*
X-3443361Y-3058980D02*
X-3633837Y-3058980D01*
X-3633837Y-3058980D02*
X-3729075Y-3011361D01*
X-3729075Y-3011361D02*
X-3824313Y-2916123D01*
X-3824313Y-2916123D02*
X-3871932Y-2725647D01*
X-3871932Y-2725647D02*
X-3871932Y-2392314D01*
X-3871932Y-2392314D02*
X-3824313Y-2201838D01*
X-3824313Y-2201838D02*
X-3729075Y-2106600D01*
X-3729075Y-2106600D02*
X-3633837Y-2058980D01*
X-2817619Y3500000D02*
X-3817619Y3500000D01*
X-3817619Y3500000D02*
X-3817619Y3738095D01*
X-3817619Y3738095D02*
X-3770000Y3880952D01*
X-3770000Y3880952D02*
X-3674761Y3976190D01*
X-3674761Y3976190D02*
X-3579523Y4023809D01*
X-3579523Y4023809D02*
X-3389047Y4071428D01*
X-3389047Y4071428D02*
X-3246190Y4071428D01*
X-3246190Y4071428D02*
X-3055714Y4023809D01*
X-3055714Y4023809D02*
X-2960476Y3976190D01*
X-2960476Y3976190D02*
X-2865238Y3880952D01*
X-2865238Y3880952D02*
X-2817619Y3738095D01*
X-2817619Y3738095D02*
X-2817619Y3500000D01*
X-2817619Y4500000D02*
X-3817619Y4500000D01*
X-8193219Y-3214400D02*
X-8193219Y-3785828D01*
X-8193219Y-3500114D02*
X-9193219Y-3500114D01*
X-9193219Y-3500114D02*
X-9050361Y-3595352D01*
X-9050361Y-3595352D02*
X-8955123Y-3690590D01*
X-8955123Y-3690590D02*
X-8907504Y-3785828D01*
X-9097980Y-2833447D02*
X-9145600Y-2785828D01*
X-9145600Y-2785828D02*
X-9193219Y-2690590D01*
X-9193219Y-2690590D02*
X-9193219Y-2452495D01*
X-9193219Y-2452495D02*
X-9145600Y-2357257D01*
X-9145600Y-2357257D02*
X-9097980Y-2309638D01*
X-9097980Y-2309638D02*
X-9002742Y-2262019D01*
X-9002742Y-2262019D02*
X-8907504Y-2262019D01*
X-8907504Y-2262019D02*
X-8764647Y-2309638D01*
X-8764647Y-2309638D02*
X-8193219Y-2881066D01*
X-8193219Y-2881066D02*
X-8193219Y-2262019D01*
X-9193219Y-1976304D02*
X-8193219Y-1642971D01*
X-8193219Y-1642971D02*
X-9193219Y-1309638D01*
X-9193219Y99885D02*
X-9193219Y-376304D01*
X-9193219Y-376304D02*
X-8717028Y-423923D01*
X-8717028Y-423923D02*
X-8764647Y-376304D01*
X-8764647Y-376304D02*
X-8812266Y-281066D01*
X-8812266Y-281066D02*
X-8812266Y-42971D01*
X-8812266Y-42971D02*
X-8764647Y52266D01*
X-8764647Y52266D02*
X-8717028Y99885D01*
X-8717028Y99885D02*
X-8621790Y147504D01*
X-8621790Y147504D02*
X-8383695Y147504D01*
X-8383695Y147504D02*
X-8288457Y99885D01*
X-8288457Y99885D02*
X-8240838Y52266D01*
X-8240838Y52266D02*
X-8193219Y-42971D01*
X-8193219Y-42971D02*
X-8193219Y-281066D01*
X-8193219Y-281066D02*
X-8240838Y-376304D01*
X-8240838Y-376304D02*
X-8288457Y-423923D01*
X-9193219Y433219D02*
X-8193219Y766552D01*
X-8193219Y766552D02*
X-9193219Y1099885D01*
X-9193219Y1623695D02*
X-9193219Y1718933D01*
X-9193219Y1718933D02*
X-9145600Y1814171D01*
X-9145600Y1814171D02*
X-9097980Y1861790D01*
X-9097980Y1861790D02*
X-9002742Y1909409D01*
X-9002742Y1909409D02*
X-8812266Y1957028D01*
X-8812266Y1957028D02*
X-8574171Y1957028D01*
X-8574171Y1957028D02*
X-8383695Y1909409D01*
X-8383695Y1909409D02*
X-8288457Y1861790D01*
X-8288457Y1861790D02*
X-8240838Y1814171D01*
X-8240838Y1814171D02*
X-8193219Y1718933D01*
X-8193219Y1718933D02*
X-8193219Y1623695D01*
X-8193219Y1623695D02*
X-8240838Y1528457D01*
X-8240838Y1528457D02*
X-8288457Y1480838D01*
X-8288457Y1480838D02*
X-8383695Y1433219D01*
X-8383695Y1433219D02*
X-8574171Y1385600D01*
X-8574171Y1385600D02*
X-8812266Y1385600D01*
X-8812266Y1385600D02*
X-9002742Y1433219D01*
X-9002742Y1433219D02*
X-9097980Y1480838D01*
X-9097980Y1480838D02*
X-9145600Y1528457D01*
X-9145600Y1528457D02*
X-9193219Y1623695D01*
%TO.C,R6*%
X8774780Y3236933D02*
X8298590Y2903600D01*
X8774780Y2665505D02*
X7774780Y2665505D01*
X7774780Y2665505D02*
X7774780Y3046457D01*
X7774780Y3046457D02*
X7822400Y3141695D01*
X7822400Y3141695D02*
X7870019Y3189314D01*
X7870019Y3189314D02*
X7965257Y3236933D01*
X7965257Y3236933D02*
X8108114Y3236933D01*
X8108114Y3236933D02*
X8203352Y3189314D01*
X8203352Y3189314D02*
X8250971Y3141695D01*
X8250971Y3141695D02*
X8298590Y3046457D01*
X8298590Y3046457D02*
X8298590Y2665505D01*
X7774780Y4094076D02*
X7774780Y3903600D01*
X7774780Y3903600D02*
X7822400Y3808362D01*
X7822400Y3808362D02*
X7870019Y3760743D01*
X7870019Y3760743D02*
X8012876Y3665505D01*
X8012876Y3665505D02*
X8203352Y3617886D01*
X8203352Y3617886D02*
X8584304Y3617886D01*
X8584304Y3617886D02*
X8679542Y3665505D01*
X8679542Y3665505D02*
X8727161Y3713124D01*
X8727161Y3713124D02*
X8774780Y3808362D01*
X8774780Y3808362D02*
X8774780Y3998838D01*
X8774780Y3998838D02*
X8727161Y4094076D01*
X8727161Y4094076D02*
X8679542Y4141695D01*
X8679542Y4141695D02*
X8584304Y4189314D01*
X8584304Y4189314D02*
X8346209Y4189314D01*
X8346209Y4189314D02*
X8250971Y4141695D01*
X8250971Y4141695D02*
X8203352Y4094076D01*
X8203352Y4094076D02*
X8155733Y3998838D01*
X8155733Y3998838D02*
X8155733Y3808362D01*
X8155733Y3808362D02*
X8203352Y3713124D01*
X8203352Y3713124D02*
X8250971Y3665505D01*
X8250971Y3665505D02*
X8346209Y3617886D01*
%TO.C,R8*%
X-8370219Y5903933D02*
X-8846409Y5570600D01*
X-8370219Y5332505D02*
X-9370219Y5332505D01*
X-9370219Y5332505D02*
X-9370219Y5713457D01*
X-9370219Y5713457D02*
X-9322600Y5808695D01*
X-9322600Y5808695D02*
X-9274980Y5856314D01*
X-9274980Y5856314D02*
X-9179742Y5903933D01*
X-9179742Y5903933D02*
X-9036885Y5903933D01*
X-9036885Y5903933D02*
X-8941647Y5856314D01*
X-8941647Y5856314D02*
X-8894028Y5808695D01*
X-8894028Y5808695D02*
X-8846409Y5713457D01*
X-8846409Y5713457D02*
X-8846409Y5332505D01*
X-8941647Y6475362D02*
X-8989266Y6380124D01*
X-8989266Y6380124D02*
X-9036885Y6332505D01*
X-9036885Y6332505D02*
X-9132123Y6284886D01*
X-9132123Y6284886D02*
X-9179742Y6284886D01*
X-9179742Y6284886D02*
X-9274980Y6332505D01*
X-9274980Y6332505D02*
X-9322600Y6380124D01*
X-9322600Y6380124D02*
X-9370219Y6475362D01*
X-9370219Y6475362D02*
X-9370219Y6665838D01*
X-9370219Y6665838D02*
X-9322600Y6761076D01*
X-9322600Y6761076D02*
X-9274980Y6808695D01*
X-9274980Y6808695D02*
X-9179742Y6856314D01*
X-9179742Y6856314D02*
X-9132123Y6856314D01*
X-9132123Y6856314D02*
X-9036885Y6808695D01*
X-9036885Y6808695D02*
X-8989266Y6761076D01*
X-8989266Y6761076D02*
X-8941647Y6665838D01*
X-8941647Y6665838D02*
X-8941647Y6475362D01*
X-8941647Y6475362D02*
X-8894028Y6380124D01*
X-8894028Y6380124D02*
X-8846409Y6332505D01*
X-8846409Y6332505D02*
X-8751171Y6284886D01*
X-8751171Y6284886D02*
X-8560695Y6284886D01*
X-8560695Y6284886D02*
X-8465457Y6332505D01*
X-8465457Y6332505D02*
X-8417838Y6380124D01*
X-8417838Y6380124D02*
X-8370219Y6475362D01*
X-8370219Y6475362D02*
X-8370219Y6665838D01*
X-8370219Y6665838D02*
X-8417838Y6761076D01*
X-8417838Y6761076D02*
X-8465457Y6808695D01*
X-8465457Y6808695D02*
X-8560695Y6856314D01*
X-8560695Y6856314D02*
X-8751171Y6856314D01*
X-8751171Y6856314D02*
X-8846409Y6808695D01*
X-8846409Y6808695D02*
X-8894028Y6761076D01*
X-8894028Y6761076D02*
X-8941647Y6665838D01*
%TO.C,R5*%
X7073733Y-927180D02*
X6740400Y-450990D01*
X6502305Y-927180D02*
X6502305Y72819D01*
X6502305Y72819D02*
X6883257Y72819D01*
X6883257Y72819D02*
X6978495Y25200D01*
X6978495Y25200D02*
X7026114Y-22419D01*
X7026114Y-22419D02*
X7073733Y-117657D01*
X7073733Y-117657D02*
X7073733Y-260514D01*
X7073733Y-260514D02*
X7026114Y-355752D01*
X7026114Y-355752D02*
X6978495Y-403371D01*
X6978495Y-403371D02*
X6883257Y-450990D01*
X6883257Y-450990D02*
X6502305Y-450990D01*
X7978495Y72819D02*
X7502305Y72819D01*
X7502305Y72819D02*
X7454686Y-403371D01*
X7454686Y-403371D02*
X7502305Y-355752D01*
X7502305Y-355752D02*
X7597543Y-308133D01*
X7597543Y-308133D02*
X7835638Y-308133D01*
X7835638Y-308133D02*
X7930876Y-355752D01*
X7930876Y-355752D02*
X7978495Y-403371D01*
X7978495Y-403371D02*
X8026114Y-498609D01*
X8026114Y-498609D02*
X8026114Y-736704D01*
X8026114Y-736704D02*
X7978495Y-831942D01*
X7978495Y-831942D02*
X7930876Y-879561D01*
X7930876Y-879561D02*
X7835638Y-927180D01*
X7835638Y-927180D02*
X7597543Y-927180D01*
X7597543Y-927180D02*
X7502305Y-879561D01*
X7502305Y-879561D02*
X7454686Y-831942D01*
%TO.C,R7*%
X-8268619Y-5373666D02*
X-8744809Y-5706999D01*
X-8268619Y-5945094D02*
X-9268619Y-5945094D01*
X-9268619Y-5945094D02*
X-9268619Y-5564142D01*
X-9268619Y-5564142D02*
X-9221000Y-5468904D01*
X-9221000Y-5468904D02*
X-9173380Y-5421285D01*
X-9173380Y-5421285D02*
X-9078142Y-5373666D01*
X-9078142Y-5373666D02*
X-8935285Y-5373666D01*
X-8935285Y-5373666D02*
X-8840047Y-5421285D01*
X-8840047Y-5421285D02*
X-8792428Y-5468904D01*
X-8792428Y-5468904D02*
X-8744809Y-5564142D01*
X-8744809Y-5564142D02*
X-8744809Y-5945094D01*
X-9268619Y-5040332D02*
X-9268619Y-4373666D01*
X-9268619Y-4373666D02*
X-8268619Y-4802237D01*
%TO.C,R1*%
X7227553Y-9316894D02*
X6700782Y-9071167D01*
X6732681Y-9602608D02*
X6232681Y-8736583D01*
X6232681Y-8736583D02*
X6562596Y-8546107D01*
X6562596Y-8546107D02*
X6668884Y-8539727D01*
X6668884Y-8539727D02*
X6733933Y-8557157D01*
X6733933Y-8557157D02*
X6822791Y-8615826D01*
X6822791Y-8615826D02*
X6894219Y-8739544D01*
X6894219Y-8739544D02*
X6900599Y-8845832D01*
X6900599Y-8845832D02*
X6883169Y-8910881D01*
X6883169Y-8910881D02*
X6824500Y-8999739D01*
X6824500Y-8999739D02*
X6494586Y-9190215D01*
X8052339Y-8840703D02*
X7557467Y-9126418D01*
X7804903Y-8983560D02*
X7304903Y-8117535D01*
X7304903Y-8117535D02*
X7293853Y-8288872D01*
X7293853Y-8288872D02*
X7258993Y-8418970D01*
X7258993Y-8418970D02*
X7200324Y-8507828D01*
%TO.C,R2*%
X2389772Y11195171D02*
X2339192Y11774231D01*
X1894900Y11480886D02*
X2394900Y12346911D01*
X2394900Y12346911D02*
X2724815Y12156435D01*
X2724815Y12156435D02*
X2783484Y12067577D01*
X2783484Y12067577D02*
X2800914Y12002528D01*
X2800914Y12002528D02*
X2794534Y11896240D01*
X2794534Y11896240D02*
X2723105Y11772522D01*
X2723105Y11772522D02*
X2634247Y11713853D01*
X2634247Y11713853D02*
X2569198Y11696423D01*
X2569198Y11696423D02*
X2462910Y11702803D01*
X2462910Y11702803D02*
X2132995Y11893279D01*
X3172067Y11788242D02*
X3237116Y11805672D01*
X3237116Y11805672D02*
X3343404Y11799292D01*
X3343404Y11799292D02*
X3549601Y11680244D01*
X3549601Y11680244D02*
X3608270Y11591386D01*
X3608270Y11591386D02*
X3625700Y11526337D01*
X3625700Y11526337D02*
X3619320Y11420049D01*
X3619320Y11420049D02*
X3571701Y11337570D01*
X3571701Y11337570D02*
X3459033Y11237662D01*
X3459033Y11237662D02*
X2678447Y11028505D01*
X2678447Y11028505D02*
X3214558Y10718981D01*
%TO.C,R3*%
X-7567027Y-9150228D02*
X-7617607Y-8571168D01*
X-8061899Y-8864513D02*
X-7561899Y-7998488D01*
X-7561899Y-7998488D02*
X-7231984Y-8188964D01*
X-7231984Y-8188964D02*
X-7173315Y-8277822D01*
X-7173315Y-8277822D02*
X-7155885Y-8342871D01*
X-7155885Y-8342871D02*
X-7162265Y-8449159D01*
X-7162265Y-8449159D02*
X-7233694Y-8572877D01*
X-7233694Y-8572877D02*
X-7322552Y-8631546D01*
X-7322552Y-8631546D02*
X-7387601Y-8648976D01*
X-7387601Y-8648976D02*
X-7493889Y-8642596D01*
X-7493889Y-8642596D02*
X-7823804Y-8452120D01*
X-6778352Y-8450869D02*
X-6242241Y-8760393D01*
X-6242241Y-8760393D02*
X-6721392Y-8923640D01*
X-6721392Y-8923640D02*
X-6597674Y-8995069D01*
X-6597674Y-8995069D02*
X-6539005Y-9083927D01*
X-6539005Y-9083927D02*
X-6521576Y-9148976D01*
X-6521576Y-9148976D02*
X-6527955Y-9255264D01*
X-6527955Y-9255264D02*
X-6647003Y-9461461D01*
X-6647003Y-9461461D02*
X-6735861Y-9520130D01*
X-6735861Y-9520130D02*
X-6800910Y-9537560D01*
X-6800910Y-9537560D02*
X-6907198Y-9531180D01*
X-6907198Y-9531180D02*
X-7154634Y-9388323D01*
X-7154634Y-9388323D02*
X-7213303Y-9299465D01*
X-7213303Y-9299465D02*
X-7230733Y-9234416D01*
%TO.C,R4*%
X-3872246Y8310705D02*
X-4399017Y8556432D01*
X-4367118Y8024991D02*
X-4867118Y8891016D01*
X-4867118Y8891016D02*
X-4537203Y9081492D01*
X-4537203Y9081492D02*
X-4430915Y9087872D01*
X-4430915Y9087872D02*
X-4365866Y9070442D01*
X-4365866Y9070442D02*
X-4277008Y9011773D01*
X-4277008Y9011773D02*
X-4205580Y8888055D01*
X-4205580Y8888055D02*
X-4199200Y8781767D01*
X-4199200Y8781767D02*
X-4216630Y8716718D01*
X-4216630Y8716718D02*
X-4275299Y8627860D01*
X-4275299Y8627860D02*
X-4605213Y8437384D01*
X-3463272Y9316627D02*
X-3129939Y8739277D01*
X-3859945Y9527494D02*
X-3708998Y8789856D01*
X-3708998Y8789856D02*
X-3172887Y9099380D01*
%TO.C,D1*%
X11761905Y-867380D02*
X11761905Y132619D01*
X11761905Y132619D02*
X12000000Y132619D01*
X12000000Y132619D02*
X12142857Y85000D01*
X12142857Y85000D02*
X12238095Y-10238D01*
X12238095Y-10238D02*
X12285714Y-105476D01*
X12285714Y-105476D02*
X12333333Y-295952D01*
X12333333Y-295952D02*
X12333333Y-438809D01*
X12333333Y-438809D02*
X12285714Y-629285D01*
X12285714Y-629285D02*
X12238095Y-724523D01*
X12238095Y-724523D02*
X12142857Y-819761D01*
X12142857Y-819761D02*
X12000000Y-867380D01*
X12000000Y-867380D02*
X11761905Y-867380D01*
X13285714Y-867380D02*
X12714286Y-867380D01*
X13000000Y-867380D02*
X13000000Y132619D01*
X13000000Y132619D02*
X12904762Y-10238D01*
X12904762Y-10238D02*
X12809524Y-105476D01*
X12809524Y-105476D02*
X12714286Y-153095D01*
%TO.C,D2*%
X11761905Y7132619D02*
X11761905Y8132619D01*
X11761905Y8132619D02*
X12000000Y8132619D01*
X12000000Y8132619D02*
X12142857Y8085000D01*
X12142857Y8085000D02*
X12238095Y7989761D01*
X12238095Y7989761D02*
X12285714Y7894523D01*
X12285714Y7894523D02*
X12333333Y7704047D01*
X12333333Y7704047D02*
X12333333Y7561190D01*
X12333333Y7561190D02*
X12285714Y7370714D01*
X12285714Y7370714D02*
X12238095Y7275476D01*
X12238095Y7275476D02*
X12142857Y7180238D01*
X12142857Y7180238D02*
X12000000Y7132619D01*
X12000000Y7132619D02*
X11761905Y7132619D01*
X12714286Y8037380D02*
X12761905Y8085000D01*
X12761905Y8085000D02*
X12857143Y8132619D01*
X12857143Y8132619D02*
X13095238Y8132619D01*
X13095238Y8132619D02*
X13190476Y8085000D01*
X13190476Y8085000D02*
X13238095Y8037380D01*
X13238095Y8037380D02*
X13285714Y7942142D01*
X13285714Y7942142D02*
X13285714Y7846904D01*
X13285714Y7846904D02*
X13238095Y7704047D01*
X13238095Y7704047D02*
X12666667Y7132619D01*
X12666667Y7132619D02*
X13285714Y7132619D01*
D11*
%TO.C,JP1*%
X8543800Y7954000D02*
X8543800Y6554000D01*
X6543800Y6554000D02*
X6543800Y7954000D01*
X7843800Y5854000D02*
X7243800Y5854000D01*
X7243800Y8654000D02*
X7843800Y8654000D01*
X7843800Y5854000D02*
G75*
G03*
X8543800Y6554000I0J700000D01*
G01*
X8543800Y7954000D02*
G75*
G03*
X7843800Y8654000I-699999J1D01*
G01*
X7243800Y8654000D02*
G75*
G03*
X6543800Y7954000I-1J-699999D01*
G01*
X6543800Y6554000D02*
G75*
G03*
X7243800Y5854000I700000J0D01*
G01*
%TO.C,R6*%
X6935736Y763600D02*
X7389864Y763600D01*
X6935736Y2233600D02*
X7389864Y2233600D01*
%TO.C,R8*%
X-11149000Y5448264D02*
X-11149000Y4994136D01*
X-9679000Y5448264D02*
X-9679000Y4994136D01*
%TO.C,R5*%
X7013336Y-2944800D02*
X7467464Y-2944800D01*
X7013336Y-1474800D02*
X7467464Y-1474800D01*
%TO.C,JP4*%
X1404600Y-11007600D02*
X-1395400Y-11007600D01*
X2054600Y-9707600D02*
X2054600Y-10307600D01*
X-1395400Y-9007600D02*
X1404600Y-9007600D01*
X-1195400Y-11207600D02*
X-895400Y-11507600D01*
X-2045400Y-10307600D02*
X-2045400Y-9707600D01*
X-1195400Y-11207600D02*
X-1495400Y-11507600D01*
X-1495400Y-11507600D02*
X-895400Y-11507600D01*
X2054600Y-9707600D02*
G75*
G03*
X1354600Y-9007600I-700000J0D01*
G01*
X-1345400Y-9007600D02*
G75*
G03*
X-2045400Y-9707600I-1J-699999D01*
G01*
X-2045400Y-10307600D02*
G75*
G03*
X-1345400Y-11007600I699999J-1D01*
G01*
X1354600Y-11007600D02*
G75*
G03*
X2054600Y-10307600I0J700000D01*
G01*
%TO.C,JP3*%
X5150100Y5438600D02*
X5150100Y2638600D01*
X3850100Y6088600D02*
X4450100Y6088600D01*
X3150100Y2638600D02*
X3150100Y5438600D01*
X5350100Y2838600D02*
X5650100Y3138600D01*
X4450100Y1988600D02*
X3850100Y1988600D01*
X5350100Y2838600D02*
X5650100Y2538600D01*
X5650100Y2538600D02*
X5650100Y3138600D01*
X3850100Y6088600D02*
G75*
G03*
X3150100Y5388600I0J-700000D01*
G01*
X3150100Y2688600D02*
G75*
G03*
X3850100Y1988600I699999J-1D01*
G01*
X4450100Y1988600D02*
G75*
G03*
X5150100Y2688600I1J699999D01*
G01*
X5150100Y5388600D02*
G75*
G03*
X4450100Y6088600I-700000J0D01*
G01*
%TO.C,JP2*%
X-9077200Y2968000D02*
X-9077200Y4368000D01*
X-7077200Y4368000D02*
X-7077200Y2968000D01*
X-8377200Y5068000D02*
X-7777200Y5068000D01*
X-7777200Y2268000D02*
X-8377200Y2268000D01*
X-8377200Y5068000D02*
G75*
G03*
X-9077200Y4368000I0J-700000D01*
G01*
X-9077200Y2968000D02*
G75*
G03*
X-8377200Y2268000I699999J-1D01*
G01*
X-7777200Y2268000D02*
G75*
G03*
X-7077200Y2968000I1J699999D01*
G01*
X-7077200Y4368000D02*
G75*
G03*
X-7777200Y5068000I-700000J0D01*
G01*
D12*
%TO.C,J7*%
X-3500000Y-8600000D02*
X3500000Y-8600000D01*
X-3500000Y-3400000D02*
X3500000Y-3400000D01*
X-3500000Y-3400000D02*
G75*
G03*
X-3500000Y-8600000I0J-2600000D01*
G01*
X3500000Y-8600000D02*
G75*
G03*
X3500000Y-3400000I0J2600000D01*
G01*
X-1450000Y-4250000D02*
G75*
G03*
X-1450000Y-4250000I-300000J0D01*
G01*
%TO.C,J6*%
X-2600000Y7500000D02*
X-2600000Y500000D01*
X2600000Y7500000D02*
X2600000Y500000D01*
X2600000Y7500000D02*
G75*
G03*
X-2600000Y7500000I-2600000J0D01*
G01*
X-2600000Y500000D02*
G75*
G03*
X2600000Y500000I2600000J0D01*
G01*
X2050000Y5750000D02*
G75*
G03*
X2050000Y5750000I-300000J0D01*
G01*
D11*
%TO.C,R7*%
X-11160600Y-5436364D02*
X-11160600Y-4982236D01*
X-9690600Y-5436364D02*
X-9690600Y-4982236D01*
%TO.C,R1*%
X4680543Y-9486139D02*
X4287257Y-9713203D01*
X5415543Y-10759197D02*
X5022257Y-10986261D01*
%TO.C,R2*%
X5491743Y10657597D02*
X5098457Y10884661D01*
X4756743Y9384539D02*
X4363457Y9611603D01*
%TO.C,R3*%
X-5491743Y-10733797D02*
X-5098457Y-10960861D01*
X-4756743Y-9460739D02*
X-4363457Y-9687803D01*
%TO.C,R4*%
X-4629743Y9511539D02*
X-4236457Y9738603D01*
X-5364743Y10784597D02*
X-4971457Y11011661D01*
%TO.C,D1*%
X8850000Y-1250000D02*
X16150000Y-1250000D01*
X8850000Y-2400000D02*
X8850000Y-1250000D01*
X8850000Y-6750000D02*
X16150000Y-6750000D01*
%TO.C,D2*%
X8850000Y1250000D02*
X16150000Y1250000D01*
X8850000Y5600000D02*
X8850000Y6750000D01*
X8850000Y6750000D02*
X16150000Y6750000D01*
%TO.C,D4*%
X-9465600Y724900D02*
X-9465600Y3409900D01*
X-9465600Y3409900D02*
X-11385600Y3409900D01*
X-11385600Y3409900D02*
X-11385600Y724900D01*
%TO.C,D3*%
X-11385600Y-704100D02*
X-11385600Y-3389100D01*
X-11385600Y-3389100D02*
X-9465600Y-3389100D01*
X-9465600Y-3389100D02*
X-9465600Y-704100D01*
%TD*%
M02*
