M48
; DRILL file {KiCad (7.0.0)} date Thu Jun 29 20:54:50 2023
; FORMAT={-:-/ absolute / inch / decimal}
; #@! TF.CreationDate,2023-06-29T20:54:50-07:00
; #@! TF.GenerationSoftware,Kicad,Pcbnew,(7.0.0)
; #@! TF.FileFunction,Plated,1,2,PTH
FMAT,2
INCH
; #@! TA.AperFunction,Plated,PTH,ViaDrill
T1C0.0157
; #@! TA.AperFunction,Plated,PTH,ComponentDrill
T2C0.0374
; #@! TA.AperFunction,Plated,PTH,ComponentDrill
T3C0.0984
%
G90
G05
T1
X-0.434Y0.291
X-0.418Y-0.285
X-0.263Y0.155
X-0.156Y0.379
X-0.0714Y-0.0444
X-0.071Y-0.092
X-0.051Y0.483
X-0.0504Y0.4364
X0.0549Y0.4389
X0.057Y0.484
X0.063Y-0.107
X0.0856Y0.1012
X0.1132Y0.3332
X0.1162Y0.1943
X0.1164Y-0.002
X0.117Y-0.479
X0.165Y-0.0974
X0.1714Y-0.3687
X0.173Y0.376
X0.1742Y0.084
X0.204Y-0.048
X0.238Y-0.191
X0.279Y-0.176
X0.325Y0.005
X0.388Y-0.0462
X0.42Y0.045
X0.463Y-0.156
X0.47Y-0.029
X0.507Y-0.054
X0.53Y0.219
T2
X-0.5331Y0.1
X-0.5331Y0.0016
X-0.5331Y-0.0969
X-0.3531Y-0.4117
X-0.3504Y0.4132
X-0.2679Y-0.4609
X-0.2652Y0.4624
X-0.1827Y-0.5101
X-0.1799Y0.5117
X0.1799Y-0.5117
X0.1827Y0.5101
X0.2652Y-0.4624
X0.2679Y0.4609
X0.3504Y-0.4132
X0.3531Y0.4117
T3
X-0.1378Y-0.2362
X0.0Y0.2953
X0.0Y0.1575
X0.0Y0.0197
X0.0Y-0.2362
X0.1378Y-0.2362
T0
M30
