%TF.GenerationSoftware,KiCad,Pcbnew,(7.0.0)*%
%TF.CreationDate,2023-06-29T20:54:47-07:00*%
%TF.ProjectId,glowprism_pipe_pcb,676c6f77-7072-4697-936d-5f706970655f,rev?*%
%TF.SameCoordinates,Original*%
%TF.FileFunction,Soldermask,Top*%
%TF.FilePolarity,Negative*%
%FSLAX46Y46*%
G04 Gerber Fmt 4.6, Leading zero omitted, Abs format (unit mm)*
G04 Created by KiCad (PCBNEW (7.0.0)) date 2023-06-29 20:54:47*
%MOMM*%
%LPD*%
G01*
G04 APERTURE LIST*
G04 Aperture macros list*
%AMRoundRect*
0 Rectangle with rounded corners*
0 $1 Rounding radius*
0 $2 $3 $4 $5 $6 $7 $8 $9 X,Y pos of 4 corners*
0 Add a 4 corners polygon primitive as box body*
4,1,4,$2,$3,$4,$5,$6,$7,$8,$9,$2,$3,0*
0 Add four circle primitives for the rounded corners*
1,1,$1+$1,$2,$3*
1,1,$1+$1,$4,$5*
1,1,$1+$1,$6,$7*
1,1,$1+$1,$8,$9*
0 Add four rect primitives between the rounded corners*
20,1,$1+$1,$2,$3,$4,$5,0*
20,1,$1+$1,$4,$5,$6,$7,0*
20,1,$1+$1,$6,$7,$8,$9,0*
20,1,$1+$1,$8,$9,$2,$3,0*%
%AMHorizOval*
0 Thick line with rounded ends*
0 $1 width*
0 $2 $3 position (X,Y) of the first rounded end (center of the circle)*
0 $4 $5 position (X,Y) of the second rounded end (center of the circle)*
0 Add line between two ends*
20,1,$1,$2,$3,$4,$5,0*
0 Add two circle primitives to create the rounded ends*
1,1,$1,$2,$3*
1,1,$1,$4,$5*%
%AMFreePoly0*
4,1,19,0.500000,-0.750000,0.000000,-0.750000,0.000000,-0.744911,-0.071157,-0.744911,-0.207708,-0.704816,-0.327430,-0.627875,-0.420627,-0.520320,-0.479746,-0.390866,-0.500000,-0.250000,-0.500000,0.250000,-0.479746,0.390866,-0.420627,0.520320,-0.327430,0.627875,-0.207708,0.704816,-0.071157,0.744911,0.000000,0.744911,0.000000,0.750000,0.500000,0.750000,0.500000,-0.750000,0.500000,-0.750000,
$1*%
%AMFreePoly1*
4,1,19,0.000000,0.744911,0.071157,0.744911,0.207708,0.704816,0.327430,0.627875,0.420627,0.520320,0.479746,0.390866,0.500000,0.250000,0.500000,-0.250000,0.479746,-0.390866,0.420627,-0.520320,0.327430,-0.627875,0.207708,-0.704816,0.071157,-0.744911,0.000000,-0.744911,0.000000,-0.750000,-0.500000,-0.750000,-0.500000,0.750000,0.000000,0.750000,0.000000,0.744911,0.000000,0.744911,
$1*%
%AMFreePoly2*
4,1,19,0.550000,-0.750000,0.000000,-0.750000,0.000000,-0.744911,-0.071157,-0.744911,-0.207708,-0.704816,-0.327430,-0.627875,-0.420627,-0.520320,-0.479746,-0.390866,-0.500000,-0.250000,-0.500000,0.250000,-0.479746,0.390866,-0.420627,0.520320,-0.327430,0.627875,-0.207708,0.704816,-0.071157,0.744911,0.000000,0.744911,0.000000,0.750000,0.550000,0.750000,0.550000,-0.750000,0.550000,-0.750000,
$1*%
%AMFreePoly3*
4,1,19,0.000000,0.744911,0.071157,0.744911,0.207708,0.704816,0.327430,0.627875,0.420627,0.520320,0.479746,0.390866,0.500000,0.250000,0.500000,-0.250000,0.479746,-0.390866,0.420627,-0.520320,0.327430,-0.627875,0.207708,-0.704816,0.071157,-0.744911,0.000000,-0.744911,0.000000,-0.750000,-0.550000,-0.750000,-0.550000,0.750000,0.000000,0.750000,0.000000,0.744911,0.000000,0.744911,
$1*%
G04 Aperture macros list end*
%ADD10FreePoly0,270.000000*%
%ADD11FreePoly1,270.000000*%
%ADD12RoundRect,0.250000X-0.262500X-0.450000X0.262500X-0.450000X0.262500X0.450000X-0.262500X0.450000X0*%
%ADD13RoundRect,0.250000X-0.450000X0.262500X-0.450000X-0.262500X0.450000X-0.262500X0.450000X0.262500X0*%
%ADD14FreePoly2,0.000000*%
%ADD15R,1.000000X1.500000*%
%ADD16FreePoly3,0.000000*%
%ADD17FreePoly2,90.000000*%
%ADD18R,1.500000X1.000000*%
%ADD19FreePoly3,90.000000*%
%ADD20FreePoly0,90.000000*%
%ADD21FreePoly1,90.000000*%
%ADD22C,3.200000*%
%ADD23RoundRect,0.250000X0.450000X-0.262500X0.450000X0.262500X-0.450000X0.262500X-0.450000X-0.262500X0*%
%ADD24RoundRect,0.250000X0.002332X0.520961X-0.452332X0.258461X-0.002332X-0.520961X0.452332X-0.258461X0*%
%ADD25RoundRect,0.250000X0.452332X0.258461X-0.002332X0.520961X-0.452332X-0.258461X0.002332X-0.520961X0*%
%ADD26RoundRect,0.250000X-0.452332X-0.258461X0.002332X-0.520961X0.452332X0.258461X-0.002332X0.520961X0*%
%ADD27RoundRect,0.250000X-0.002332X-0.520961X0.452332X-0.258461X0.002332X0.520961X-0.452332X0.258461X0*%
%ADD28RoundRect,0.243750X-0.456250X0.243750X-0.456250X-0.243750X0.456250X-0.243750X0.456250X0.243750X0*%
%ADD29RoundRect,0.243750X0.456250X-0.243750X0.456250X0.243750X-0.456250X0.243750X-0.456250X-0.243750X0*%
%ADD30HorizOval,1.700000X-0.062500X0.108253X0.062500X-0.108253X0*%
%ADD31RoundRect,0.250000X-0.157115X-0.927868X0.882115X-0.327868X0.157115X0.927868X-0.882115X0.327868X0*%
%ADD32RoundRect,0.250000X0.882115X0.327868X-0.157115X0.927868X-0.882115X-0.327868X0.157115X-0.927868X0*%
%ADD33HorizOval,1.700000X0.062500X0.108253X-0.062500X-0.108253X0*%
%ADD34HorizOval,1.700000X-0.062500X-0.108253X0.062500X0.108253X0*%
%ADD35RoundRect,0.250000X-0.882115X-0.327868X0.157115X-0.927868X0.882115X0.327868X-0.157115X0.927868X0*%
%ADD36RoundRect,0.250000X0.157115X0.927868X-0.882115X0.327868X-0.157115X-0.927868X0.882115X-0.327868X0*%
%ADD37O,1.950000X1.700000*%
%ADD38RoundRect,0.250000X-0.725000X0.600000X-0.725000X-0.600000X0.725000X-0.600000X0.725000X0.600000X0*%
G04 APERTURE END LIST*
D10*
%TO.C,JP1*%
X7543800Y7904000D03*
D11*
X7543800Y6604000D03*
%TD*%
D12*
%TO.C,R6*%
X8075300Y1498600D03*
X6250300Y1498600D03*
%TD*%
D13*
%TO.C,R8*%
X-10414000Y4308700D03*
X-10414000Y6133700D03*
%TD*%
D12*
%TO.C,R5*%
X8152900Y-2209800D03*
X6327900Y-2209800D03*
%TD*%
D14*
%TO.C,JP4*%
X-1295400Y-10007600D03*
D15*
X4599Y-10007599D03*
D16*
X1304600Y-10007600D03*
%TD*%
D17*
%TO.C,JP3*%
X4150100Y2738600D03*
D18*
X4150099Y4038599D03*
D19*
X4150100Y5338600D03*
%TD*%
D20*
%TO.C,JP2*%
X-8077200Y3018000D03*
D21*
X-8077200Y4318000D03*
%TD*%
D22*
%TO.C,J7*%
X-3500000Y-6000000D03*
X0Y-6000000D03*
X3500000Y-6000000D03*
%TD*%
%TO.C,J6*%
X0Y7500000D03*
X0Y4000000D03*
X0Y500000D03*
%TD*%
D23*
%TO.C,R7*%
X-10425600Y-6121800D03*
X-10425600Y-4296800D03*
%TD*%
D24*
%TO.C,R1*%
X4061152Y-10692450D03*
X5641648Y-9779950D03*
%TD*%
D25*
%TO.C,R2*%
X4137352Y10590850D03*
X5717848Y9678350D03*
%TD*%
D26*
%TO.C,R3*%
X-4137352Y-10667050D03*
X-5717848Y-9754550D03*
%TD*%
D27*
%TO.C,R4*%
X-4010352Y10717850D03*
X-5590848Y9805350D03*
%TD*%
D18*
%TO.C,D1*%
X10049999Y-2399999D03*
X10049999Y-3999999D03*
X10049999Y-5599999D03*
X14949999Y-5599999D03*
X14949999Y-3999999D03*
X14949999Y-2399999D03*
%TD*%
%TO.C,D2*%
X14949999Y5599999D03*
X14949999Y3999999D03*
X14949999Y2399999D03*
X10049999Y2399999D03*
X10049999Y3999999D03*
X10049999Y5599999D03*
%TD*%
D28*
%TO.C,D4*%
X-10425600Y2662400D03*
X-10425600Y787400D03*
%TD*%
D29*
%TO.C,D3*%
X-10425600Y-2641600D03*
X-10425600Y-766600D03*
%TD*%
D30*
%TO.C,J1*%
X8900421Y-10495983D03*
X6735358Y-11745983D03*
D31*
X4570295Y-12995984D03*
%TD*%
D32*
%TO.C,J2*%
X8969705Y10455984D03*
D33*
X6804640Y11705983D03*
X4639577Y12955983D03*
%TD*%
D34*
%TO.C,J3*%
X-4639577Y-12955983D03*
X-6804640Y-11705983D03*
D35*
X-8969705Y-10455984D03*
%TD*%
D36*
%TO.C,J4*%
X-4570295Y12995984D03*
D30*
X-6735358Y11745983D03*
X-8900421Y10495983D03*
%TD*%
D37*
%TO.C,J5*%
X-13539999Y-2459999D03*
X-13539999Y39999D03*
D38*
X-13540000Y2540000D03*
%TD*%
M02*
