%TF.GenerationSoftware,KiCad,Pcbnew,(7.0.0)*%
%TF.CreationDate,2023-06-29T20:54:47-07:00*%
%TF.ProjectId,glowprism_pipe_pcb,676c6f77-7072-4697-936d-5f706970655f,rev?*%
%TF.SameCoordinates,Original*%
%TF.FileFunction,Copper,L1,Top*%
%TF.FilePolarity,Positive*%
%FSLAX46Y46*%
G04 Gerber Fmt 4.6, Leading zero omitted, Abs format (unit mm)*
G04 Created by KiCad (PCBNEW (7.0.0)) date 2023-06-29 20:54:47*
%MOMM*%
%LPD*%
G01*
G04 APERTURE LIST*
G04 Aperture macros list*
%AMRoundRect*
0 Rectangle with rounded corners*
0 $1 Rounding radius*
0 $2 $3 $4 $5 $6 $7 $8 $9 X,Y pos of 4 corners*
0 Add a 4 corners polygon primitive as box body*
4,1,4,$2,$3,$4,$5,$6,$7,$8,$9,$2,$3,0*
0 Add four circle primitives for the rounded corners*
1,1,$1+$1,$2,$3*
1,1,$1+$1,$4,$5*
1,1,$1+$1,$6,$7*
1,1,$1+$1,$8,$9*
0 Add four rect primitives between the rounded corners*
20,1,$1+$1,$2,$3,$4,$5,0*
20,1,$1+$1,$4,$5,$6,$7,0*
20,1,$1+$1,$6,$7,$8,$9,0*
20,1,$1+$1,$8,$9,$2,$3,0*%
%AMHorizOval*
0 Thick line with rounded ends*
0 $1 width*
0 $2 $3 position (X,Y) of the first rounded end (center of the circle)*
0 $4 $5 position (X,Y) of the second rounded end (center of the circle)*
0 Add line between two ends*
20,1,$1,$2,$3,$4,$5,0*
0 Add two circle primitives to create the rounded ends*
1,1,$1,$2,$3*
1,1,$1,$4,$5*%
%AMFreePoly0*
4,1,19,0.500000,-0.750000,0.000000,-0.750000,0.000000,-0.744911,-0.071157,-0.744911,-0.207708,-0.704816,-0.327430,-0.627875,-0.420627,-0.520320,-0.479746,-0.390866,-0.500000,-0.250000,-0.500000,0.250000,-0.479746,0.390866,-0.420627,0.520320,-0.327430,0.627875,-0.207708,0.704816,-0.071157,0.744911,0.000000,0.744911,0.000000,0.750000,0.500000,0.750000,0.500000,-0.750000,0.500000,-0.750000,
$1*%
%AMFreePoly1*
4,1,19,0.000000,0.744911,0.071157,0.744911,0.207708,0.704816,0.327430,0.627875,0.420627,0.520320,0.479746,0.390866,0.500000,0.250000,0.500000,-0.250000,0.479746,-0.390866,0.420627,-0.520320,0.327430,-0.627875,0.207708,-0.704816,0.071157,-0.744911,0.000000,-0.744911,0.000000,-0.750000,-0.500000,-0.750000,-0.500000,0.750000,0.000000,0.750000,0.000000,0.744911,0.000000,0.744911,
$1*%
%AMFreePoly2*
4,1,19,0.550000,-0.750000,0.000000,-0.750000,0.000000,-0.744911,-0.071157,-0.744911,-0.207708,-0.704816,-0.327430,-0.627875,-0.420627,-0.520320,-0.479746,-0.390866,-0.500000,-0.250000,-0.500000,0.250000,-0.479746,0.390866,-0.420627,0.520320,-0.327430,0.627875,-0.207708,0.704816,-0.071157,0.744911,0.000000,0.744911,0.000000,0.750000,0.550000,0.750000,0.550000,-0.750000,0.550000,-0.750000,
$1*%
%AMFreePoly3*
4,1,19,0.000000,0.744911,0.071157,0.744911,0.207708,0.704816,0.327430,0.627875,0.420627,0.520320,0.479746,0.390866,0.500000,0.250000,0.500000,-0.250000,0.479746,-0.390866,0.420627,-0.520320,0.327430,-0.627875,0.207708,-0.704816,0.071157,-0.744911,0.000000,-0.744911,0.000000,-0.750000,-0.550000,-0.750000,-0.550000,0.750000,0.000000,0.750000,0.000000,0.744911,0.000000,0.744911,
$1*%
G04 Aperture macros list end*
%TA.AperFunction,SMDPad,CuDef*%
%ADD10FreePoly0,270.000000*%
%TD*%
%TA.AperFunction,SMDPad,CuDef*%
%ADD11FreePoly1,270.000000*%
%TD*%
%TA.AperFunction,SMDPad,CuDef*%
%ADD12RoundRect,0.250000X-0.262500X-0.450000X0.262500X-0.450000X0.262500X0.450000X-0.262500X0.450000X0*%
%TD*%
%TA.AperFunction,SMDPad,CuDef*%
%ADD13RoundRect,0.250000X-0.450000X0.262500X-0.450000X-0.262500X0.450000X-0.262500X0.450000X0.262500X0*%
%TD*%
%TA.AperFunction,SMDPad,CuDef*%
%ADD14FreePoly2,0.000000*%
%TD*%
%TA.AperFunction,SMDPad,CuDef*%
%ADD15R,1.000000X1.500000*%
%TD*%
%TA.AperFunction,SMDPad,CuDef*%
%ADD16FreePoly3,0.000000*%
%TD*%
%TA.AperFunction,SMDPad,CuDef*%
%ADD17FreePoly2,90.000000*%
%TD*%
%TA.AperFunction,SMDPad,CuDef*%
%ADD18R,1.500000X1.000000*%
%TD*%
%TA.AperFunction,SMDPad,CuDef*%
%ADD19FreePoly3,90.000000*%
%TD*%
%TA.AperFunction,SMDPad,CuDef*%
%ADD20FreePoly0,90.000000*%
%TD*%
%TA.AperFunction,SMDPad,CuDef*%
%ADD21FreePoly1,90.000000*%
%TD*%
%TA.AperFunction,ComponentPad*%
%ADD22C,3.200000*%
%TD*%
%TA.AperFunction,SMDPad,CuDef*%
%ADD23RoundRect,0.250000X0.450000X-0.262500X0.450000X0.262500X-0.450000X0.262500X-0.450000X-0.262500X0*%
%TD*%
%TA.AperFunction,SMDPad,CuDef*%
%ADD24RoundRect,0.250000X0.002332X0.520961X-0.452332X0.258461X-0.002332X-0.520961X0.452332X-0.258461X0*%
%TD*%
%TA.AperFunction,SMDPad,CuDef*%
%ADD25RoundRect,0.250000X0.452332X0.258461X-0.002332X0.520961X-0.452332X-0.258461X0.002332X-0.520961X0*%
%TD*%
%TA.AperFunction,SMDPad,CuDef*%
%ADD26RoundRect,0.250000X-0.452332X-0.258461X0.002332X-0.520961X0.452332X0.258461X-0.002332X0.520961X0*%
%TD*%
%TA.AperFunction,SMDPad,CuDef*%
%ADD27RoundRect,0.250000X-0.002332X-0.520961X0.452332X-0.258461X0.002332X0.520961X-0.452332X0.258461X0*%
%TD*%
%TA.AperFunction,SMDPad,CuDef*%
%ADD28RoundRect,0.243750X-0.456250X0.243750X-0.456250X-0.243750X0.456250X-0.243750X0.456250X0.243750X0*%
%TD*%
%TA.AperFunction,SMDPad,CuDef*%
%ADD29RoundRect,0.243750X0.456250X-0.243750X0.456250X0.243750X-0.456250X0.243750X-0.456250X-0.243750X0*%
%TD*%
%TA.AperFunction,ComponentPad*%
%ADD30HorizOval,1.700000X-0.062500X0.108253X0.062500X-0.108253X0*%
%TD*%
%TA.AperFunction,ComponentPad*%
%ADD31RoundRect,0.250000X-0.157115X-0.927868X0.882115X-0.327868X0.157115X0.927868X-0.882115X0.327868X0*%
%TD*%
%TA.AperFunction,ComponentPad*%
%ADD32RoundRect,0.250000X0.882115X0.327868X-0.157115X0.927868X-0.882115X-0.327868X0.157115X-0.927868X0*%
%TD*%
%TA.AperFunction,ComponentPad*%
%ADD33HorizOval,1.700000X0.062500X0.108253X-0.062500X-0.108253X0*%
%TD*%
%TA.AperFunction,ComponentPad*%
%ADD34HorizOval,1.700000X-0.062500X-0.108253X0.062500X0.108253X0*%
%TD*%
%TA.AperFunction,ComponentPad*%
%ADD35RoundRect,0.250000X-0.882115X-0.327868X0.157115X-0.927868X0.882115X0.327868X-0.157115X0.927868X0*%
%TD*%
%TA.AperFunction,ComponentPad*%
%ADD36RoundRect,0.250000X0.157115X0.927868X-0.882115X0.327868X-0.157115X-0.927868X0.882115X-0.327868X0*%
%TD*%
%TA.AperFunction,ComponentPad*%
%ADD37O,1.950000X1.700000*%
%TD*%
%TA.AperFunction,ComponentPad*%
%ADD38RoundRect,0.250000X-0.725000X0.600000X-0.725000X-0.600000X0.725000X-0.600000X0.725000X0.600000X0*%
%TD*%
%TA.AperFunction,ViaPad*%
%ADD39C,0.800000*%
%TD*%
%TA.AperFunction,Conductor*%
%ADD40C,0.500000*%
%TD*%
G04 APERTURE END LIST*
D10*
%TO.P,JP1,1,A*%
%TO.N,Net-(J4-Pin_2)*%
X7543800Y7904000D03*
D11*
%TO.P,JP1,2,B*%
%TO.N,DO*%
X7543800Y6604000D03*
%TD*%
D12*
%TO.P,R6,2*%
%TO.N,Net-(D2-DIN)*%
X8075300Y1498600D03*
%TO.P,R6,1*%
%TO.N,DO*%
X6250300Y1498600D03*
%TD*%
D13*
%TO.P,R8,2*%
%TO.N,Net-(D4-K)*%
X-10414000Y4308700D03*
%TO.P,R8,1*%
%TO.N,GND*%
X-10414000Y6133700D03*
%TD*%
D12*
%TO.P,R5,2*%
%TO.N,Net-(D1-DIN)*%
X8152900Y-2209800D03*
%TO.P,R5,1*%
%TO.N,DI*%
X6327900Y-2209800D03*
%TD*%
D14*
%TO.P,JP4,1,A*%
%TO.N,DI*%
X-1295400Y-10007600D03*
D15*
%TO.P,JP4,2,C*%
%TO.N,Net-(J7-Pin_2)*%
X4599Y-10007599D03*
D16*
%TO.P,JP4,3,B*%
%TO.N,DO*%
X1304600Y-10007600D03*
%TD*%
D17*
%TO.P,JP3,1,A*%
%TO.N,DO*%
X4150100Y2738600D03*
D18*
%TO.P,JP3,2,C*%
%TO.N,Net-(J6-Pin_2)*%
X4150099Y4038599D03*
D19*
%TO.P,JP3,3,B*%
%TO.N,DI*%
X4150100Y5338600D03*
%TD*%
D20*
%TO.P,JP2,1,A*%
%TO.N,Net-(J5-Pin_2)*%
X-8077200Y3018000D03*
D21*
%TO.P,JP2,2,B*%
%TO.N,DI*%
X-8077200Y4318000D03*
%TD*%
D22*
%TO.P,J7,1,Pin_1*%
%TO.N,GND*%
X-3500000Y-6000000D03*
%TO.P,J7,2,Pin_2*%
%TO.N,Net-(J7-Pin_2)*%
X0Y-6000000D03*
%TO.P,J7,3,Pin_3*%
%TO.N,VCC*%
X3500000Y-6000000D03*
%TD*%
%TO.P,J6,1,Pin_1*%
%TO.N,GND*%
X0Y7500000D03*
%TO.P,J6,2,Pin_2*%
%TO.N,Net-(J6-Pin_2)*%
X0Y4000000D03*
%TO.P,J6,3,Pin_3*%
%TO.N,VCC*%
X0Y500000D03*
%TD*%
D23*
%TO.P,R7,1*%
%TO.N,GND*%
X-10425600Y-6121800D03*
%TO.P,R7,2*%
%TO.N,Net-(D3-K)*%
X-10425600Y-4296800D03*
%TD*%
D24*
%TO.P,R1,2*%
%TO.N,DI*%
X4061152Y-10692450D03*
%TO.P,R1,1*%
%TO.N,Net-(J1-Pin_2)*%
X5641648Y-9779950D03*
%TD*%
D25*
%TO.P,R2,2*%
%TO.N,DI*%
X4137352Y10590850D03*
%TO.P,R2,1*%
%TO.N,Net-(J2-Pin_2)*%
X5717848Y9678350D03*
%TD*%
D26*
%TO.P,R3,2*%
%TO.N,DI*%
X-4137352Y-10667050D03*
%TO.P,R3,1*%
%TO.N,Net-(J3-Pin_2)*%
X-5717848Y-9754550D03*
%TD*%
D27*
%TO.P,R4,2*%
%TO.N,DI*%
X-4010352Y10717850D03*
%TO.P,R4,1*%
%TO.N,Net-(J4-Pin_2)*%
X-5590848Y9805350D03*
%TD*%
D18*
%TO.P,D1,1,DOUT*%
%TO.N,unconnected-(D1-DOUT-Pad1)*%
X10049999Y-2399999D03*
%TO.P,D1,2,DIN*%
%TO.N,Net-(D1-DIN)*%
X10049999Y-3999999D03*
%TO.P,D1,3,VCC*%
%TO.N,+5V*%
X10049999Y-5599999D03*
%TO.P,D1,4,NC*%
%TO.N,unconnected-(D1-NC-Pad4)*%
X14949999Y-5599999D03*
%TO.P,D1,5,VDD*%
%TO.N,+5V*%
X14949999Y-3999999D03*
%TO.P,D1,6,VSS*%
%TO.N,GND*%
X14949999Y-2399999D03*
%TD*%
%TO.P,D2,6,VSS*%
%TO.N,GND*%
X14949999Y5599999D03*
%TO.P,D2,5,VDD*%
%TO.N,+5V*%
X14949999Y3999999D03*
%TO.P,D2,4,NC*%
%TO.N,unconnected-(D2-NC-Pad4)*%
X14949999Y2399999D03*
%TO.P,D2,3,VCC*%
%TO.N,+5V*%
X10049999Y2399999D03*
%TO.P,D2,2,DIN*%
%TO.N,Net-(D2-DIN)*%
X10049999Y3999999D03*
%TO.P,D2,1,DOUT*%
%TO.N,unconnected-(D2-DOUT-Pad1)*%
X10049999Y5599999D03*
%TD*%
D28*
%TO.P,D4,1,K*%
%TO.N,Net-(D4-K)*%
X-10425600Y2662400D03*
%TO.P,D4,2,A*%
%TO.N,+5V*%
X-10425600Y787400D03*
%TD*%
D29*
%TO.P,D3,1,K*%
%TO.N,Net-(D3-K)*%
X-10425600Y-2641600D03*
%TO.P,D3,2,A*%
%TO.N,VCC*%
X-10425600Y-766600D03*
%TD*%
D30*
%TO.P,J1,3,Pin_3*%
%TO.N,VCC*%
X8900421Y-10495983D03*
%TO.P,J1,2,Pin_2*%
%TO.N,Net-(J1-Pin_2)*%
X6735358Y-11745983D03*
D31*
%TO.P,J1,1,Pin_1*%
%TO.N,GND*%
X4570295Y-12995984D03*
%TD*%
D32*
%TO.P,J2,1,Pin_1*%
%TO.N,GND*%
X8969705Y10455984D03*
D33*
%TO.P,J2,2,Pin_2*%
%TO.N,Net-(J2-Pin_2)*%
X6804640Y11705983D03*
%TO.P,J2,3,Pin_3*%
%TO.N,VCC*%
X4639577Y12955983D03*
%TD*%
D34*
%TO.P,J3,3,Pin_3*%
%TO.N,VCC*%
X-4639577Y-12955983D03*
%TO.P,J3,2,Pin_2*%
%TO.N,Net-(J3-Pin_2)*%
X-6804640Y-11705983D03*
D35*
%TO.P,J3,1,Pin_1*%
%TO.N,GND*%
X-8969705Y-10455984D03*
%TD*%
D36*
%TO.P,J4,1,Pin_1*%
%TO.N,GND*%
X-4570295Y12995984D03*
D30*
%TO.P,J4,2,Pin_2*%
%TO.N,Net-(J4-Pin_2)*%
X-6735358Y11745983D03*
%TO.P,J4,3,Pin_3*%
%TO.N,VCC*%
X-8900421Y10495983D03*
%TD*%
D37*
%TO.P,J5,3,Pin_3*%
%TO.N,VCC*%
X-13539999Y-2459999D03*
%TO.P,J5,2,Pin_2*%
%TO.N,Net-(J5-Pin_2)*%
X-13539999Y39999D03*
D38*
%TO.P,J5,1,Pin_1*%
%TO.N,GND*%
X-13540000Y2540000D03*
%TD*%
D39*
%TO.N,DO*%
X2955610Y-51784D03*
X5181600Y-1219200D03*
X6045200Y-4851400D03*
X4354328Y-9365134D03*
X4425532Y2133767D03*
%TO.N,VCC*%
X4191000Y-2473000D03*
%TO.N,DI*%
X2950713Y4935403D03*
X2173100Y2570535D03*
X4394200Y9550400D03*
X2875324Y8463324D03*
%TO.N,Net-(J4-Pin_2)*%
X-1278912Y11083312D03*
X1393212Y11146812D03*
%TO.N,DI*%
X-3962400Y9626600D03*
X7086600Y-4470400D03*
X2971800Y-12166600D03*
%TO.N,Net-(J5-Pin_2)*%
X10668000Y1143000D03*
X11938000Y-736600D03*
X9854500Y-1173876D03*
X1599700Y-2717800D03*
%TO.N,GND*%
X12877800Y-1371600D03*
X13462000Y5562600D03*
%TO.N,+5V*%
X11760200Y-3962400D03*
X8255000Y127000D03*
%TO.N,DI*%
X-1295400Y12268200D03*
X1447800Y12293600D03*
X-6680200Y3937000D03*
%TO.N,+5V*%
X-1803400Y-2336800D03*
%TO.N,GND*%
X-11023600Y7391400D03*
X-10617200Y-7239000D03*
%TO.N,Net-(J5-Pin_2)*%
X-1812312Y-1126512D03*
%TD*%
D40*
%TO.N,DO*%
X2776867Y762000D02*
X2776867Y126959D01*
X2776867Y126959D02*
X2955610Y-51784D01*
X2776867Y1972220D02*
X2776867Y762000D01*
X3543247Y2738600D02*
X2776867Y1972220D01*
X4150100Y2738600D02*
X3543247Y2738600D01*
X1947066Y-9365134D02*
X4354328Y-9365134D01*
X6045200Y-4851400D02*
X5181600Y-3987800D01*
X5181600Y-3987800D02*
X5181600Y-1219200D01*
X1304600Y-10007600D02*
X1947066Y-9365134D01*
X4425532Y2463168D02*
X4150100Y2738600D01*
X4425532Y2133767D02*
X4425532Y2463168D01*
%TO.N,VCC*%
X3500000Y-6000000D02*
X3500000Y-3164000D01*
X3500000Y-3164000D02*
X4191000Y-2473000D01*
%TO.N,DI*%
X749700Y-3086500D02*
X749700Y-2365718D01*
X1231000Y-3567800D02*
X749700Y-3086500D01*
X1951782Y-3567800D02*
X1231000Y-3567800D01*
X2449700Y-3069882D02*
X1951782Y-3567800D01*
X2449700Y-2749019D02*
X2449700Y-3069882D01*
X4829519Y-369200D02*
X2449700Y-2749019D01*
X5533682Y-369200D02*
X4829519Y-369200D01*
X6327900Y-1163418D02*
X5533682Y-369200D01*
X6327900Y-2209800D02*
X6327900Y-1163418D01*
X2076867Y-1038551D02*
X749700Y-2365718D01*
X2173100Y2570535D02*
X2076867Y2474302D01*
X2076867Y2474302D02*
X2076867Y-1038551D01*
X3353910Y5338600D02*
X2950713Y4935403D01*
X4150100Y5338600D02*
X3353910Y5338600D01*
X2875324Y8463324D02*
X2875324Y6613376D01*
X4137352Y9807248D02*
X4394200Y9550400D01*
X2875324Y6613376D02*
X4150100Y5338600D01*
X4137352Y10590850D02*
X4137352Y9807248D01*
%TO.N,Net-(J4-Pin_2)*%
X4636024Y7904000D02*
X1393212Y11146812D01*
X7543800Y7904000D02*
X4636024Y7904000D01*
X-4562098Y8776600D02*
X-5590848Y9805350D01*
X-3585624Y8776600D02*
X-4562098Y8776600D01*
X-1278912Y11083312D02*
X-3585624Y8776600D01*
%TO.N,DO*%
X5000100Y2738600D02*
X4150100Y2738600D01*
X7543800Y5282300D02*
X5000100Y2738600D01*
X7543800Y6604000D02*
X7543800Y5282300D01*
%TO.N,DI*%
X-4010352Y9674552D02*
X-3962400Y9626600D01*
X-4010352Y10717850D02*
X-4010352Y9674552D01*
%TO.N,Net-(D1-DIN)*%
X8800000Y-4000000D02*
X10050000Y-4000000D01*
X8152900Y-2209800D02*
X8152900Y-3352900D01*
X8152900Y-3352900D02*
X8800000Y-4000000D01*
%TO.N,Net-(J6-Pin_2)*%
X4111500Y4000000D02*
X4150100Y4038600D01*
X0Y4000000D02*
X4111500Y4000000D01*
%TO.N,DI*%
X6324600Y-2213100D02*
X6327900Y-2209800D01*
X6324600Y-3708400D02*
X6324600Y-2213100D01*
X7086600Y-4470400D02*
X6324600Y-3708400D01*
X4061152Y-11077248D02*
X2971800Y-12166600D01*
X4061152Y-10692450D02*
X4061152Y-11077248D01*
%TO.N,Net-(D2-DIN)*%
X9500000Y4000000D02*
X10050000Y4000000D01*
X8075300Y2575300D02*
X9500000Y4000000D01*
X8075300Y1498600D02*
X8075300Y2575300D01*
%TO.N,Net-(J5-Pin_2)*%
X11938000Y-127000D02*
X10668000Y1143000D01*
X9569624Y-889000D02*
X9854500Y-1173876D01*
X6146200Y330800D02*
X7366000Y-889000D01*
X7366000Y-889000D02*
X9569624Y-889000D01*
X4539569Y330800D02*
X6146200Y330800D01*
X1599700Y-2609069D02*
X4539569Y330800D01*
X1599700Y-2717800D02*
X1599700Y-2609069D01*
X11938000Y-736600D02*
X11938000Y-127000D01*
%TO.N,+5V*%
X9677400Y1549400D02*
X10050000Y1922000D01*
X9677400Y1398251D02*
X9677400Y1549400D01*
X8406149Y127000D02*
X9677400Y1398251D01*
X8255000Y127000D02*
X8406149Y127000D01*
%TO.N,GND*%
X13906200Y-2400000D02*
X12877800Y-1371600D01*
X14950000Y-2400000D02*
X13906200Y-2400000D01*
X13499400Y5600000D02*
X13462000Y5562600D01*
X14950000Y5600000D02*
X13499400Y5600000D01*
%TO.N,+5V*%
X12200000Y4000000D02*
X10600000Y2400000D01*
X10600000Y2400000D02*
X10050000Y2400000D01*
X14950000Y4000000D02*
X12200000Y4000000D01*
X11797800Y-4000000D02*
X11760200Y-3962400D01*
X14950000Y-4000000D02*
X11797800Y-4000000D01*
X11760200Y-5139800D02*
X11760200Y-3962400D01*
X10050000Y-5600000D02*
X11300000Y-5600000D01*
X11300000Y-5600000D02*
X11760200Y-5139800D01*
X11760200Y-1878200D02*
X11760200Y-3962400D01*
X9755000Y127000D02*
X11760200Y-1878200D01*
X8255000Y127000D02*
X9755000Y127000D01*
X10050000Y2400000D02*
X10050000Y1922000D01*
%TO.N,DI*%
X3476002Y-11277600D02*
X4061152Y-10692450D01*
X-875400Y-11277600D02*
X3476002Y-11277600D01*
X-1295400Y-10857600D02*
X-875400Y-11277600D01*
X-1295400Y-10007600D02*
X-1295400Y-10857600D01*
X-1954850Y-10667050D02*
X-1295400Y-10007600D01*
X-4137352Y-10667050D02*
X-1954850Y-10667050D01*
X3150550Y10590850D02*
X1447800Y12293600D01*
X4137352Y10590850D02*
X3150550Y10590850D01*
X-2845750Y10717850D02*
X-1295400Y12268200D01*
X-4010352Y10717850D02*
X-2845750Y10717850D01*
X-7061200Y4318000D02*
X-6680200Y3937000D01*
X-8077200Y4318000D02*
X-7061200Y4318000D01*
%TO.N,Net-(J5-Pin_2)*%
X-8839200Y1724900D02*
X-4663724Y1724900D01*
X-11855100Y1724900D02*
X-8839200Y1724900D01*
X-8077200Y3018000D02*
X-8077200Y2486900D01*
X-8077200Y2486900D02*
X-8839200Y1724900D01*
%TO.N,Net-(J7-Pin_2)*%
X0Y-6000000D02*
X0Y-10003000D01*
X0Y-10003000D02*
X4600Y-10007600D01*
%TO.N,+5V*%
X-6807200Y787400D02*
X-4927600Y787400D01*
X-4927600Y787400D02*
X-1803400Y-2336800D01*
X-10425600Y787400D02*
X-6807200Y787400D01*
%TO.N,Net-(D4-K)*%
X-10425600Y4297100D02*
X-10414000Y4308700D01*
X-10425600Y2662400D02*
X-10425600Y4297100D01*
%TO.N,Net-(D3-K)*%
X-10425600Y-2641600D02*
X-10425600Y-4296800D01*
%TO.N,GND*%
X-10414000Y6781800D02*
X-11023600Y7391400D01*
X-10414000Y6133700D02*
X-10414000Y6781800D01*
X-10425600Y-7047400D02*
X-10617200Y-7239000D01*
X-10425600Y-6121800D02*
X-10425600Y-7047400D01*
%TO.N,Net-(J5-Pin_2)*%
X-13540000Y40000D02*
X-11855100Y1724900D01*
X-4663724Y1724900D02*
X-1812312Y-1126512D01*
%TO.N,Net-(J4-Pin_2)*%
X-5590848Y10601473D02*
X-6735359Y11745984D01*
X-5590848Y9805350D02*
X-5590848Y10601473D01*
%TO.N,Net-(J1-Pin_2)*%
X5641648Y-10652273D02*
X6735359Y-11745984D01*
X5641648Y-9779950D02*
X5641648Y-10652273D01*
%TO.N,Net-(J3-Pin_2)*%
X-5717848Y-9754550D02*
X-5717848Y-10619191D01*
X-5717848Y-10619191D02*
X-6804641Y-11705984D01*
%TO.N,Net-(J2-Pin_2)*%
X5717848Y10619191D02*
X6804641Y11705984D01*
X5717848Y9678350D02*
X5717848Y10619191D01*
%TD*%
%TA.AperFunction,Conductor*%
%TO.N,VCC*%
G36*
X227622Y17494573D02*
G01*
X602571Y17485637D01*
X605478Y17485533D01*
X1054330Y17464293D01*
X1057326Y17464115D01*
X1431344Y17437331D01*
X1434196Y17437094D01*
X1881626Y17394653D01*
X1884657Y17394328D01*
X2256975Y17349755D01*
X2259766Y17349388D01*
X2704660Y17285851D01*
X2707717Y17285376D01*
X3077431Y17223127D01*
X3080157Y17222637D01*
X3521682Y17138117D01*
X3524759Y17137487D01*
X3890964Y17057720D01*
X3893617Y17057112D01*
X4330787Y16951785D01*
X4333876Y16950998D01*
X4695720Y16853914D01*
X4698297Y16853193D01*
X5130088Y16727295D01*
X5133180Y16726349D01*
X5489929Y16612155D01*
X5492425Y16611327D01*
X5917865Y16465131D01*
X5920953Y16464024D01*
X6271734Y16333010D01*
X6274144Y16332081D01*
X6692331Y16165886D01*
X6695406Y16164616D01*
X7039431Y16017087D01*
X7041751Y16016064D01*
X7451687Y15830256D01*
X7454741Y15828822D01*
X7791286Y15665102D01*
X7793514Y15663990D01*
X8194357Y15458937D01*
X8197379Y15457338D01*
X8525529Y15277886D01*
X8527661Y15276692D01*
X8918513Y15052836D01*
X8921497Y15051072D01*
X9240600Y14856265D01*
X9242633Y14854996D01*
X9622651Y14612800D01*
X9625587Y14610870D01*
X9934781Y14401263D01*
X9936714Y14399926D01*
X10305110Y14139861D01*
X10307988Y14137767D01*
X10606661Y13913805D01*
X10608491Y13912406D01*
X10964361Y13635079D01*
X10967173Y13632821D01*
X11254609Y13395073D01*
X11256335Y13393619D01*
X11598961Y13099556D01*
X11601697Y13097136D01*
X11877223Y12846197D01*
X11878844Y12844694D01*
X12207392Y12534572D01*
X12210044Y12531993D01*
X12473105Y12268409D01*
X12474620Y12266864D01*
X12788350Y11941343D01*
X12790909Y11938607D01*
X13040885Y11663043D01*
X13042294Y11661463D01*
X13340522Y11321210D01*
X13342978Y11318320D01*
X13579317Y11031431D01*
X13580620Y11029822D01*
X13862673Y10675550D01*
X13865017Y10672510D01*
X14087143Y10375059D01*
X14088341Y10373427D01*
X14353596Y10005854D01*
X14355820Y10002668D01*
X14563269Y9695346D01*
X14564362Y9693699D01*
X14812171Y9313656D01*
X14814267Y9310328D01*
X15006633Y8993811D01*
X15007623Y8992153D01*
X15237425Y8600423D01*
X15239383Y8596960D01*
X15416192Y8272114D01*
X15417080Y8270452D01*
X15628361Y7867817D01*
X15630173Y7864223D01*
X15791045Y7531861D01*
X15791833Y7530200D01*
X15984101Y7117483D01*
X15985760Y7113765D01*
X16130382Y6774661D01*
X16131073Y6773008D01*
X16303838Y6351127D01*
X16305335Y6347290D01*
X16433415Y6002279D01*
X16434011Y6000639D01*
X16586856Y5570461D01*
X16588184Y5566514D01*
X16699502Y5216357D01*
X16700005Y5214735D01*
X16832508Y4777279D01*
X16833661Y4773228D01*
X16927995Y4418825D01*
X16928409Y4417226D01*
X17040277Y3973238D01*
X17041246Y3969092D01*
X17118390Y3611518D01*
X17118719Y3609947D01*
X17209659Y3160268D01*
X17210438Y3156035D01*
X17270314Y2796056D01*
X17270560Y2794517D01*
X17340271Y2340207D01*
X17340856Y2335895D01*
X17383427Y1974214D01*
X17383594Y1972712D01*
X17431830Y1514891D01*
X17432214Y1510510D01*
X17457439Y1148179D01*
X17457532Y1146716D01*
X17484134Y686059D01*
X17484310Y681619D01*
X17492219Y319656D01*
X17492242Y318237D01*
X17497052Y-144238D01*
X17497018Y-148729D01*
X17487701Y-509573D01*
X17487658Y-510945D01*
X17470560Y-974288D01*
X17470309Y-978818D01*
X17443903Y-1337552D01*
X17443799Y-1338873D01*
X17404721Y-1802079D01*
X17404251Y-1806639D01*
X17360933Y-2162485D01*
X17360772Y-2163754D01*
X17299676Y-2625852D01*
X17298984Y-2630430D01*
X17239019Y-2982307D01*
X17238805Y-2983522D01*
X17155652Y-3443773D01*
X17154735Y-3448358D01*
X17078422Y-3795396D01*
X17078161Y-3796554D01*
X16973001Y-4253865D01*
X16971855Y-4258446D01*
X16879511Y-4599920D01*
X16879221Y-4600974D01*
X16839816Y-4741546D01*
X16752118Y-5054393D01*
X16750742Y-5058960D01*
X16642781Y-5393944D01*
X16642441Y-5394983D01*
X16493494Y-5843556D01*
X16491888Y-5848096D01*
X16368819Y-6175620D01*
X16368447Y-6176599D01*
X16197707Y-6619595D01*
X16195869Y-6624097D01*
X16058206Y-6943365D01*
X16057806Y-6944282D01*
X15865448Y-7380684D01*
X15863380Y-7385136D01*
X15711689Y-7695385D01*
X15711266Y-7696240D01*
X15497439Y-8125181D01*
X15495140Y-8129571D01*
X15330257Y-8429663D01*
X15329818Y-8430457D01*
X15094509Y-8851399D01*
X15091980Y-8855715D01*
X14914522Y-9145109D01*
X14914070Y-9145841D01*
X14657603Y-9557637D01*
X14654847Y-9561867D01*
X14465665Y-9839744D01*
X14465204Y-9840416D01*
X14187643Y-10242404D01*
X14184663Y-10246537D01*
X13984774Y-10512007D01*
X13984310Y-10512619D01*
X13685739Y-10904080D01*
X13682537Y-10908102D01*
X13473011Y-11160397D01*
X13472549Y-11160951D01*
X13152995Y-11541209D01*
X13149574Y-11545110D01*
X12931594Y-11783495D01*
X12931138Y-11783992D01*
X12590627Y-12152336D01*
X12586993Y-12156104D01*
X12361724Y-12380035D01*
X12361278Y-12380476D01*
X11999906Y-12736084D01*
X11996063Y-12739708D01*
X11765311Y-12948200D01*
X11764878Y-12948589D01*
X11382110Y-13291183D01*
X11378065Y-13294650D01*
X11143725Y-13486920D01*
X11143311Y-13487258D01*
X10738686Y-13816333D01*
X10734444Y-13819633D01*
X10498592Y-13995030D01*
X10498199Y-13995321D01*
X10071085Y-14310351D01*
X10066653Y-14313473D01*
X9831782Y-14471339D01*
X9831415Y-14471584D01*
X9380767Y-14772156D01*
X9376153Y-14775089D01*
X9145988Y-14914350D01*
X9145649Y-14914554D01*
X8669320Y-15200684D01*
X8664531Y-15203418D01*
X8443657Y-15323069D01*
X8443350Y-15323235D01*
X7938304Y-15594991D01*
X7933350Y-15597515D01*
X7727946Y-15696434D01*
X7727673Y-15696565D01*
X7189437Y-15954152D01*
X7184327Y-15956457D01*
X7003280Y-16033247D01*
X7003044Y-16033347D01*
X6424368Y-16277379D01*
X6419110Y-16279456D01*
X6276952Y-16331910D01*
X6276755Y-16331983D01*
X5644830Y-16563938D01*
X5639436Y-16565778D01*
X5562522Y-16590062D01*
X5562366Y-16590111D01*
X4853447Y-16812913D01*
X4847814Y-16814538D01*
X4053335Y-17023527D01*
X4047632Y-17024884D01*
X3244149Y-17196091D01*
X3238387Y-17197177D01*
X2554994Y-17309324D01*
X2488890Y-17302104D01*
X2436022Y-17261770D01*
X2411593Y-17199923D01*
X2393196Y-17024886D01*
X2379411Y-16893732D01*
X2379408Y-16893726D01*
X2371797Y-16821317D01*
X2322290Y-16684150D01*
X2241395Y-16562818D01*
X2133813Y-16464370D01*
X2127232Y-16460779D01*
X2127227Y-16460776D01*
X2012384Y-16398122D01*
X2012383Y-16398121D01*
X2005798Y-16394529D01*
X1979572Y-16387615D01*
X1955126Y-16381170D01*
X1864789Y-16357354D01*
X1857291Y-16357233D01*
X1857290Y-16357233D01*
X1726482Y-16355125D01*
X1726474Y-16355125D01*
X1718980Y-16355005D01*
X1711669Y-16356682D01*
X1711664Y-16356683D01*
X1584158Y-16385940D01*
X1584154Y-16385941D01*
X1576847Y-16387618D01*
X1570152Y-16390995D01*
X1570150Y-16390996D01*
X1453345Y-16449919D01*
X1453341Y-16449921D01*
X1446648Y-16453298D01*
X1440955Y-16458179D01*
X1440952Y-16458182D01*
X1341647Y-16543342D01*
X1341641Y-16543348D01*
X1335951Y-16548228D01*
X1331594Y-16554327D01*
X1331589Y-16554333D01*
X1255549Y-16660786D01*
X1255547Y-16660789D01*
X1251188Y-16666892D01*
X1248417Y-16673856D01*
X1248414Y-16673863D01*
X1200059Y-16795422D01*
X1200057Y-16795426D01*
X1197287Y-16802392D01*
X1196263Y-16809817D01*
X1196262Y-16809824D01*
X1184702Y-16893719D01*
X1177380Y-16946854D01*
X1178163Y-16954306D01*
X1178163Y-16954314D01*
X1184988Y-17019260D01*
X1184989Y-17019268D01*
X1184989Y-17019270D01*
X1214716Y-17302105D01*
X1217226Y-17325981D01*
X1206193Y-17391550D01*
X1162874Y-17441993D01*
X1099725Y-17462806D01*
X511741Y-17490433D01*
X508105Y-17490551D01*
X246517Y-17495159D01*
X244333Y-17495178D01*
X-244333Y-17495178D01*
X-246517Y-17495159D01*
X-508105Y-17490551D01*
X-511741Y-17490433D01*
X-1099725Y-17462806D01*
X-1162874Y-17441993D01*
X-1206193Y-17391550D01*
X-1217226Y-17325981D01*
X-1214716Y-17302105D01*
X-1184989Y-17019270D01*
X-1184989Y-17019268D01*
X-1184988Y-17019260D01*
X-1178161Y-16954312D01*
X-1178161Y-16954304D01*
X-1177378Y-16946854D01*
X-1179776Y-16929452D01*
X-1196261Y-16809824D01*
X-1196262Y-16809818D01*
X-1197286Y-16802391D01*
X-1200056Y-16795427D01*
X-1200058Y-16795420D01*
X-1248413Y-16673861D01*
X-1248416Y-16673854D01*
X-1251187Y-16666890D01*
X-1255543Y-16660790D01*
X-1255548Y-16660783D01*
X-1331587Y-16554331D01*
X-1331592Y-16554325D01*
X-1335949Y-16548226D01*
X-1341639Y-16543346D01*
X-1341645Y-16543340D01*
X-1440951Y-16458179D01*
X-1440954Y-16458176D01*
X-1446647Y-16453295D01*
X-1453340Y-16449918D01*
X-1453344Y-16449916D01*
X-1570150Y-16390992D01*
X-1570155Y-16390989D01*
X-1576846Y-16387615D01*
X-1584153Y-16385938D01*
X-1584157Y-16385937D01*
X-1711664Y-16356680D01*
X-1711669Y-16356679D01*
X-1718980Y-16355002D01*
X-1726475Y-16355122D01*
X-1726483Y-16355122D01*
X-1857290Y-16357230D01*
X-1857291Y-16357230D01*
X-1864789Y-16357351D01*
X-2005799Y-16394527D01*
X-2012384Y-16398119D01*
X-2012385Y-16398120D01*
X-2071419Y-16430327D01*
X-2133815Y-16464368D01*
X-2174416Y-16501522D01*
X-2235864Y-16557753D01*
X-2235866Y-16557755D01*
X-2241396Y-16562816D01*
X-2322291Y-16684149D01*
X-2371799Y-16821316D01*
X-2379408Y-16893719D01*
X-2379409Y-16893725D01*
X-2379411Y-16893732D01*
X-2411593Y-17199923D01*
X-2436022Y-17261771D01*
X-2488890Y-17302105D01*
X-2554994Y-17309325D01*
X-3238383Y-17197178D01*
X-3244145Y-17196092D01*
X-4047628Y-17024886D01*
X-4053331Y-17023529D01*
X-4847817Y-16814539D01*
X-4853450Y-16812914D01*
X-5562373Y-16590111D01*
X-5562529Y-16590062D01*
X-5639439Y-16565779D01*
X-5644833Y-16563939D01*
X-6276602Y-16332041D01*
X-6276799Y-16331968D01*
X-6419122Y-16279453D01*
X-6424379Y-16277376D01*
X-7002462Y-16033595D01*
X-7002699Y-16033495D01*
X-7184351Y-15956448D01*
X-7189461Y-15954143D01*
X-7727337Y-15696729D01*
X-7727610Y-15696598D01*
X-7933365Y-15597510D01*
X-7938319Y-15594986D01*
X-8443102Y-15323371D01*
X-8443410Y-15323205D01*
X-8664539Y-15203415D01*
X-8669327Y-15200681D01*
X-9145646Y-14914558D01*
X-9145985Y-14914354D01*
X-9376151Y-14775093D01*
X-9380765Y-14772161D01*
X-9831591Y-14471471D01*
X-9831958Y-14471224D01*
X-10066636Y-14313487D01*
X-10071068Y-14310366D01*
X-10498186Y-13995334D01*
X-10498579Y-13995043D01*
X-10734443Y-13819637D01*
X-10738685Y-13816337D01*
X-11143309Y-13487263D01*
X-11143723Y-13486925D01*
X-11378063Y-13294655D01*
X-11382108Y-13291188D01*
X-11764864Y-12948605D01*
X-11765297Y-12948216D01*
X-11996049Y-12739724D01*
X-11999891Y-12736101D01*
X-12361430Y-12380331D01*
X-12361877Y-12379889D01*
X-12586981Y-12156121D01*
X-12590615Y-12152353D01*
X-12931169Y-11783963D01*
X-12931625Y-11783466D01*
X-13149573Y-11545116D01*
X-13152994Y-11541215D01*
X-13472585Y-11160912D01*
X-13473047Y-11160358D01*
X-13682528Y-10908118D01*
X-13685730Y-10904096D01*
X-13786619Y-10771819D01*
X-10357324Y-10771819D01*
X-10340237Y-10914723D01*
X-10283583Y-11047026D01*
X-10191949Y-11158006D01*
X-10143529Y-11193362D01*
X-9021381Y-11841233D01*
X-8966552Y-11865489D01*
X-8824623Y-11889357D01*
X-8681719Y-11872269D01*
X-8673570Y-11868779D01*
X-8673568Y-11868779D01*
X-8669038Y-11866839D01*
X-7971395Y-11866839D01*
X-7941484Y-12074869D01*
X-7872745Y-12273481D01*
X-7767660Y-12455493D01*
X-7630028Y-12614329D01*
X-7464823Y-12744248D01*
X-7278017Y-12840553D01*
X-7076360Y-12899765D01*
X-6867142Y-12919743D01*
X-6657924Y-12899765D01*
X-6456267Y-12840553D01*
X-6269460Y-12744248D01*
X-6104255Y-12614330D01*
X-6076470Y-12582264D01*
X-5970489Y-12459956D01*
X-5970487Y-12459953D01*
X-5966623Y-12455494D01*
X-5886069Y-12315970D01*
X-5764343Y-12105136D01*
X-5764337Y-12105124D01*
X-5762868Y-12102580D01*
X-5761647Y-12099908D01*
X-5761641Y-12099895D01*
X-5699890Y-11964678D01*
X-5697437Y-11959307D01*
X-5680212Y-11888303D01*
X-5649280Y-11760800D01*
X-5649279Y-11760797D01*
X-5647888Y-11755061D01*
X-5645130Y-11697168D01*
X-5638167Y-11551019D01*
X-5638167Y-11551012D01*
X-5637887Y-11545129D01*
X-5638725Y-11539296D01*
X-5638726Y-11539288D01*
X-5666524Y-11345952D01*
X-5661440Y-11289146D01*
X-5631467Y-11240624D01*
X-5411419Y-11020576D01*
X-5400809Y-11012026D01*
X-5400885Y-11011939D01*
X-5394176Y-11006125D01*
X-5386720Y-11001334D01*
X-5380915Y-10994635D01*
X-5380913Y-10994633D01*
X-5354202Y-10963806D01*
X-5348170Y-10957327D01*
X-5341763Y-10950920D01*
X-5338628Y-10947785D01*
X-5335971Y-10944236D01*
X-5335967Y-10944231D01*
X-5330543Y-10936985D01*
X-5324987Y-10930089D01*
X-5321137Y-10925646D01*
X-5304864Y-10906866D01*
X-5258877Y-10873622D01*
X-5202895Y-10864345D01*
X-5148642Y-10880979D01*
X-5107480Y-10920040D01*
X-5088029Y-10973348D01*
X-5078101Y-11056382D01*
X-5021446Y-11188685D01*
X-4929812Y-11299665D01*
X-4881393Y-11335021D01*
X-4343811Y-11645392D01*
X-4288983Y-11669648D01*
X-4147054Y-11693516D01*
X-4004149Y-11676428D01*
X-3996000Y-11672938D01*
X-3995998Y-11672938D01*
X-3879995Y-11623263D01*
X-3871847Y-11619774D01*
X-3860897Y-11610733D01*
X-3766846Y-11533078D01*
X-3766843Y-11533075D01*
X-3760866Y-11528140D01*
X-3756292Y-11521877D01*
X-3756290Y-11521874D01*
X-3727471Y-11482405D01*
X-3725511Y-11479721D01*
X-3581074Y-11229549D01*
X-3535688Y-11184163D01*
X-3473688Y-11167550D01*
X-2021994Y-11167550D01*
X-2008444Y-11169006D01*
X-2008436Y-11168891D01*
X-1999589Y-11169523D01*
X-1990923Y-11171409D01*
X-1941388Y-11167865D01*
X-1932542Y-11167550D01*
X-1923486Y-11167550D01*
X-1919051Y-11167550D01*
X-1905687Y-11165628D01*
X-1896902Y-11164683D01*
X-1847367Y-11161141D01*
X-1839054Y-11158040D01*
X-1830390Y-11156156D01*
X-1830365Y-11156270D01*
X-1829650Y-11156088D01*
X-1829684Y-11155976D01*
X-1821174Y-11153477D01*
X-1812393Y-11152215D01*
X-1804322Y-11148529D01*
X-1803072Y-11148162D01*
X-1756345Y-11143701D01*
X-1711308Y-11156928D01*
X-1675363Y-11185200D01*
X-1674621Y-11186193D01*
X-1667451Y-11193362D01*
X-1665074Y-11195739D01*
X-1659053Y-11202204D01*
X-1626528Y-11239743D01*
X-1619067Y-11244537D01*
X-1612361Y-11250349D01*
X-1612436Y-11250436D01*
X-1601830Y-11258982D01*
X-1276782Y-11584030D01*
X-1268236Y-11594636D01*
X-1268149Y-11594561D01*
X-1262337Y-11601267D01*
X-1257543Y-11608728D01*
X-1220004Y-11641253D01*
X-1213542Y-11647270D01*
X-1203993Y-11656821D01*
X-1193175Y-11664918D01*
X-1186303Y-11670455D01*
X-1148773Y-11702977D01*
X-1140701Y-11706662D01*
X-1133245Y-11711455D01*
X-1133308Y-11711554D01*
X-1132674Y-11711930D01*
X-1132619Y-11711828D01*
X-1124833Y-11716078D01*
X-1117731Y-11721396D01*
X-1071187Y-11738755D01*
X-1063047Y-11742126D01*
X-1017857Y-11762765D01*
X-1009075Y-11764027D01*
X-1000569Y-11766525D01*
X-1000602Y-11766637D01*
X-999884Y-11766820D01*
X-999860Y-11766706D01*
X-991193Y-11768590D01*
X-982883Y-11771691D01*
X-933349Y-11775233D01*
X-924562Y-11776178D01*
X-911199Y-11778100D01*
X-897708Y-11778100D01*
X-888861Y-11778415D01*
X-839327Y-11781959D01*
X-830660Y-11780073D01*
X-821814Y-11779441D01*
X-821805Y-11779556D01*
X-808256Y-11778100D01*
X2243783Y-11778100D01*
X2301409Y-11792303D01*
X2345833Y-11831660D01*
X2366879Y-11887153D01*
X2359725Y-11946070D01*
X2338224Y-12002764D01*
X2338222Y-12002768D01*
X2335563Y-12009782D01*
X2334659Y-12017222D01*
X2334658Y-12017229D01*
X2324295Y-12102580D01*
X2316522Y-12166600D01*
X2317426Y-12174045D01*
X2334658Y-12315970D01*
X2334659Y-12315975D01*
X2335563Y-12323418D01*
X2338222Y-12330431D01*
X2338223Y-12330432D01*
X2387344Y-12459955D01*
X2391580Y-12471123D01*
X2395843Y-12477299D01*
X2468297Y-12582268D01*
X2481317Y-12601130D01*
X2599560Y-12705883D01*
X2739435Y-12779296D01*
X2892815Y-12817100D01*
X3043285Y-12817100D01*
X3050785Y-12817100D01*
X3088317Y-12807849D01*
X3143335Y-12806862D01*
X3193361Y-12829777D01*
X3228547Y-12872082D01*
X3229453Y-12873866D01*
X3230798Y-12876906D01*
X3232454Y-12879774D01*
X3232460Y-12879786D01*
X4002012Y-14212687D01*
X4003671Y-14215560D01*
X4005616Y-14218224D01*
X4005624Y-14218236D01*
X4034451Y-14257716D01*
X4034453Y-14257718D01*
X4039026Y-14263981D01*
X4045003Y-14268916D01*
X4045006Y-14268919D01*
X4143171Y-14349971D01*
X4150007Y-14355615D01*
X4158155Y-14359104D01*
X4274158Y-14408779D01*
X4274160Y-14408779D01*
X4282309Y-14412269D01*
X4425213Y-14429357D01*
X4567142Y-14405489D01*
X4621971Y-14381235D01*
X5744118Y-13733361D01*
X5792539Y-13698006D01*
X5884173Y-13587026D01*
X5940827Y-13454723D01*
X5957914Y-13311819D01*
X5934047Y-13169890D01*
X5909792Y-13115062D01*
X5136919Y-11776408D01*
X5134970Y-11773739D01*
X5134965Y-11773731D01*
X5106138Y-11734251D01*
X5106136Y-11734249D01*
X5101564Y-11727987D01*
X5095585Y-11723050D01*
X5095583Y-11723048D01*
X4997418Y-11641996D01*
X4997415Y-11641994D01*
X4990583Y-11636353D01*
X4982436Y-11632864D01*
X4982434Y-11632863D01*
X4866428Y-11583187D01*
X4866423Y-11583185D01*
X4858281Y-11579699D01*
X4849483Y-11578646D01*
X4848789Y-11578461D01*
X4789877Y-11542910D01*
X4758988Y-11481426D01*
X4765632Y-11412940D01*
X4807762Y-11358543D01*
X4853612Y-11325065D01*
X4945246Y-11214085D01*
X5001901Y-11081782D01*
X5011022Y-11005498D01*
X5030473Y-10952190D01*
X5071635Y-10913129D01*
X5125888Y-10896495D01*
X5181871Y-10905772D01*
X5227857Y-10939017D01*
X5243723Y-10957327D01*
X5248783Y-10963167D01*
X5254336Y-10970058D01*
X5262427Y-10980866D01*
X5265563Y-10984002D01*
X5265564Y-10984003D01*
X5271970Y-10990409D01*
X5278002Y-10996888D01*
X5304713Y-11027715D01*
X5304715Y-11027717D01*
X5310520Y-11034416D01*
X5317976Y-11039207D01*
X5324685Y-11045021D01*
X5324609Y-11045108D01*
X5335219Y-11053658D01*
X5565161Y-11283600D01*
X5596864Y-11337763D01*
X5597985Y-11400513D01*
X5579999Y-11474657D01*
X5579997Y-11474664D01*
X5578606Y-11480402D01*
X5578325Y-11486298D01*
X5578325Y-11486299D01*
X5568885Y-11684442D01*
X5568885Y-11684449D01*
X5568605Y-11690334D01*
X5569443Y-11696167D01*
X5569444Y-11696173D01*
X5597674Y-11892513D01*
X5597675Y-11892518D01*
X5598516Y-11898365D01*
X5600448Y-11903947D01*
X5600449Y-11903951D01*
X5634649Y-12002764D01*
X5667256Y-12096975D01*
X5670211Y-12102093D01*
X5846242Y-12406989D01*
X5871011Y-12449889D01*
X5962374Y-12578190D01*
X6114482Y-12723224D01*
X6291288Y-12836851D01*
X6486403Y-12914962D01*
X6658854Y-12948200D01*
X6686979Y-12953621D01*
X6686980Y-12953621D01*
X6692775Y-12954738D01*
X6897042Y-12954738D01*
X6902945Y-12954738D01*
X7109317Y-12914963D01*
X7304432Y-12836850D01*
X7481239Y-12723224D01*
X7633346Y-12578189D01*
X7755256Y-12406989D01*
X7842563Y-12215813D01*
X7892112Y-12011566D01*
X7902113Y-11801634D01*
X7872202Y-11593604D01*
X7803462Y-11394993D01*
X7599707Y-11042079D01*
X7508344Y-10913778D01*
X7453540Y-10861522D01*
X7360514Y-10772822D01*
X7360513Y-10772821D01*
X7356237Y-10768744D01*
X7345913Y-10762109D01*
X7184405Y-10658314D01*
X7184403Y-10658313D01*
X7179430Y-10655117D01*
X7173946Y-10652921D01*
X7173943Y-10652920D01*
X6989797Y-10579200D01*
X6989791Y-10579198D01*
X6984315Y-10577006D01*
X6978520Y-10575889D01*
X6978513Y-10575887D01*
X6783739Y-10538348D01*
X6783738Y-10538347D01*
X6777943Y-10537231D01*
X6772050Y-10537230D01*
X6772040Y-10537230D01*
X6594363Y-10537230D01*
X6527946Y-10517942D01*
X6482190Y-10466079D01*
X6471331Y-10397775D01*
X6498744Y-10334282D01*
X6525742Y-10301585D01*
X6582397Y-10169282D01*
X6599484Y-10026378D01*
X6575617Y-9884449D01*
X6551362Y-9829621D01*
X6053489Y-8967281D01*
X6051540Y-8964612D01*
X6051535Y-8964604D01*
X6022708Y-8925124D01*
X6022706Y-8925122D01*
X6018134Y-8918860D01*
X6012155Y-8913923D01*
X6012153Y-8913921D01*
X5913988Y-8832869D01*
X5913985Y-8832867D01*
X5907153Y-8827226D01*
X5899006Y-8823737D01*
X5899004Y-8823736D01*
X5783001Y-8774061D01*
X5782994Y-8774059D01*
X5774851Y-8770572D01*
X5766048Y-8769519D01*
X5766047Y-8769519D01*
X5640752Y-8754537D01*
X5631946Y-8753484D01*
X5623205Y-8754953D01*
X5623199Y-8754954D01*
X5497664Y-8776065D01*
X5497656Y-8776067D01*
X5490017Y-8777352D01*
X5482926Y-8780488D01*
X5482925Y-8780489D01*
X5438229Y-8800260D01*
X5438210Y-8800269D01*
X5435189Y-8801606D01*
X5432327Y-8803258D01*
X5432308Y-8803268D01*
X5048442Y-9024894D01*
X4989771Y-9041462D01*
X4930296Y-9028067D01*
X4884392Y-8987947D01*
X4849070Y-8936774D01*
X4849069Y-8936773D01*
X4844811Y-8930604D01*
X4810054Y-8899812D01*
X4732184Y-8830826D01*
X4732180Y-8830823D01*
X4726568Y-8825851D01*
X4719923Y-8822363D01*
X4719921Y-8822362D01*
X4593334Y-8755923D01*
X4593330Y-8755921D01*
X4586693Y-8752438D01*
X4579415Y-8750644D01*
X4579412Y-8750643D01*
X4440595Y-8716428D01*
X4440588Y-8716427D01*
X4433313Y-8714634D01*
X4275343Y-8714634D01*
X4268068Y-8716426D01*
X4268060Y-8716428D01*
X4129243Y-8750643D01*
X4129237Y-8750644D01*
X4121963Y-8752438D01*
X4115328Y-8755920D01*
X4115321Y-8755923D01*
X3988731Y-8822364D01*
X3988728Y-8822365D01*
X3982088Y-8825851D01*
X3973510Y-8833450D01*
X3935257Y-8856576D01*
X3891285Y-8864634D01*
X2014210Y-8864634D01*
X2000660Y-8863177D01*
X2000652Y-8863293D01*
X1991803Y-8862659D01*
X1983139Y-8860775D01*
X1974297Y-8861407D01*
X1974292Y-8861407D01*
X1933605Y-8864318D01*
X1924758Y-8864634D01*
X1911267Y-8864634D01*
X1906885Y-8865263D01*
X1906883Y-8865264D01*
X1897910Y-8866554D01*
X1889120Y-8867499D01*
X1848428Y-8870410D01*
X1848426Y-8870410D01*
X1839583Y-8871043D01*
X1831274Y-8874141D01*
X1822611Y-8876026D01*
X1822586Y-8875913D01*
X1821860Y-8876098D01*
X1821893Y-8876209D01*
X1813385Y-8878706D01*
X1804609Y-8879969D01*
X1796548Y-8883650D01*
X1796542Y-8883652D01*
X1759432Y-8900600D01*
X1751262Y-8903983D01*
X1738519Y-8908736D01*
X1713045Y-8918238D01*
X1713042Y-8918239D01*
X1704735Y-8921338D01*
X1697634Y-8926653D01*
X1689853Y-8930902D01*
X1689798Y-8930801D01*
X1689157Y-8931182D01*
X1689219Y-8931278D01*
X1681755Y-8936074D01*
X1673693Y-8939757D01*
X1666996Y-8945559D01*
X1666991Y-8945563D01*
X1636173Y-8972266D01*
X1629296Y-8977808D01*
X1622026Y-8983251D01*
X1622008Y-8983266D01*
X1618473Y-8985913D01*
X1615352Y-8989033D01*
X1615332Y-8989051D01*
X1611308Y-8993075D01*
X1554297Y-9025532D01*
X1488705Y-9024359D01*
X1452694Y-9013785D01*
X1452686Y-9013783D01*
X1448445Y-9012538D01*
X1444068Y-9011908D01*
X1444065Y-9011908D01*
X1380868Y-9002821D01*
X1380859Y-9002820D01*
X1376489Y-9002192D01*
X754600Y-9002192D01*
X748625Y-9003380D01*
X748620Y-9003381D01*
X656860Y-9021634D01*
X656522Y-9019935D01*
X629600Y-9025287D01*
X602689Y-9019937D01*
X602352Y-9021637D01*
X602341Y-9021634D01*
X602340Y-9021634D01*
X600316Y-9021231D01*
X593371Y-9018085D01*
X582173Y-9015859D01*
X579105Y-9014589D01*
X580139Y-9012090D01*
X549019Y-8997993D01*
X513289Y-8954460D01*
X500500Y-8899613D01*
X500500Y-7874444D01*
X510512Y-7825631D01*
X538930Y-7784701D01*
X581166Y-7758262D01*
X770689Y-7687574D01*
X1003011Y-7560716D01*
X1214915Y-7402087D01*
X1402087Y-7214915D01*
X1560716Y-7003011D01*
X1687574Y-6770689D01*
X1780077Y-6522678D01*
X1836343Y-6264026D01*
X1855227Y-6000000D01*
X1836343Y-5735974D01*
X1780077Y-5477322D01*
X1687574Y-5229311D01*
X1560716Y-4996989D01*
X1402087Y-4785085D01*
X1214915Y-4597913D01*
X1003011Y-4439284D01*
X993755Y-4434230D01*
X804939Y-4331128D01*
X770689Y-4312426D01*
X766546Y-4310880D01*
X766540Y-4310878D01*
X526831Y-4221472D01*
X522678Y-4219923D01*
X518346Y-4218980D01*
X518344Y-4218980D01*
X268359Y-4164599D01*
X268351Y-4164597D01*
X264026Y-4163657D01*
X259612Y-4163341D01*
X259603Y-4163340D01*
X4418Y-4145089D01*
X0Y-4144773D01*
X-4418Y-4145089D01*
X-259603Y-4163340D01*
X-259612Y-4163341D01*
X-264026Y-4163657D01*
X-268351Y-4164597D01*
X-268359Y-4164599D01*
X-518344Y-4218980D01*
X-518346Y-4218980D01*
X-522678Y-4219923D01*
X-526831Y-4221472D01*
X-766540Y-4310878D01*
X-766546Y-4310880D01*
X-770689Y-4312426D01*
X-804939Y-4331128D01*
X-993755Y-4434230D01*
X-1003011Y-4439284D01*
X-1214915Y-4597913D01*
X-1402087Y-4785085D01*
X-1560716Y-4996989D01*
X-1619000Y-5103727D01*
X-1641168Y-5144325D01*
X-1686727Y-5191540D01*
X-1750000Y-5208898D01*
X-1813273Y-5191540D01*
X-1858832Y-5144325D01*
X-1937157Y-5000883D01*
X-1937161Y-5000875D01*
X-1939284Y-4996989D01*
X-1941944Y-4993435D01*
X-2095254Y-4788636D01*
X-2095259Y-4788629D01*
X-2097913Y-4785085D01*
X-2101043Y-4781954D01*
X-2101050Y-4781947D01*
X-2281947Y-4601050D01*
X-2281954Y-4601043D01*
X-2285085Y-4597913D01*
X-2288629Y-4595259D01*
X-2288636Y-4595254D01*
X-2493435Y-4441944D01*
X-2493439Y-4441941D01*
X-2496989Y-4439284D01*
X-2500875Y-4437161D01*
X-2500883Y-4437157D01*
X-2725424Y-4314548D01*
X-2725429Y-4314545D01*
X-2729311Y-4312426D01*
X-2733448Y-4310882D01*
X-2733459Y-4310878D01*
X-2973168Y-4221472D01*
X-2973172Y-4221470D01*
X-2977322Y-4219923D01*
X-2981649Y-4218981D01*
X-2981655Y-4218980D01*
X-3231640Y-4164599D01*
X-3231650Y-4164597D01*
X-3235974Y-4163657D01*
X-3240385Y-4163341D01*
X-3240396Y-4163340D01*
X-3495582Y-4145089D01*
X-3500000Y-4144773D01*
X-3504418Y-4145089D01*
X-3759603Y-4163340D01*
X-3759612Y-4163341D01*
X-3764026Y-4163657D01*
X-3768351Y-4164597D01*
X-3768359Y-4164599D01*
X-4018344Y-4218980D01*
X-4018346Y-4218980D01*
X-4022678Y-4219923D01*
X-4026831Y-4221472D01*
X-4266540Y-4310878D01*
X-4266546Y-4310880D01*
X-4270689Y-4312426D01*
X-4304939Y-4331128D01*
X-4493755Y-4434230D01*
X-4503011Y-4439284D01*
X-4714915Y-4597913D01*
X-4902087Y-4785085D01*
X-5060716Y-4996989D01*
X-5187574Y-5229311D01*
X-5280077Y-5477322D01*
X-5336343Y-5735974D01*
X-5355227Y-6000000D01*
X-5336343Y-6264026D01*
X-5280077Y-6522678D01*
X-5187574Y-6770689D01*
X-5060716Y-7003011D01*
X-4902087Y-7214915D01*
X-4714915Y-7402087D01*
X-4503011Y-7560716D01*
X-4270689Y-7687574D01*
X-4022678Y-7780077D01*
X-3764026Y-7836343D01*
X-3500000Y-7855227D01*
X-3235974Y-7836343D01*
X-2977322Y-7780077D01*
X-2729311Y-7687574D01*
X-2496989Y-7560716D01*
X-2285085Y-7402087D01*
X-2097913Y-7214915D01*
X-1939284Y-7003011D01*
X-1934138Y-6993588D01*
X-1917122Y-6962424D01*
X-1858830Y-6855672D01*
X-1813274Y-6808459D01*
X-1750000Y-6791101D01*
X-1686726Y-6808459D01*
X-1641169Y-6855672D01*
X-1560716Y-7003011D01*
X-1402087Y-7214915D01*
X-1214915Y-7402087D01*
X-1003011Y-7560716D01*
X-770689Y-7687574D01*
X-581166Y-7758262D01*
X-538930Y-7784701D01*
X-510512Y-7825631D01*
X-500500Y-7874444D01*
X-500500Y-8899812D01*
X-512405Y-8952829D01*
X-545836Y-8995666D01*
X-594371Y-9020096D01*
X-648690Y-9021428D01*
X-687119Y-9013785D01*
X-739420Y-9003381D01*
X-739425Y-9003380D01*
X-745400Y-9002192D01*
X-1367289Y-9002192D01*
X-1371659Y-9002820D01*
X-1371668Y-9002821D01*
X-1434858Y-9011907D01*
X-1434861Y-9011907D01*
X-1439245Y-9012538D01*
X-1443497Y-9013786D01*
X-1443499Y-9013787D01*
X-1468858Y-9021233D01*
X-1577200Y-9053045D01*
X-1581226Y-9054883D01*
X-1581235Y-9054887D01*
X-1639292Y-9081401D01*
X-1639295Y-9081402D01*
X-1643327Y-9083244D01*
X-1647047Y-9085634D01*
X-1647053Y-9085638D01*
X-1760550Y-9158578D01*
X-1764281Y-9160976D01*
X-1819224Y-9208584D01*
X-1913378Y-9317245D01*
X-1952679Y-9378399D01*
X-2012407Y-9509184D01*
X-2032888Y-9578936D01*
X-2053350Y-9721251D01*
X-2053350Y-9793949D01*
X-2052720Y-9798330D01*
X-2052720Y-9798331D01*
X-2052070Y-9802853D01*
X-2050808Y-9820499D01*
X-2050808Y-10003832D01*
X-2060247Y-10051285D01*
X-2087127Y-10091513D01*
X-2125845Y-10130231D01*
X-2166073Y-10157111D01*
X-2213526Y-10166550D01*
X-3177386Y-10166550D01*
X-3230236Y-10154724D01*
X-3273004Y-10121500D01*
X-3339954Y-10040414D01*
X-3339959Y-10040408D01*
X-3344892Y-10034435D01*
X-3351147Y-10029867D01*
X-3351154Y-10029861D01*
X-3390619Y-10001044D01*
X-3390628Y-10001038D01*
X-3393311Y-9999079D01*
X-3396187Y-9997418D01*
X-3396194Y-9997414D01*
X-3928012Y-9690370D01*
X-3928031Y-9690360D01*
X-3930893Y-9688708D01*
X-3933923Y-9687367D01*
X-3933934Y-9687362D01*
X-3978627Y-9667590D01*
X-3978629Y-9667589D01*
X-3985721Y-9664452D01*
X-3993362Y-9663166D01*
X-3993369Y-9663165D01*
X-4118903Y-9642054D01*
X-4118909Y-9642053D01*
X-4127650Y-9640584D01*
X-4136456Y-9641637D01*
X-4261751Y-9656619D01*
X-4261752Y-9656619D01*
X-4270555Y-9657672D01*
X-4278698Y-9661159D01*
X-4278705Y-9661161D01*
X-4394708Y-9710836D01*
X-4394710Y-9710837D01*
X-4402857Y-9714326D01*
X-4409689Y-9719967D01*
X-4409692Y-9719969D01*
X-4507857Y-9801021D01*
X-4507859Y-9801023D01*
X-4513838Y-9805960D01*
X-4549193Y-9854379D01*
X-4980795Y-10601937D01*
X-4985961Y-10610885D01*
X-5031348Y-10656272D01*
X-5093348Y-10672885D01*
X-5155348Y-10656272D01*
X-5200735Y-10610885D01*
X-5217348Y-10548885D01*
X-5217348Y-10446884D01*
X-5200735Y-10384884D01*
X-5137977Y-10276185D01*
X-5064487Y-10148896D01*
X-4809796Y-9707758D01*
X-4809791Y-9707749D01*
X-4808135Y-9704880D01*
X-4800980Y-9688708D01*
X-4787015Y-9657140D01*
X-4787014Y-9657139D01*
X-4783879Y-9650051D01*
X-4775426Y-9599783D01*
X-4761482Y-9516869D01*
X-4761481Y-9516862D01*
X-4760012Y-9508122D01*
X-4761065Y-9499314D01*
X-4776046Y-9374023D01*
X-4776046Y-9374021D01*
X-4777099Y-9365218D01*
X-4780588Y-9357068D01*
X-4780590Y-9357064D01*
X-4830262Y-9241069D01*
X-4830262Y-9241067D01*
X-4833754Y-9232915D01*
X-4839399Y-9226078D01*
X-4839401Y-9226075D01*
X-4920450Y-9127914D01*
X-4920455Y-9127908D01*
X-4925388Y-9121935D01*
X-4931643Y-9117367D01*
X-4931650Y-9117361D01*
X-4971115Y-9088544D01*
X-4971124Y-9088538D01*
X-4973807Y-9086579D01*
X-4976683Y-9084918D01*
X-4976690Y-9084914D01*
X-5508508Y-8777870D01*
X-5508527Y-8777860D01*
X-5511389Y-8776208D01*
X-5514419Y-8774867D01*
X-5514430Y-8774862D01*
X-5559123Y-8755090D01*
X-5559125Y-8755089D01*
X-5566217Y-8751952D01*
X-5573858Y-8750666D01*
X-5573865Y-8750665D01*
X-5699399Y-8729554D01*
X-5699405Y-8729553D01*
X-5708146Y-8728084D01*
X-5716952Y-8729137D01*
X-5842247Y-8744119D01*
X-5842248Y-8744119D01*
X-5851051Y-8745172D01*
X-5859194Y-8748659D01*
X-5859201Y-8748661D01*
X-5975204Y-8798336D01*
X-5975206Y-8798337D01*
X-5983353Y-8801826D01*
X-5990185Y-8807467D01*
X-5990188Y-8807469D01*
X-6088353Y-8888521D01*
X-6088355Y-8888523D01*
X-6094334Y-8893460D01*
X-6098907Y-8899723D01*
X-6098909Y-8899725D01*
X-6099548Y-8900600D01*
X-6129689Y-8941879D01*
X-6456609Y-9508122D01*
X-6542644Y-9657140D01*
X-6627561Y-9804220D01*
X-6651817Y-9859049D01*
X-6675684Y-10000978D01*
X-6658597Y-10143882D01*
X-6601942Y-10276185D01*
X-6586899Y-10294403D01*
X-6561478Y-10346415D01*
X-6562441Y-10404302D01*
X-6589580Y-10455442D01*
X-6636977Y-10488688D01*
X-6694302Y-10496792D01*
X-6736262Y-10492786D01*
X-6736265Y-10492786D01*
X-6742140Y-10492225D01*
X-6748015Y-10492786D01*
X-6945478Y-10511640D01*
X-6945483Y-10511641D01*
X-6951358Y-10512202D01*
X-6957021Y-10513864D01*
X-6957027Y-10513866D01*
X-7147352Y-10569752D01*
X-7147353Y-10569752D01*
X-7153015Y-10571415D01*
X-7339822Y-10667720D01*
X-7407267Y-10720759D01*
X-7483394Y-10780626D01*
X-7505027Y-10797638D01*
X-7508895Y-10802102D01*
X-7637846Y-10950920D01*
X-7642659Y-10956474D01*
X-7763051Y-11164999D01*
X-7840800Y-11299665D01*
X-7846414Y-11309388D01*
X-7911845Y-11452660D01*
X-7961394Y-11656906D01*
X-7971395Y-11866839D01*
X-8669038Y-11866839D01*
X-8557565Y-11819104D01*
X-8549417Y-11815615D01*
X-8542581Y-11809971D01*
X-8444416Y-11728919D01*
X-8444413Y-11728916D01*
X-8438436Y-11723981D01*
X-8433862Y-11717718D01*
X-8433860Y-11717715D01*
X-8405041Y-11678246D01*
X-8403081Y-11675562D01*
X-8208053Y-11337763D01*
X-7631870Y-10339785D01*
X-7631865Y-10339776D01*
X-7630209Y-10336907D01*
X-7617606Y-10308420D01*
X-7609089Y-10289167D01*
X-7609088Y-10289166D01*
X-7605953Y-10282078D01*
X-7599976Y-10246537D01*
X-7583556Y-10148896D01*
X-7583555Y-10148889D01*
X-7582086Y-10140149D01*
X-7594011Y-10040414D01*
X-7598120Y-10006047D01*
X-7598120Y-10006043D01*
X-7599173Y-9997245D01*
X-7602661Y-9989099D01*
X-7602662Y-9989096D01*
X-7652336Y-9873093D01*
X-7652338Y-9873089D01*
X-7655827Y-9864942D01*
X-7661472Y-9858105D01*
X-7661474Y-9858102D01*
X-7742521Y-9759944D01*
X-7742524Y-9759940D01*
X-7747461Y-9753962D01*
X-7753715Y-9749394D01*
X-7753723Y-9749388D01*
X-7793197Y-9720565D01*
X-7793207Y-9720558D01*
X-7795881Y-9718606D01*
X-7798753Y-9716947D01*
X-7798762Y-9716942D01*
X-8915150Y-9072396D01*
X-8915167Y-9072387D01*
X-8918029Y-9070735D01*
X-8921051Y-9069397D01*
X-8921065Y-9069391D01*
X-8965764Y-9049616D01*
X-8965773Y-9049613D01*
X-8972858Y-9046479D01*
X-8980501Y-9045193D01*
X-8980507Y-9045192D01*
X-9106040Y-9024081D01*
X-9106046Y-9024080D01*
X-9114787Y-9022611D01*
X-9123593Y-9023664D01*
X-9248887Y-9038646D01*
X-9248888Y-9038646D01*
X-9257691Y-9039699D01*
X-9265834Y-9043186D01*
X-9265841Y-9043188D01*
X-9381844Y-9092863D01*
X-9381846Y-9092864D01*
X-9389993Y-9096353D01*
X-9396825Y-9101994D01*
X-9396828Y-9101996D01*
X-9494993Y-9183048D01*
X-9494995Y-9183050D01*
X-9500974Y-9187987D01*
X-9536329Y-9236406D01*
X-10053019Y-10131341D01*
X-10303613Y-10565383D01*
X-10309201Y-10575061D01*
X-10333457Y-10629890D01*
X-10349732Y-10726674D01*
X-10355295Y-10759756D01*
X-10357324Y-10771819D01*
X-13786619Y-10771819D01*
X-13984299Y-10512638D01*
X-13984763Y-10512026D01*
X-14184670Y-10246533D01*
X-14187651Y-10242400D01*
X-14465216Y-9840405D01*
X-14465676Y-9839734D01*
X-14654837Y-9561889D01*
X-14657593Y-9557658D01*
X-14914092Y-9145811D01*
X-14914544Y-9145079D01*
X-15091980Y-8855722D01*
X-15094509Y-8851406D01*
X-15329846Y-8430413D01*
X-15330285Y-8429620D01*
X-15495131Y-8129597D01*
X-15497430Y-8125206D01*
X-15711293Y-7696193D01*
X-15711716Y-7695338D01*
X-15863380Y-7385143D01*
X-15865448Y-7380691D01*
X-16057786Y-6944337D01*
X-16058186Y-6943420D01*
X-16195883Y-6624071D01*
X-16197720Y-6619569D01*
X-16368412Y-6176701D01*
X-16368785Y-6175722D01*
X-16491885Y-5848116D01*
X-16493491Y-5843576D01*
X-16504166Y-5811427D01*
X-11376100Y-5811427D01*
X-11376099Y-6432172D01*
X-11369691Y-6491783D01*
X-11319396Y-6626631D01*
X-11233146Y-6741846D01*
X-11217449Y-6753596D01*
X-11178406Y-6802591D01*
X-11168298Y-6864422D01*
X-11189706Y-6923302D01*
X-11197420Y-6934477D01*
X-11253437Y-7082182D01*
X-11272478Y-7239000D01*
X-11253437Y-7395818D01*
X-11197420Y-7543523D01*
X-11107683Y-7673530D01*
X-10989440Y-7778283D01*
X-10849565Y-7851696D01*
X-10696185Y-7889500D01*
X-10545715Y-7889500D01*
X-10538215Y-7889500D01*
X-10384835Y-7851696D01*
X-10244960Y-7778283D01*
X-10152298Y-7696193D01*
X-10132327Y-7678500D01*
X-10132326Y-7678499D01*
X-10126717Y-7673530D01*
X-10036980Y-7543523D01*
X-9984348Y-7404745D01*
X-9983623Y-7402832D01*
X-9983622Y-7402831D01*
X-9980963Y-7395818D01*
X-9980059Y-7388377D01*
X-9980058Y-7388371D01*
X-9963892Y-7255230D01*
X-9953592Y-7218669D01*
X-9944118Y-7197922D01*
X-9944117Y-7197921D01*
X-9940435Y-7189857D01*
X-9939172Y-7181080D01*
X-9936675Y-7172573D01*
X-9936564Y-7172605D01*
X-9936379Y-7171879D01*
X-9936492Y-7171855D01*
X-9934606Y-7163189D01*
X-9931509Y-7154883D01*
X-9927965Y-7105346D01*
X-9927020Y-7096555D01*
X-9925100Y-7083199D01*
X-9925100Y-7069708D01*
X-9924784Y-7060861D01*
X-9921873Y-7020170D01*
X-9921873Y-7020166D01*
X-9921241Y-7011327D01*
X-9923124Y-7002668D01*
X-9923731Y-6994190D01*
X-9916228Y-6942011D01*
X-9887727Y-6897665D01*
X-9843380Y-6869165D01*
X-9807210Y-6855674D01*
X-9733269Y-6828096D01*
X-9618054Y-6741846D01*
X-9531804Y-6626631D01*
X-9493032Y-6522678D01*
X-9484220Y-6499052D01*
X-9484219Y-6499050D01*
X-9481509Y-6491783D01*
X-9480679Y-6484070D01*
X-9480679Y-6484067D01*
X-9475455Y-6435480D01*
X-9475454Y-6435461D01*
X-9475100Y-6432173D01*
X-9475100Y-6124674D01*
X-9475100Y-5814739D01*
X-9475100Y-5814720D01*
X-9475101Y-5811428D01*
X-9475453Y-5808150D01*
X-9475454Y-5808138D01*
X-9480679Y-5759531D01*
X-9480680Y-5759525D01*
X-9481509Y-5751817D01*
X-9484218Y-5744552D01*
X-9484220Y-5744546D01*
X-9528704Y-5625280D01*
X-9528704Y-5625278D01*
X-9531804Y-5616969D01*
X-9537116Y-5609872D01*
X-9537119Y-5609868D01*
X-9612741Y-5508850D01*
X-9612744Y-5508846D01*
X-9618054Y-5501754D01*
X-9625146Y-5496444D01*
X-9625150Y-5496441D01*
X-9726168Y-5420819D01*
X-9726172Y-5420816D01*
X-9733269Y-5415504D01*
X-9741578Y-5412404D01*
X-9741580Y-5412404D01*
X-9860847Y-5367920D01*
X-9860850Y-5367919D01*
X-9868117Y-5365209D01*
X-9875827Y-5364379D01*
X-9875832Y-5364379D01*
X-9924419Y-5359155D01*
X-9924431Y-5359154D01*
X-9927727Y-5358800D01*
X-9931048Y-5358800D01*
X-9931049Y-5358800D01*
X-10920160Y-5358800D01*
X-10920178Y-5358800D01*
X-10923472Y-5358801D01*
X-10926750Y-5359153D01*
X-10926761Y-5359154D01*
X-10975368Y-5364379D01*
X-10975373Y-5364380D01*
X-10983083Y-5365209D01*
X-10990349Y-5367919D01*
X-10990353Y-5367920D01*
X-11080431Y-5401517D01*
X-11117931Y-5415504D01*
X-11125030Y-5420818D01*
X-11125031Y-5420819D01*
X-11201333Y-5477939D01*
X-11233146Y-5501754D01*
X-11319396Y-5616969D01*
X-11369691Y-5751817D01*
X-11376100Y-5811427D01*
X-16504166Y-5811427D01*
X-16642449Y-5394969D01*
X-16642789Y-5393930D01*
X-16750745Y-5058961D01*
X-16752121Y-5054394D01*
X-16879193Y-4601089D01*
X-16879495Y-4599990D01*
X-16971860Y-4258443D01*
X-16973006Y-4253861D01*
X-17034504Y-3986427D01*
X-11376100Y-3986427D01*
X-11376099Y-4607172D01*
X-11369691Y-4666783D01*
X-11319396Y-4801631D01*
X-11233146Y-4916846D01*
X-11117931Y-5003096D01*
X-10983083Y-5053391D01*
X-10923473Y-5059800D01*
X-9927728Y-5059799D01*
X-9868117Y-5053391D01*
X-9733269Y-5003096D01*
X-9618054Y-4916846D01*
X-9531804Y-4801631D01*
X-9486663Y-4680601D01*
X-9484220Y-4674052D01*
X-9484219Y-4674050D01*
X-9481509Y-4666783D01*
X-9480679Y-4659070D01*
X-9480679Y-4659067D01*
X-9475455Y-4610480D01*
X-9475454Y-4610461D01*
X-9475100Y-4607173D01*
X-9475100Y-4298693D01*
X-9475100Y-3989739D01*
X-9475100Y-3989720D01*
X-9475101Y-3986428D01*
X-9475453Y-3983150D01*
X-9475454Y-3983138D01*
X-9480679Y-3934531D01*
X-9480680Y-3934525D01*
X-9481509Y-3926817D01*
X-9484218Y-3919552D01*
X-9484220Y-3919546D01*
X-9528704Y-3800280D01*
X-9528704Y-3800278D01*
X-9531804Y-3791969D01*
X-9537116Y-3784872D01*
X-9537119Y-3784868D01*
X-9612741Y-3683850D01*
X-9612744Y-3683846D01*
X-9618054Y-3676754D01*
X-9625146Y-3671444D01*
X-9625150Y-3671441D01*
X-9726168Y-3595819D01*
X-9726172Y-3595816D01*
X-9733269Y-3590504D01*
X-9741573Y-3587406D01*
X-9741580Y-3587403D01*
X-9777958Y-3573835D01*
X-9827167Y-3540185D01*
X-9854987Y-3487460D01*
X-9854986Y-3427845D01*
X-9827165Y-3375120D01*
X-9777954Y-3341472D01*
X-9738357Y-3326703D01*
X-9738356Y-3326702D01*
X-9730046Y-3323603D01*
X-9616269Y-3238431D01*
X-9605926Y-3224615D01*
X-9536412Y-3131754D01*
X-9531097Y-3124654D01*
X-9517196Y-3087384D01*
X-9484137Y-2998753D01*
X-9484135Y-2998748D01*
X-9481429Y-2991491D01*
X-9480599Y-2983779D01*
X-9475453Y-2935907D01*
X-9475452Y-2935901D01*
X-9475100Y-2932621D01*
X-9475100Y-2647499D01*
X-9475100Y-2353891D01*
X-9475100Y-2353872D01*
X-9475101Y-2350580D01*
X-9475454Y-2347292D01*
X-9475454Y-2347288D01*
X-9480600Y-2299420D01*
X-9480601Y-2299415D01*
X-9481429Y-2291709D01*
X-9520324Y-2187429D01*
X-9527998Y-2166854D01*
X-9527998Y-2166852D01*
X-9531097Y-2158546D01*
X-9536410Y-2151448D01*
X-9536412Y-2151445D01*
X-9610954Y-2051868D01*
X-9610957Y-2051864D01*
X-9616269Y-2044769D01*
X-9623364Y-2039457D01*
X-9623368Y-2039454D01*
X-9722945Y-1964912D01*
X-9722948Y-1964910D01*
X-9730046Y-1959597D01*
X-9738352Y-1956498D01*
X-9738354Y-1956498D01*
X-9855946Y-1912637D01*
X-9855953Y-1912635D01*
X-9863209Y-1909929D01*
X-9870910Y-1909100D01*
X-9870915Y-1909100D01*
X-9918792Y-1903953D01*
X-9918799Y-1903952D01*
X-9922079Y-1903600D01*
X-9925387Y-1903600D01*
X-9925388Y-1903600D01*
X-10925808Y-1903600D01*
X-10925826Y-1903600D01*
X-10929120Y-1903601D01*
X-10932397Y-1903953D01*
X-10932411Y-1903954D01*
X-10980279Y-1909100D01*
X-10987991Y-1909929D01*
X-11121154Y-1959597D01*
X-11234931Y-2044769D01*
X-11320103Y-2158546D01*
X-11369771Y-2291709D01*
X-11376100Y-2350579D01*
X-11376099Y-2932620D01*
X-11369771Y-2991491D01*
X-11320103Y-3124654D01*
X-11234931Y-3238431D01*
X-11121154Y-3323603D01*
X-11073243Y-3341472D01*
X-11024034Y-3375120D01*
X-10996213Y-3427845D01*
X-10996212Y-3487460D01*
X-11024032Y-3540185D01*
X-11073242Y-3573835D01*
X-11109617Y-3587402D01*
X-11109623Y-3587405D01*
X-11117931Y-3590504D01*
X-11125030Y-3595818D01*
X-11125031Y-3595819D01*
X-11215832Y-3663793D01*
X-11233146Y-3676754D01*
X-11319396Y-3791969D01*
X-11369691Y-3926817D01*
X-11376100Y-3986427D01*
X-17034504Y-3986427D01*
X-17078126Y-3796727D01*
X-17078387Y-3795569D01*
X-17154747Y-3448315D01*
X-17155664Y-3443730D01*
X-17238796Y-2983594D01*
X-17239010Y-2982379D01*
X-17298986Y-2630438D01*
X-17299678Y-2625861D01*
X-17360783Y-2163708D01*
X-17360944Y-2162438D01*
X-17404251Y-1806670D01*
X-17404721Y-1802111D01*
X-17443807Y-1338843D01*
X-17443911Y-1337521D01*
X-17470313Y-978827D01*
X-17470564Y-974297D01*
X-17487662Y-510953D01*
X-17487705Y-509581D01*
X-17497022Y-148737D01*
X-17497056Y-144246D01*
X-17494593Y92602D01*
X-14769254Y92602D01*
X-14759254Y-117330D01*
X-14709704Y-321576D01*
X-14622396Y-512753D01*
X-14500486Y-683952D01*
X-14348378Y-828986D01*
X-14171572Y-942613D01*
X-13976457Y-1020725D01*
X-13770085Y-1060500D01*
X-13365529Y-1060500D01*
X-13362575Y-1060500D01*
X-13205782Y-1045528D01*
X-13004125Y-986316D01*
X-12817318Y-890011D01*
X-12652114Y-760092D01*
X-12514481Y-601256D01*
X-12409396Y-419244D01*
X-12407463Y-413660D01*
X-12407461Y-413655D01*
X-12342587Y-226214D01*
X-12342585Y-226208D01*
X-12340656Y-220633D01*
X-12339816Y-214794D01*
X-12339815Y-214788D01*
X-12311585Y-18441D01*
X-12311584Y-18435D01*
X-12310746Y-12602D01*
X-12311026Y-6716D01*
X-12311026Y-6710D01*
X-12320465Y191432D01*
X-12320746Y197330D01*
X-12322135Y203058D01*
X-12322137Y203067D01*
X-12368903Y395835D01*
X-12368903Y395837D01*
X-12370296Y401576D01*
X-12371209Y403576D01*
X-12374806Y470656D01*
X-12341643Y530541D01*
X-11684105Y1188081D01*
X-11643877Y1214961D01*
X-11596424Y1224400D01*
X-11498452Y1224400D01*
X-11432658Y1205506D01*
X-11386915Y1154581D01*
X-11375163Y1087144D01*
X-11375738Y1081779D01*
X-11376100Y1078421D01*
X-11376099Y496380D01*
X-11369771Y437509D01*
X-11320103Y304346D01*
X-11234931Y190569D01*
X-11121154Y105397D01*
X-11090815Y94081D01*
X-10995253Y58437D01*
X-10995248Y58435D01*
X-10987991Y55729D01*
X-10980287Y54900D01*
X-10980284Y54900D01*
X-10932407Y49753D01*
X-10932401Y49752D01*
X-10929121Y49400D01*
X-10925811Y49400D01*
X-9925391Y49400D01*
X-9925372Y49400D01*
X-9922080Y49401D01*
X-9918803Y49753D01*
X-9918788Y49754D01*
X-9870920Y54900D01*
X-9870918Y54900D01*
X-9863209Y55729D01*
X-9855943Y58439D01*
X-9738354Y102298D01*
X-9738352Y102298D01*
X-9730046Y105397D01*
X-9722948Y110710D01*
X-9722945Y110712D01*
X-9623368Y185254D01*
X-9623364Y185257D01*
X-9616269Y190569D01*
X-9610957Y197664D01*
X-9610954Y197668D01*
X-9581354Y237210D01*
X-9537592Y273784D01*
X-9482087Y286900D01*
X-6842999Y286900D01*
X-6771401Y286900D01*
X-5186276Y286900D01*
X-5138823Y277461D01*
X-5098595Y250581D01*
X-2481671Y-2366341D01*
X-2457868Y-2399737D01*
X-2446259Y-2439072D01*
X-2439637Y-2493618D01*
X-2383620Y-2641323D01*
X-2293883Y-2771330D01*
X-2175640Y-2876083D01*
X-2035765Y-2949496D01*
X-1882385Y-2987300D01*
X-1731915Y-2987300D01*
X-1724415Y-2987300D01*
X-1706737Y-2982943D01*
X-1637769Y-2965944D01*
X-1571035Y-2949496D01*
X-1431160Y-2876083D01*
X-1383604Y-2833953D01*
X-1318527Y-2776300D01*
X-1318526Y-2776299D01*
X-1312917Y-2771330D01*
X-1307616Y-2763651D01*
X-1227443Y-2647499D01*
X-1223180Y-2641323D01*
X-1219051Y-2630438D01*
X-1169823Y-2500632D01*
X-1169822Y-2500631D01*
X-1167163Y-2493618D01*
X-1166259Y-2486175D01*
X-1166258Y-2486170D01*
X-1149026Y-2344245D01*
X-1148122Y-2336800D01*
X-1150579Y-2316562D01*
X-1166258Y-2187429D01*
X-1166259Y-2187422D01*
X-1167163Y-2179982D01*
X-1170983Y-2169909D01*
X-1220518Y-2039294D01*
X-1220520Y-2039288D01*
X-1223180Y-2032277D01*
X-1227440Y-2026103D01*
X-1227443Y-2026100D01*
X-1308657Y-1908440D01*
X-1308662Y-1908434D01*
X-1312917Y-1902270D01*
X-1318525Y-1897301D01*
X-1318532Y-1897294D01*
X-1405189Y-1820523D01*
X-1442066Y-1762207D01*
X-1442066Y-1693209D01*
X-1405189Y-1634892D01*
X-1327439Y-1566012D01*
X-1327438Y-1566011D01*
X-1321829Y-1561042D01*
X-1299659Y-1528924D01*
X-1236355Y-1437211D01*
X-1232092Y-1431035D01*
X-1222540Y-1405850D01*
X-1178735Y-1290344D01*
X-1178734Y-1290343D01*
X-1176075Y-1283330D01*
X-1175171Y-1275887D01*
X-1175170Y-1275882D01*
X-1157938Y-1133957D01*
X-1157034Y-1126512D01*
X-1159054Y-1109879D01*
X-1175170Y-977141D01*
X-1175171Y-977134D01*
X-1176075Y-969694D01*
X-1178735Y-962679D01*
X-1229430Y-829006D01*
X-1229432Y-829000D01*
X-1232092Y-821989D01*
X-1236352Y-815815D01*
X-1236355Y-815812D01*
X-1317569Y-698152D01*
X-1317574Y-698146D01*
X-1321829Y-691982D01*
X-1327434Y-687015D01*
X-1327439Y-687011D01*
X-1434455Y-592204D01*
X-1434460Y-592199D01*
X-1440072Y-587229D01*
X-1446712Y-583743D01*
X-1446718Y-583740D01*
X-1573305Y-517301D01*
X-1573312Y-517298D01*
X-1579947Y-513816D01*
X-1587221Y-512022D01*
X-1587227Y-512021D01*
X-1728524Y-477195D01*
X-1786530Y-444479D01*
X-4262337Y2031327D01*
X-4270888Y2041938D01*
X-4270976Y2041863D01*
X-4276787Y2048568D01*
X-4281581Y2056028D01*
X-4319124Y2088558D01*
X-4325586Y2094576D01*
X-4331994Y2100984D01*
X-4335131Y2104121D01*
X-4343114Y2110097D01*
X-4345931Y2112206D01*
X-4352823Y2117760D01*
X-4383643Y2144466D01*
X-4383649Y2144470D01*
X-4390351Y2150277D01*
X-4398418Y2153961D01*
X-4405878Y2158755D01*
X-4405814Y2158853D01*
X-4406453Y2159232D01*
X-4406509Y2159130D01*
X-4414289Y2163378D01*
X-4421393Y2168696D01*
X-4467946Y2186059D01*
X-4476084Y2189430D01*
X-4521267Y2210065D01*
X-4530050Y2211327D01*
X-4538556Y2213825D01*
X-4538522Y2213937D01*
X-4539239Y2214120D01*
X-4539264Y2214006D01*
X-4547928Y2215890D01*
X-4556241Y2218991D01*
X-4605776Y2222533D01*
X-4614561Y2223478D01*
X-4627925Y2225400D01*
X-4632360Y2225400D01*
X-4641416Y2225400D01*
X-4650263Y2225716D01*
X-4699797Y2229259D01*
X-4708463Y2227373D01*
X-4717310Y2226741D01*
X-4717318Y2226856D01*
X-4730868Y2225400D01*
X-7255913Y2225400D01*
X-7313780Y2239730D01*
X-7358272Y2279409D01*
X-7379105Y2335266D01*
X-7371464Y2394389D01*
X-7337117Y2443110D01*
X-7278184Y2494176D01*
X-7275289Y2497516D01*
X-7275282Y2497524D01*
X-7233482Y2545764D01*
X-7233475Y2545773D01*
X-7230576Y2549119D01*
X-7228184Y2552840D01*
X-7228178Y2552849D01*
X-7155238Y2666346D01*
X-7155231Y2666358D01*
X-7152844Y2670073D01*
X-7151005Y2674098D01*
X-7151001Y2674107D01*
X-7124487Y2732164D01*
X-7124481Y2732177D01*
X-7122645Y2736200D01*
X-7112400Y2771090D01*
X-7083387Y2869900D01*
X-7083385Y2869904D01*
X-7082138Y2874155D01*
X-7081384Y2879399D01*
X-7072421Y2941731D01*
X-7072420Y2941741D01*
X-7071792Y2946111D01*
X-7071792Y3206013D01*
X-7057588Y3263640D01*
X-7018229Y3308065D01*
X-6962733Y3329110D01*
X-6912873Y3323052D01*
X-6912565Y3324304D01*
X-6766467Y3288294D01*
X-6766460Y3288293D01*
X-6759185Y3286500D01*
X-6608715Y3286500D01*
X-6601215Y3286500D01*
X-6593940Y3288292D01*
X-6593932Y3288294D01*
X-6455115Y3322509D01*
X-6455109Y3322510D01*
X-6447835Y3324304D01*
X-6441200Y3327786D01*
X-6441193Y3327789D01*
X-6314606Y3394228D01*
X-6314600Y3394231D01*
X-6307960Y3397717D01*
X-6302348Y3402687D01*
X-6302343Y3402692D01*
X-6195327Y3497499D01*
X-6195322Y3497503D01*
X-6189717Y3502470D01*
X-6185462Y3508634D01*
X-6185457Y3508640D01*
X-6104243Y3626300D01*
X-6104240Y3626303D01*
X-6099980Y3632477D01*
X-6097320Y3639488D01*
X-6097318Y3639494D01*
X-6046623Y3773167D01*
X-6046622Y3773170D01*
X-6043963Y3780182D01*
X-6043059Y3787622D01*
X-6043058Y3787629D01*
X-6025826Y3929555D01*
X-6024922Y3937000D01*
X-6032368Y3998327D01*
X-6032571Y4000000D01*
X-1855227Y4000000D01*
X-1836343Y3735974D01*
X-1780077Y3477322D01*
X-1687574Y3229311D01*
X-1560716Y2996989D01*
X-1402087Y2785085D01*
X-1214915Y2597913D01*
X-1003011Y2439284D01*
X-999117Y2437158D01*
X-999116Y2437157D01*
X-907407Y2387080D01*
X-770689Y2312426D01*
X-766546Y2310880D01*
X-766540Y2310878D01*
X-547709Y2229259D01*
X-522678Y2219923D01*
X-518346Y2218980D01*
X-518344Y2218980D01*
X-268359Y2164599D01*
X-268351Y2164597D01*
X-264026Y2163657D01*
X-259612Y2163341D01*
X-259603Y2163340D01*
X-4418Y2145089D01*
X0Y2144773D01*
X4418Y2145089D01*
X259603Y2163340D01*
X259612Y2163341D01*
X264026Y2163657D01*
X268351Y2164597D01*
X268359Y2164599D01*
X518344Y2218980D01*
X518346Y2218980D01*
X522678Y2219923D01*
X547709Y2229259D01*
X766540Y2310878D01*
X766546Y2310880D01*
X770689Y2312426D01*
X907407Y2387080D01*
X999116Y2437157D01*
X999117Y2437158D01*
X1003011Y2439284D01*
X1214915Y2597913D01*
X1309377Y2692375D01*
X1361600Y2723516D01*
X1422348Y2726088D01*
X1477016Y2699471D01*
X1512459Y2650067D01*
X1520155Y2589753D01*
X1517822Y2570535D01*
X1518726Y2563090D01*
X1535958Y2421164D01*
X1535959Y2421157D01*
X1536863Y2413717D01*
X1539522Y2406705D01*
X1539523Y2406702D01*
X1568309Y2330800D01*
X1576367Y2286829D01*
X1576367Y-779875D01*
X1566928Y-827328D01*
X1540048Y-867556D01*
X443270Y-1964332D01*
X432657Y-1972885D01*
X432733Y-1972973D01*
X426028Y-1978782D01*
X418572Y-1983575D01*
X412767Y-1990273D01*
X412766Y-1990275D01*
X386053Y-2021103D01*
X380027Y-2027576D01*
X373607Y-2033996D01*
X373602Y-2034001D01*
X370479Y-2037125D01*
X367832Y-2040660D01*
X367817Y-2040678D01*
X362374Y-2047948D01*
X356832Y-2054825D01*
X330129Y-2085643D01*
X330125Y-2085648D01*
X324323Y-2092345D01*
X320640Y-2100407D01*
X315844Y-2107871D01*
X315748Y-2107809D01*
X315367Y-2108450D01*
X315468Y-2108505D01*
X311219Y-2116286D01*
X305904Y-2123387D01*
X302805Y-2131694D01*
X302804Y-2131697D01*
X288552Y-2169909D01*
X285166Y-2178084D01*
X268218Y-2215194D01*
X268216Y-2215200D01*
X264535Y-2223261D01*
X263272Y-2232037D01*
X260775Y-2240545D01*
X260664Y-2240512D01*
X260479Y-2241238D01*
X260592Y-2241263D01*
X258707Y-2249926D01*
X255609Y-2258235D01*
X254976Y-2267078D01*
X254976Y-2267080D01*
X252065Y-2307772D01*
X251120Y-2316561D01*
X249200Y-2329919D01*
X249200Y-2334348D01*
X249200Y-2343410D01*
X248884Y-2352257D01*
X245973Y-2392944D01*
X245973Y-2392949D01*
X245341Y-2401791D01*
X247225Y-2410455D01*
X247859Y-2419304D01*
X247743Y-2419312D01*
X249200Y-2432862D01*
X249200Y-3019356D01*
X247743Y-3032905D01*
X247859Y-3032914D01*
X247225Y-3041762D01*
X245341Y-3050427D01*
X245973Y-3059267D01*
X245973Y-3059273D01*
X248884Y-3099961D01*
X249200Y-3108808D01*
X249200Y-3122299D01*
X249830Y-3126680D01*
X251120Y-3135655D01*
X252065Y-3144446D01*
X254627Y-3180267D01*
X255609Y-3193983D01*
X258706Y-3202289D01*
X260592Y-3210955D01*
X260479Y-3210979D01*
X260664Y-3211703D01*
X260775Y-3211671D01*
X263272Y-3220176D01*
X264535Y-3228957D01*
X268219Y-3237024D01*
X268220Y-3237027D01*
X285157Y-3274113D01*
X288545Y-3282290D01*
X302804Y-3320521D01*
X302805Y-3320523D01*
X305904Y-3328831D01*
X311219Y-3335931D01*
X315468Y-3343712D01*
X315366Y-3343767D01*
X315746Y-3344407D01*
X315843Y-3344345D01*
X320639Y-3351807D01*
X324323Y-3359873D01*
X356847Y-3397407D01*
X362388Y-3404285D01*
X370479Y-3415093D01*
X373615Y-3418229D01*
X373616Y-3418230D01*
X380022Y-3424636D01*
X386054Y-3431115D01*
X412765Y-3461942D01*
X412767Y-3461944D01*
X418572Y-3468643D01*
X426028Y-3473434D01*
X432737Y-3479248D01*
X432661Y-3479335D01*
X443271Y-3487885D01*
X829613Y-3874227D01*
X838164Y-3884838D01*
X838252Y-3884763D01*
X844063Y-3891468D01*
X848857Y-3898928D01*
X886400Y-3931458D01*
X892860Y-3937474D01*
X902407Y-3947021D01*
X908694Y-3951727D01*
X913207Y-3955106D01*
X920099Y-3960660D01*
X950919Y-3987366D01*
X950925Y-3987370D01*
X957627Y-3993177D01*
X965694Y-3996861D01*
X973154Y-4001655D01*
X973090Y-4001753D01*
X973729Y-4002132D01*
X973785Y-4002030D01*
X981565Y-4006278D01*
X988669Y-4011596D01*
X1035222Y-4028959D01*
X1043360Y-4032330D01*
X1088543Y-4052965D01*
X1097326Y-4054227D01*
X1105832Y-4056725D01*
X1105798Y-4056837D01*
X1106515Y-4057020D01*
X1106540Y-4056906D01*
X1115204Y-4058790D01*
X1123517Y-4061891D01*
X1173052Y-4065433D01*
X1181837Y-4066378D01*
X1195201Y-4068300D01*
X1208692Y-4068300D01*
X1217538Y-4068615D01*
X1267073Y-4072159D01*
X1275739Y-4070273D01*
X1284586Y-4069641D01*
X1284594Y-4069756D01*
X1298144Y-4068300D01*
X1884638Y-4068300D01*
X1898187Y-4069756D01*
X1898196Y-4069641D01*
X1907042Y-4070273D01*
X1915709Y-4072159D01*
X1965243Y-4068615D01*
X1974090Y-4068300D01*
X1983147Y-4068300D01*
X1987581Y-4068300D01*
X2000944Y-4066378D01*
X2009731Y-4065433D01*
X2059265Y-4061891D01*
X2067575Y-4058790D01*
X2076242Y-4056906D01*
X2076266Y-4057020D01*
X2076984Y-4056837D01*
X2076951Y-4056725D01*
X2085457Y-4054227D01*
X2094239Y-4052965D01*
X2139429Y-4032326D01*
X2147569Y-4028955D01*
X2194113Y-4011596D01*
X2201215Y-4006278D01*
X2209001Y-4002028D01*
X2209056Y-4002130D01*
X2209690Y-4001754D01*
X2209627Y-4001655D01*
X2217083Y-3996862D01*
X2225155Y-3993177D01*
X2262685Y-3960655D01*
X2269557Y-3955118D01*
X2280375Y-3947021D01*
X2289924Y-3937470D01*
X2296386Y-3931453D01*
X2333925Y-3898928D01*
X2338719Y-3891467D01*
X2344531Y-3884761D01*
X2344618Y-3884836D01*
X2353164Y-3874230D01*
X2756130Y-3471264D01*
X2766736Y-3462718D01*
X2766661Y-3462631D01*
X2773367Y-3456819D01*
X2780828Y-3452025D01*
X2813353Y-3414486D01*
X2819374Y-3408021D01*
X2821006Y-3406389D01*
X2828920Y-3398476D01*
X2837003Y-3387676D01*
X2842555Y-3380785D01*
X2875077Y-3343255D01*
X2878762Y-3335183D01*
X2883556Y-3327725D01*
X2883654Y-3327788D01*
X2884030Y-3327155D01*
X2883928Y-3327100D01*
X2888181Y-3319310D01*
X2893495Y-3312213D01*
X2910852Y-3265675D01*
X2914233Y-3257515D01*
X2917894Y-3249500D01*
X2934865Y-3212339D01*
X2936127Y-3203558D01*
X2938626Y-3195048D01*
X2938739Y-3195081D01*
X2938920Y-3194371D01*
X2938805Y-3194346D01*
X2940691Y-3185675D01*
X2943791Y-3177365D01*
X2947333Y-3127822D01*
X2948274Y-3119069D01*
X2950200Y-3105681D01*
X2950200Y-3092181D01*
X2950516Y-3083335D01*
X2952237Y-3059273D01*
X2954058Y-3033809D01*
X2952172Y-3025141D01*
X2951540Y-3016298D01*
X2954542Y-3016083D01*
X2956092Y-2971925D01*
X2987401Y-2919131D01*
X4407658Y-1498873D01*
X4456661Y-1468742D01*
X4513991Y-1463967D01*
X4567306Y-1485579D01*
X4600887Y-1524062D01*
X4601380Y-1523723D01*
X4630570Y-1566012D01*
X4659150Y-1607418D01*
X4675485Y-1640968D01*
X4681100Y-1677858D01*
X4681100Y-3920656D01*
X4679643Y-3934205D01*
X4679759Y-3934214D01*
X4679125Y-3943062D01*
X4677241Y-3951727D01*
X4677873Y-3960567D01*
X4677873Y-3960573D01*
X4680784Y-4001261D01*
X4681100Y-4010108D01*
X4681100Y-4023599D01*
X4682356Y-4032334D01*
X4683020Y-4036955D01*
X4683965Y-4045746D01*
X4685854Y-4072159D01*
X4687509Y-4095283D01*
X4690606Y-4103589D01*
X4692492Y-4112255D01*
X4692379Y-4112279D01*
X4692564Y-4113003D01*
X4692675Y-4112971D01*
X4695172Y-4121476D01*
X4696435Y-4130257D01*
X4700119Y-4138324D01*
X4700120Y-4138327D01*
X4717057Y-4175413D01*
X4720445Y-4183590D01*
X4734704Y-4221821D01*
X4734705Y-4221823D01*
X4737804Y-4230131D01*
X4743119Y-4237231D01*
X4747368Y-4245012D01*
X4747266Y-4245067D01*
X4747646Y-4245707D01*
X4747743Y-4245645D01*
X4752539Y-4253107D01*
X4756223Y-4261173D01*
X4788747Y-4298707D01*
X4794288Y-4305585D01*
X4802379Y-4316393D01*
X4805516Y-4319530D01*
X4811922Y-4325936D01*
X4817954Y-4332415D01*
X4844665Y-4363242D01*
X4844667Y-4363244D01*
X4850472Y-4369943D01*
X4857928Y-4374734D01*
X4864637Y-4380548D01*
X4864561Y-4380635D01*
X4875171Y-4389185D01*
X5366924Y-4880938D01*
X5390729Y-4914335D01*
X5402339Y-4953670D01*
X5408058Y-5000770D01*
X5408059Y-5000774D01*
X5408963Y-5008218D01*
X5411621Y-5015227D01*
X5411623Y-5015234D01*
X5453595Y-5125904D01*
X5464980Y-5155923D01*
X5469243Y-5162099D01*
X5540271Y-5265002D01*
X5554717Y-5285930D01*
X5560326Y-5290899D01*
X5560327Y-5290900D01*
X5663306Y-5382131D01*
X5672960Y-5390683D01*
X5812835Y-5464096D01*
X5895311Y-5484424D01*
X5944066Y-5496441D01*
X5966215Y-5501900D01*
X6116685Y-5501900D01*
X6124185Y-5501900D01*
X6277565Y-5464096D01*
X6417440Y-5390683D01*
X6535683Y-5285930D01*
X6625420Y-5155923D01*
X6636806Y-5125899D01*
X6678253Y-5070742D01*
X6742768Y-5046273D01*
X6810371Y-5060074D01*
X6854235Y-5083096D01*
X7007615Y-5120900D01*
X7158085Y-5120900D01*
X7165585Y-5120900D01*
X7318965Y-5083096D01*
X7458840Y-5009683D01*
X7577083Y-4904930D01*
X7666820Y-4774923D01*
X7722837Y-4627218D01*
X7741878Y-4470400D01*
X7722837Y-4313582D01*
X7666820Y-4165877D01*
X7602131Y-4072159D01*
X7581342Y-4042040D01*
X7581341Y-4042039D01*
X7577083Y-4035870D01*
X7562152Y-4022642D01*
X7464456Y-3936092D01*
X7464454Y-3936090D01*
X7458840Y-3931117D01*
X7452195Y-3927629D01*
X7452193Y-3927628D01*
X7325606Y-3861189D01*
X7325602Y-3861187D01*
X7318965Y-3857704D01*
X7311687Y-3855910D01*
X7311684Y-3855909D01*
X7170387Y-3821083D01*
X7112381Y-3788367D01*
X6861419Y-3537405D01*
X6834539Y-3497177D01*
X6825100Y-3449724D01*
X6825100Y-3171378D01*
X6838216Y-3115874D01*
X6874789Y-3072111D01*
X6947946Y-3017346D01*
X7034196Y-2902131D01*
X7084491Y-2767283D01*
X7090900Y-2707673D01*
X7090899Y-1711928D01*
X7084491Y-1652317D01*
X7048146Y-1554871D01*
X7035515Y-1521005D01*
X7028505Y-1463536D01*
X7048351Y-1409148D01*
X7090724Y-1369698D01*
X7146390Y-1353786D01*
X7203208Y-1364878D01*
X7223543Y-1374165D01*
X7232326Y-1375427D01*
X7240832Y-1377925D01*
X7240798Y-1378037D01*
X7241515Y-1378220D01*
X7241540Y-1378106D01*
X7250204Y-1379990D01*
X7258517Y-1383091D01*
X7308052Y-1386633D01*
X7316837Y-1387578D01*
X7330201Y-1389500D01*
X7330203Y-1389500D01*
X7330072Y-1390407D01*
X7379390Y-1405850D01*
X7420431Y-1445453D01*
X7439405Y-1499237D01*
X7432298Y-1555825D01*
X7399020Y-1645047D01*
X7399020Y-1645048D01*
X7396309Y-1652317D01*
X7395479Y-1660027D01*
X7395479Y-1660032D01*
X7390255Y-1708619D01*
X7390254Y-1708631D01*
X7389900Y-1711927D01*
X7389900Y-1715248D01*
X7389900Y-1715249D01*
X7389900Y-2704360D01*
X7389900Y-2704378D01*
X7389901Y-2707672D01*
X7390253Y-2710950D01*
X7390254Y-2710961D01*
X7395479Y-2759568D01*
X7395480Y-2759573D01*
X7396309Y-2767283D01*
X7399019Y-2774549D01*
X7399020Y-2774553D01*
X7424846Y-2843796D01*
X7446604Y-2902131D01*
X7451918Y-2909230D01*
X7451919Y-2909231D01*
X7518937Y-2998756D01*
X7532854Y-3017346D01*
X7539949Y-3022657D01*
X7539950Y-3022658D01*
X7602711Y-3069641D01*
X7639284Y-3113404D01*
X7652400Y-3168908D01*
X7652400Y-3285756D01*
X7650943Y-3299305D01*
X7651059Y-3299314D01*
X7650425Y-3308162D01*
X7648541Y-3316827D01*
X7649173Y-3325667D01*
X7649173Y-3325673D01*
X7652084Y-3366361D01*
X7652400Y-3375208D01*
X7652400Y-3388699D01*
X7654131Y-3400742D01*
X7654320Y-3402055D01*
X7655265Y-3410846D01*
X7657948Y-3448358D01*
X7658809Y-3460383D01*
X7661906Y-3468689D01*
X7663792Y-3477355D01*
X7663679Y-3477379D01*
X7663864Y-3478103D01*
X7663975Y-3478071D01*
X7666472Y-3486576D01*
X7667735Y-3495357D01*
X7671419Y-3503424D01*
X7671420Y-3503427D01*
X7688357Y-3540513D01*
X7691745Y-3548690D01*
X7706004Y-3586921D01*
X7706005Y-3586923D01*
X7709104Y-3595231D01*
X7714419Y-3602331D01*
X7718668Y-3610112D01*
X7718566Y-3610167D01*
X7718946Y-3610807D01*
X7719043Y-3610745D01*
X7723839Y-3618207D01*
X7727523Y-3626273D01*
X7760047Y-3663807D01*
X7765588Y-3670685D01*
X7773679Y-3681493D01*
X7776815Y-3684629D01*
X7776816Y-3684630D01*
X7783222Y-3691036D01*
X7789254Y-3697515D01*
X7815965Y-3728342D01*
X7815967Y-3728344D01*
X7821772Y-3735043D01*
X7829228Y-3739834D01*
X7835937Y-3745648D01*
X7835861Y-3745735D01*
X7846471Y-3754285D01*
X8398613Y-4306427D01*
X8407164Y-4317038D01*
X8407252Y-4316963D01*
X8413063Y-4323668D01*
X8417857Y-4331128D01*
X8455400Y-4363658D01*
X8461862Y-4369676D01*
X8471407Y-4379221D01*
X8479390Y-4385197D01*
X8482207Y-4387306D01*
X8489099Y-4392860D01*
X8519919Y-4419566D01*
X8519925Y-4419570D01*
X8526627Y-4425377D01*
X8534694Y-4429061D01*
X8542154Y-4433855D01*
X8542090Y-4433953D01*
X8542729Y-4434332D01*
X8542785Y-4434230D01*
X8550565Y-4438478D01*
X8557669Y-4443796D01*
X8604222Y-4461159D01*
X8612360Y-4464530D01*
X8657543Y-4485165D01*
X8666326Y-4486427D01*
X8674832Y-4488925D01*
X8674798Y-4489037D01*
X8675515Y-4489220D01*
X8675540Y-4489106D01*
X8684204Y-4490990D01*
X8692517Y-4494091D01*
X8742052Y-4497633D01*
X8750837Y-4498578D01*
X8764201Y-4500500D01*
X8777692Y-4500500D01*
X8786538Y-4500815D01*
X8836073Y-4504359D01*
X8844739Y-4502473D01*
X8853586Y-4501841D01*
X8853594Y-4501956D01*
X8867144Y-4500500D01*
X8943481Y-4500500D01*
X8990934Y-4509939D01*
X9031163Y-4536820D01*
X9058043Y-4577049D01*
X9061650Y-4585759D01*
X9064034Y-4597740D01*
X9119399Y-4680601D01*
X9129551Y-4687384D01*
X9143788Y-4696897D01*
X9184256Y-4741546D01*
X9198898Y-4800000D01*
X9184256Y-4858454D01*
X9143788Y-4903103D01*
X9129551Y-4912615D01*
X9129548Y-4912617D01*
X9119399Y-4919399D01*
X9112617Y-4929548D01*
X9112615Y-4929551D01*
X9070820Y-4992103D01*
X9070819Y-4992105D01*
X9064034Y-5002260D01*
X9061651Y-5014235D01*
X9061650Y-5014240D01*
X9050689Y-5069346D01*
X9050688Y-5069351D01*
X9049500Y-5075326D01*
X9049500Y-6124674D01*
X9050688Y-6130649D01*
X9050689Y-6130653D01*
X9061650Y-6185759D01*
X9061651Y-6185762D01*
X9064034Y-6197740D01*
X9119399Y-6280601D01*
X9202260Y-6335966D01*
X9275326Y-6350500D01*
X10818579Y-6350500D01*
X10824674Y-6350500D01*
X10897740Y-6335966D01*
X10980601Y-6280601D01*
X11035966Y-6197740D01*
X11038349Y-6185758D01*
X11041957Y-6177049D01*
X11068837Y-6136820D01*
X11109066Y-6109939D01*
X11156519Y-6100500D01*
X11232856Y-6100500D01*
X11246405Y-6101956D01*
X11246414Y-6101841D01*
X11255260Y-6102473D01*
X11263927Y-6104359D01*
X11313461Y-6100815D01*
X11322308Y-6100500D01*
X11331365Y-6100500D01*
X11335799Y-6100500D01*
X11349162Y-6098578D01*
X11357949Y-6097633D01*
X11407483Y-6094091D01*
X11415793Y-6090990D01*
X11424460Y-6089106D01*
X11424484Y-6089220D01*
X11425202Y-6089037D01*
X11425169Y-6088925D01*
X11433675Y-6086427D01*
X11442457Y-6085165D01*
X11487647Y-6064526D01*
X11495787Y-6061155D01*
X11542331Y-6043796D01*
X11549433Y-6038478D01*
X11557219Y-6034228D01*
X11557274Y-6034330D01*
X11557908Y-6033954D01*
X11557845Y-6033855D01*
X11565301Y-6029062D01*
X11573373Y-6025377D01*
X11610903Y-5992855D01*
X11617775Y-5987318D01*
X11628593Y-5979221D01*
X11638142Y-5969670D01*
X11644604Y-5963653D01*
X11682143Y-5931128D01*
X11686937Y-5923667D01*
X11692749Y-5916961D01*
X11692836Y-5917036D01*
X11701382Y-5906430D01*
X12066630Y-5541182D01*
X12077236Y-5532636D01*
X12077161Y-5532549D01*
X12083867Y-5526737D01*
X12091328Y-5521943D01*
X12123853Y-5484404D01*
X12129874Y-5477939D01*
X12130491Y-5477322D01*
X12139421Y-5468393D01*
X12147518Y-5457575D01*
X12153055Y-5450703D01*
X12185577Y-5413173D01*
X12189262Y-5405101D01*
X12194055Y-5397645D01*
X12194154Y-5397708D01*
X12194530Y-5397074D01*
X12194428Y-5397019D01*
X12198678Y-5389233D01*
X12203996Y-5382131D01*
X12221355Y-5335587D01*
X12224726Y-5327447D01*
X12245365Y-5282257D01*
X12246627Y-5273475D01*
X12249125Y-5264969D01*
X12249237Y-5265002D01*
X12249420Y-5264284D01*
X12249306Y-5264260D01*
X12251190Y-5255593D01*
X12254291Y-5247283D01*
X12257833Y-5197749D01*
X12258778Y-5188962D01*
X12260700Y-5175599D01*
X12260700Y-5162099D01*
X12261016Y-5153261D01*
X12262973Y-5125904D01*
X12264559Y-5103727D01*
X12262673Y-5095060D01*
X12262041Y-5086214D01*
X12262156Y-5086205D01*
X12260700Y-5072656D01*
X12260700Y-4624500D01*
X12277313Y-4562500D01*
X12322700Y-4517113D01*
X12384700Y-4500500D01*
X13843481Y-4500500D01*
X13890934Y-4509939D01*
X13931163Y-4536820D01*
X13958043Y-4577049D01*
X13961650Y-4585759D01*
X13964034Y-4597740D01*
X14019399Y-4680601D01*
X14029551Y-4687384D01*
X14043788Y-4696897D01*
X14084256Y-4741546D01*
X14098898Y-4800000D01*
X14084256Y-4858454D01*
X14043788Y-4903103D01*
X14029551Y-4912615D01*
X14029548Y-4912617D01*
X14019399Y-4919399D01*
X14012617Y-4929548D01*
X14012615Y-4929551D01*
X13970820Y-4992103D01*
X13970819Y-4992105D01*
X13964034Y-5002260D01*
X13961651Y-5014235D01*
X13961650Y-5014240D01*
X13950689Y-5069346D01*
X13950688Y-5069351D01*
X13949500Y-5075326D01*
X13949500Y-6124674D01*
X13950688Y-6130649D01*
X13950689Y-6130653D01*
X13961650Y-6185759D01*
X13961651Y-6185762D01*
X13964034Y-6197740D01*
X14019399Y-6280601D01*
X14102260Y-6335966D01*
X14175326Y-6350500D01*
X15718579Y-6350500D01*
X15724674Y-6350500D01*
X15797740Y-6335966D01*
X15880601Y-6280601D01*
X15935966Y-6197740D01*
X15950500Y-6124674D01*
X15950500Y-5075326D01*
X15935966Y-5002260D01*
X15880601Y-4919399D01*
X15856212Y-4903103D01*
X15815743Y-4858455D01*
X15801101Y-4800000D01*
X15815743Y-4741545D01*
X15856213Y-4696896D01*
X15880601Y-4680601D01*
X15935966Y-4597740D01*
X15950500Y-4524674D01*
X15950500Y-3475326D01*
X15935966Y-3402260D01*
X15880601Y-3319399D01*
X15856212Y-3303103D01*
X15815743Y-3258455D01*
X15801101Y-3200000D01*
X15815743Y-3141545D01*
X15856213Y-3096896D01*
X15880601Y-3080601D01*
X15935966Y-2997740D01*
X15950500Y-2924674D01*
X15950500Y-1875326D01*
X15935966Y-1802260D01*
X15880601Y-1719399D01*
X15870446Y-1712614D01*
X15815833Y-1676123D01*
X15797740Y-1664034D01*
X15785762Y-1661651D01*
X15785759Y-1661650D01*
X15730653Y-1650689D01*
X15730649Y-1650688D01*
X15724674Y-1649500D01*
X14175326Y-1649500D01*
X14169351Y-1650688D01*
X14169346Y-1650689D01*
X14114240Y-1661650D01*
X14114235Y-1661651D01*
X14102260Y-1664034D01*
X14092106Y-1670818D01*
X14092100Y-1670821D01*
X14052465Y-1697304D01*
X13999760Y-1717140D01*
X13943717Y-1711620D01*
X13895895Y-1681882D01*
X13750945Y-1536932D01*
X13556074Y-1342060D01*
X13532268Y-1308661D01*
X13520659Y-1269324D01*
X13514941Y-1222229D01*
X13514037Y-1214782D01*
X13458020Y-1067077D01*
X13368283Y-937070D01*
X13250040Y-832317D01*
X13243395Y-828829D01*
X13243393Y-828828D01*
X13116806Y-762389D01*
X13116802Y-762387D01*
X13110165Y-758904D01*
X13102887Y-757110D01*
X13102884Y-757109D01*
X12964067Y-722894D01*
X12964060Y-722893D01*
X12956785Y-721100D01*
X12798815Y-721100D01*
X12791534Y-722894D01*
X12791530Y-722895D01*
X12733321Y-737242D01*
X12664379Y-734463D01*
X12607595Y-695267D01*
X12580552Y-631791D01*
X12574237Y-579782D01*
X12518220Y-432077D01*
X12460450Y-348382D01*
X12444115Y-314832D01*
X12438500Y-277942D01*
X12438500Y-194144D01*
X12439956Y-180594D01*
X12439841Y-180586D01*
X12440473Y-171739D01*
X12442359Y-163073D01*
X12438815Y-113538D01*
X12438500Y-104692D01*
X12438500Y-95636D01*
X12438500Y-91201D01*
X12436578Y-77837D01*
X12435633Y-69046D01*
X12433329Y-36832D01*
X12432091Y-19517D01*
X12428990Y-11204D01*
X12427106Y-2540D01*
X12427220Y-2515D01*
X12427037Y-1797D01*
X12426925Y-1831D01*
X12424427Y6673D01*
X12423165Y15457D01*
X12402526Y60647D01*
X12399155Y68787D01*
X12381796Y115331D01*
X12376478Y122433D01*
X12372228Y130219D01*
X12372330Y130274D01*
X12371954Y130908D01*
X12371855Y130845D01*
X12367062Y138301D01*
X12363377Y146373D01*
X12330855Y183903D01*
X12325318Y190775D01*
X12317221Y201593D01*
X12307670Y211142D01*
X12301653Y217604D01*
X12269128Y255143D01*
X12261667Y259937D01*
X12254961Y265749D01*
X12255036Y265836D01*
X12244430Y274382D01*
X11346271Y1172541D01*
X11322468Y1205937D01*
X11310859Y1245275D01*
X11305141Y1292369D01*
X11304237Y1299818D01*
X11248220Y1447523D01*
X11158483Y1577530D01*
X11065029Y1660321D01*
X11034699Y1701109D01*
X11023281Y1750640D01*
X11031848Y1796096D01*
X11035966Y1802260D01*
X11050500Y1875326D01*
X11050500Y2091324D01*
X11059939Y2138777D01*
X11086819Y2179005D01*
X12370995Y3463181D01*
X12411223Y3490061D01*
X12458676Y3499500D01*
X13843481Y3499500D01*
X13890934Y3490061D01*
X13931163Y3463180D01*
X13958043Y3422951D01*
X13961651Y3414240D01*
X13964034Y3402260D01*
X13970818Y3392105D01*
X13970819Y3392105D01*
X14012615Y3329551D01*
X14012617Y3329548D01*
X14019399Y3319399D01*
X14029548Y3312617D01*
X14029551Y3312615D01*
X14043788Y3303103D01*
X14084256Y3258454D01*
X14098898Y3200000D01*
X14084256Y3141546D01*
X14043788Y3096897D01*
X14019399Y3080601D01*
X13964034Y2997740D01*
X13961651Y2985762D01*
X13961650Y2985759D01*
X13950689Y2930653D01*
X13949500Y2924674D01*
X13949500Y1875326D01*
X13950688Y1869351D01*
X13950689Y1869346D01*
X13961650Y1814240D01*
X13961651Y1814235D01*
X13964034Y1802260D01*
X13970819Y1792105D01*
X13970820Y1792103D01*
X14012615Y1729551D01*
X14012617Y1729548D01*
X14019399Y1719399D01*
X14029548Y1712617D01*
X14029551Y1712615D01*
X14092103Y1670820D01*
X14092105Y1670819D01*
X14102260Y1664034D01*
X14114235Y1661651D01*
X14114240Y1661650D01*
X14169346Y1650689D01*
X14169351Y1650688D01*
X14175326Y1649500D01*
X15718579Y1649500D01*
X15724674Y1649500D01*
X15730649Y1650688D01*
X15730653Y1650689D01*
X15785759Y1661650D01*
X15785762Y1661651D01*
X15797740Y1664034D01*
X15880601Y1719399D01*
X15935966Y1802260D01*
X15950500Y1875326D01*
X15950500Y2924674D01*
X15935966Y2997740D01*
X15880601Y3080601D01*
X15856212Y3096897D01*
X15815743Y3141545D01*
X15801101Y3200000D01*
X15815743Y3258455D01*
X15856213Y3303104D01*
X15870448Y3312615D01*
X15880601Y3319399D01*
X15935966Y3402260D01*
X15950500Y3475326D01*
X15950500Y4524674D01*
X15935966Y4597740D01*
X15880601Y4680601D01*
X15856212Y4696897D01*
X15815743Y4741545D01*
X15801101Y4800000D01*
X15815743Y4858455D01*
X15856213Y4903104D01*
X15870448Y4912615D01*
X15880601Y4919399D01*
X15935966Y5002260D01*
X15950500Y5075326D01*
X15950500Y6124674D01*
X15935966Y6197740D01*
X15880601Y6280601D01*
X15797740Y6335966D01*
X15724674Y6350500D01*
X14175326Y6350500D01*
X14102260Y6335966D01*
X14019399Y6280601D01*
X13964034Y6197740D01*
X13961855Y6186789D01*
X13920238Y6134217D01*
X13856490Y6111136D01*
X13790135Y6125031D01*
X13694365Y6175296D01*
X13540985Y6213100D01*
X13383015Y6213100D01*
X13229635Y6175296D01*
X13089760Y6101883D01*
X13084143Y6096907D01*
X13035444Y6053764D01*
X12971517Y5997130D01*
X12967259Y5990961D01*
X12967257Y5990959D01*
X12936722Y5946721D01*
X12881780Y5867123D01*
X12879119Y5860107D01*
X12879118Y5860105D01*
X12865170Y5823327D01*
X12825763Y5719418D01*
X12824859Y5711975D01*
X12824858Y5711970D01*
X12809551Y5585903D01*
X12806722Y5562600D01*
X12807626Y5555155D01*
X12824858Y5413229D01*
X12824859Y5413222D01*
X12825763Y5405782D01*
X12828422Y5398770D01*
X12828423Y5398767D01*
X12879118Y5265094D01*
X12879120Y5265088D01*
X12881780Y5258077D01*
X12886040Y5251903D01*
X12886043Y5251900D01*
X12967257Y5134240D01*
X12967262Y5134234D01*
X12971517Y5128070D01*
X12977122Y5123103D01*
X12977127Y5123099D01*
X13084143Y5028292D01*
X13084148Y5028287D01*
X13089760Y5023317D01*
X13096400Y5019831D01*
X13096406Y5019828D01*
X13222993Y4953389D01*
X13223000Y4953386D01*
X13229635Y4949904D01*
X13236909Y4948110D01*
X13236915Y4948109D01*
X13375732Y4913894D01*
X13375740Y4913892D01*
X13383015Y4912100D01*
X13533485Y4912100D01*
X13540985Y4912100D01*
X13548260Y4913893D01*
X13548267Y4913894D01*
X13687084Y4948109D01*
X13687087Y4948110D01*
X13694365Y4949904D01*
X13701002Y4953387D01*
X13701006Y4953389D01*
X13821155Y5016449D01*
X13879405Y5030651D01*
X13937508Y5015864D01*
X13981883Y4975545D01*
X14012615Y4929551D01*
X14012617Y4929548D01*
X14019399Y4919399D01*
X14029548Y4912617D01*
X14029551Y4912615D01*
X14043788Y4903103D01*
X14084256Y4858454D01*
X14098898Y4800000D01*
X14084256Y4741546D01*
X14043788Y4696897D01*
X14019399Y4680601D01*
X13964034Y4597740D01*
X13961650Y4585759D01*
X13958043Y4577049D01*
X13931163Y4536820D01*
X13890934Y4509939D01*
X13843481Y4500500D01*
X12267144Y4500500D01*
X12253594Y4501956D01*
X12253586Y4501841D01*
X12244739Y4502473D01*
X12236073Y4504359D01*
X12187336Y4500873D01*
X12186539Y4500816D01*
X12177692Y4500500D01*
X12164201Y4500500D01*
X12150837Y4498578D01*
X12142052Y4497633D01*
X12092517Y4494091D01*
X12084204Y4490990D01*
X12075540Y4489106D01*
X12075515Y4489220D01*
X12074798Y4489037D01*
X12074832Y4488925D01*
X12066326Y4486427D01*
X12057543Y4485165D01*
X12012360Y4464530D01*
X12004222Y4461159D01*
X11957669Y4443796D01*
X11950565Y4438478D01*
X11942785Y4434230D01*
X11942729Y4434332D01*
X11942090Y4433953D01*
X11942154Y4433855D01*
X11934694Y4429061D01*
X11926627Y4425377D01*
X11919925Y4419570D01*
X11919919Y4419566D01*
X11889099Y4392860D01*
X11882207Y4387306D01*
X11879390Y4385197D01*
X11871407Y4379221D01*
X11868270Y4376084D01*
X11861862Y4369676D01*
X11855400Y4363658D01*
X11817857Y4331128D01*
X11813063Y4323668D01*
X11807252Y4316963D01*
X11807164Y4317038D01*
X11798613Y4306427D01*
X11262181Y3769995D01*
X11212818Y3739745D01*
X11155102Y3735203D01*
X11101615Y3757358D01*
X11064015Y3801381D01*
X11050500Y3857676D01*
X11050500Y4518579D01*
X11050500Y4524674D01*
X11035966Y4597740D01*
X10980601Y4680601D01*
X10956212Y4696897D01*
X10915743Y4741545D01*
X10901101Y4800000D01*
X10915743Y4858455D01*
X10956213Y4903104D01*
X10970448Y4912615D01*
X10980601Y4919399D01*
X11035966Y5002260D01*
X11050500Y5075326D01*
X11050500Y6124674D01*
X11035966Y6197740D01*
X10980601Y6280601D01*
X10897740Y6335966D01*
X10824674Y6350500D01*
X9275326Y6350500D01*
X9202260Y6335966D01*
X9119399Y6280601D01*
X9064034Y6197740D01*
X9061651Y6185762D01*
X9061650Y6185759D01*
X9051398Y6134217D01*
X9049500Y6124674D01*
X9049500Y5075326D01*
X9050688Y5069351D01*
X9050689Y5069346D01*
X9061650Y5014240D01*
X9061651Y5014235D01*
X9064034Y5002260D01*
X9070819Y4992105D01*
X9070820Y4992103D01*
X9112615Y4929551D01*
X9112617Y4929548D01*
X9119399Y4919399D01*
X9129548Y4912617D01*
X9129551Y4912615D01*
X9143788Y4903103D01*
X9184256Y4858454D01*
X9198898Y4800000D01*
X9184256Y4741546D01*
X9143788Y4696897D01*
X9119399Y4680601D01*
X9064034Y4597740D01*
X9061651Y4585762D01*
X9061650Y4585759D01*
X9051916Y4536820D01*
X9049500Y4524674D01*
X9049500Y4518579D01*
X9049500Y4308676D01*
X9040061Y4261223D01*
X9013181Y4220995D01*
X7768871Y2976685D01*
X7758261Y2968135D01*
X7758337Y2968048D01*
X7751628Y2962234D01*
X7744172Y2957443D01*
X7738367Y2950744D01*
X7738365Y2950742D01*
X7711654Y2919915D01*
X7705622Y2913436D01*
X7696079Y2903893D01*
X7693420Y2900341D01*
X7687989Y2893086D01*
X7682447Y2886207D01*
X7649923Y2848673D01*
X7646239Y2840607D01*
X7641443Y2833145D01*
X7641346Y2833207D01*
X7640966Y2832567D01*
X7641068Y2832512D01*
X7636819Y2824731D01*
X7631504Y2817631D01*
X7628405Y2809323D01*
X7628404Y2809321D01*
X7614145Y2771090D01*
X7610757Y2762913D01*
X7593940Y2726088D01*
X7590135Y2717757D01*
X7588872Y2708976D01*
X7586375Y2700471D01*
X7586264Y2700503D01*
X7586079Y2699779D01*
X7586192Y2699755D01*
X7584306Y2691089D01*
X7581209Y2682783D01*
X7580576Y2673942D01*
X7580576Y2673940D01*
X7577665Y2633246D01*
X7576720Y2624456D01*
X7574800Y2611099D01*
X7574800Y2606670D01*
X7574800Y2597608D01*
X7574484Y2588761D01*
X7570941Y2539227D01*
X7572826Y2530560D01*
X7573459Y2521714D01*
X7573343Y2521705D01*
X7574800Y2508156D01*
X7574800Y2457708D01*
X7561684Y2402204D01*
X7525111Y2358441D01*
X7455254Y2306146D01*
X7449941Y2299049D01*
X7394335Y2224769D01*
X7369004Y2190931D01*
X7351923Y2145134D01*
X7321421Y2063353D01*
X7318709Y2056083D01*
X7317879Y2048370D01*
X7317879Y2048367D01*
X7312655Y1999780D01*
X7312654Y1999769D01*
X7312300Y1996473D01*
X7312300Y1993150D01*
X7312300Y1004039D01*
X7312300Y1004020D01*
X7312301Y1000728D01*
X7312653Y997450D01*
X7312654Y997438D01*
X7317879Y948831D01*
X7317880Y948825D01*
X7318709Y941117D01*
X7321418Y933852D01*
X7321420Y933846D01*
X7365904Y814580D01*
X7369004Y806269D01*
X7374316Y799172D01*
X7374319Y799168D01*
X7449941Y698150D01*
X7449944Y698146D01*
X7455254Y691054D01*
X7462346Y685744D01*
X7462350Y685741D01*
X7563368Y610119D01*
X7563372Y610116D01*
X7570469Y604804D01*
X7578773Y601706D01*
X7578782Y601702D01*
X7602745Y592765D01*
X7658267Y551440D01*
X7682989Y486792D01*
X7671977Y432585D01*
X7674780Y431523D01*
X7632355Y319656D01*
X7618763Y283818D01*
X7617859Y276375D01*
X7617858Y276370D01*
X7602888Y153076D01*
X7599722Y127000D01*
X7600626Y119555D01*
X7617858Y-22370D01*
X7617859Y-22375D01*
X7618763Y-29818D01*
X7621422Y-36831D01*
X7621423Y-36832D01*
X7660830Y-140741D01*
X7666857Y-207064D01*
X7637703Y-266939D01*
X7581778Y-303097D01*
X7515213Y-305109D01*
X7457207Y-272393D01*
X7289506Y-104692D01*
X6756168Y428644D01*
X6722685Y489964D01*
X6727669Y559656D01*
X6769540Y615589D01*
X6863245Y685737D01*
X6863249Y685741D01*
X6870346Y691054D01*
X6956596Y806269D01*
X7006891Y941117D01*
X7013300Y1000727D01*
X7013299Y1996472D01*
X7006891Y2056083D01*
X6956596Y2190931D01*
X6870346Y2306146D01*
X6755131Y2392396D01*
X6620283Y2442691D01*
X6560673Y2449100D01*
X5939928Y2449099D01*
X5880317Y2442691D01*
X5745469Y2392396D01*
X5630254Y2306146D01*
X5624941Y2299049D01*
X5569335Y2224769D01*
X5544004Y2190931D01*
X5526923Y2145134D01*
X5496421Y2063353D01*
X5493709Y2056083D01*
X5492879Y2048370D01*
X5492879Y2048367D01*
X5487655Y1999780D01*
X5487654Y1999769D01*
X5487300Y1996473D01*
X5487300Y1993150D01*
X5487300Y1004039D01*
X5487300Y1004020D01*
X5487301Y1000728D01*
X5487653Y997448D01*
X5487654Y997440D01*
X5490760Y968554D01*
X5479006Y901118D01*
X5433263Y850194D01*
X5367470Y831300D01*
X4606713Y831300D01*
X4593163Y832756D01*
X4593155Y832641D01*
X4584308Y833273D01*
X4575642Y835159D01*
X4526108Y831616D01*
X4517261Y831300D01*
X4503770Y831300D01*
X4490406Y829378D01*
X4481621Y828433D01*
X4432086Y824891D01*
X4423773Y821790D01*
X4415109Y819906D01*
X4415084Y820020D01*
X4414367Y819837D01*
X4414401Y819725D01*
X4405895Y817227D01*
X4397112Y815965D01*
X4351929Y795330D01*
X4343791Y791959D01*
X4297238Y774596D01*
X4290134Y769278D01*
X4282354Y765030D01*
X4282298Y765132D01*
X4281659Y764753D01*
X4281723Y764655D01*
X4274263Y759861D01*
X4266196Y756177D01*
X4259494Y750370D01*
X4259488Y750366D01*
X4228668Y723660D01*
X4221776Y718106D01*
X4218959Y715997D01*
X4210976Y710021D01*
X4207839Y706884D01*
X4201431Y700476D01*
X4194969Y694458D01*
X4157426Y661928D01*
X4152632Y654468D01*
X4146821Y647763D01*
X4146733Y647838D01*
X4138182Y637227D01*
X3729309Y228354D01*
X3680297Y198219D01*
X3622961Y193448D01*
X3569643Y215069D01*
X3536425Y253149D01*
X3535830Y252739D01*
X3446093Y382746D01*
X3327850Y487499D01*
X3327961Y487625D01*
X3291571Y528701D01*
X3277367Y586327D01*
X3277367Y1713544D01*
X3286806Y1760997D01*
X3313686Y1801225D01*
X3510054Y1997593D01*
X3551644Y2025028D01*
X3600675Y2033877D01*
X3643182Y2024103D01*
X3643509Y2024980D01*
X3647649Y2023435D01*
X3651684Y2021593D01*
X3655934Y2020344D01*
X3655937Y2020344D01*
X3717197Y2002356D01*
X3717205Y2002354D01*
X3720428Y2001407D01*
X3720430Y2001407D01*
X3721436Y2001112D01*
X3721383Y2000931D01*
X3774136Y1974611D01*
X3809128Y1924652D01*
X3842651Y1836259D01*
X3842653Y1836255D01*
X3845312Y1829244D01*
X3849572Y1823070D01*
X3849575Y1823067D01*
X3930789Y1705407D01*
X3930794Y1705401D01*
X3935049Y1699237D01*
X3940654Y1694270D01*
X3940659Y1694266D01*
X4047675Y1599459D01*
X4047680Y1599454D01*
X4053292Y1594484D01*
X4059932Y1590998D01*
X4059938Y1590995D01*
X4186525Y1524556D01*
X4186532Y1524553D01*
X4193167Y1521071D01*
X4200441Y1519277D01*
X4200447Y1519276D01*
X4339264Y1485061D01*
X4339272Y1485059D01*
X4346547Y1483267D01*
X4497017Y1483267D01*
X4504517Y1483267D01*
X4511792Y1485060D01*
X4511799Y1485061D01*
X4650616Y1519276D01*
X4650619Y1519277D01*
X4657897Y1521071D01*
X4664534Y1524554D01*
X4664538Y1524556D01*
X4791125Y1590995D01*
X4791127Y1590996D01*
X4797772Y1594484D01*
X4872088Y1660321D01*
X4910404Y1694266D01*
X4916015Y1699237D01*
X4920670Y1705980D01*
X4961343Y1764906D01*
X5005752Y1829244D01*
X5061769Y1976949D01*
X5080810Y2133767D01*
X5079906Y2141212D01*
X5079906Y2145134D01*
X5088788Y2191220D01*
X5114163Y2230704D01*
X5152390Y2257925D01*
X5187736Y2274067D01*
X5195890Y2277445D01*
X5234121Y2291704D01*
X5234123Y2291705D01*
X5242431Y2294804D01*
X5249531Y2300119D01*
X5257312Y2304368D01*
X5257367Y2304266D01*
X5258007Y2304646D01*
X5257945Y2304743D01*
X5265407Y2309539D01*
X5273473Y2313223D01*
X5311007Y2345747D01*
X5317886Y2351289D01*
X5325141Y2356720D01*
X5328693Y2359379D01*
X5338236Y2368922D01*
X5344715Y2374954D01*
X5375542Y2401665D01*
X5375544Y2401667D01*
X5382243Y2407472D01*
X5387034Y2414928D01*
X5392848Y2421637D01*
X5392935Y2421561D01*
X5401485Y2432171D01*
X7850227Y4880913D01*
X7860838Y4889464D01*
X7860763Y4889552D01*
X7867468Y4895363D01*
X7874928Y4900157D01*
X7907458Y4937700D01*
X7913476Y4944162D01*
X7919884Y4950570D01*
X7923021Y4953707D01*
X7931106Y4964507D01*
X7936660Y4971399D01*
X7963366Y5002219D01*
X7963370Y5002225D01*
X7969177Y5008927D01*
X7972861Y5016994D01*
X7977655Y5024454D01*
X7977753Y5024390D01*
X7978132Y5025029D01*
X7978030Y5025085D01*
X7982278Y5032865D01*
X7987596Y5039969D01*
X8004959Y5086522D01*
X8008330Y5094660D01*
X8028965Y5139843D01*
X8030227Y5148626D01*
X8032725Y5157132D01*
X8032837Y5157098D01*
X8033020Y5157815D01*
X8032906Y5157840D01*
X8034790Y5166504D01*
X8037891Y5174817D01*
X8041433Y5224352D01*
X8042378Y5233137D01*
X8044300Y5246501D01*
X8044300Y5259992D01*
X8044616Y5268839D01*
X8047526Y5309526D01*
X8048159Y5318373D01*
X8046273Y5327039D01*
X8045641Y5335886D01*
X8045756Y5335894D01*
X8044300Y5349444D01*
X8044300Y5808255D01*
X8063984Y5875294D01*
X8116788Y5921049D01*
X8168974Y5944882D01*
X8173001Y5946721D01*
X8176718Y5949110D01*
X8176722Y5949112D01*
X8230424Y5983624D01*
X8230426Y5983625D01*
X8234155Y5986022D01*
X8246975Y5997130D01*
X8339467Y6077274D01*
X8342816Y6080176D01*
X8376092Y6118579D01*
X8387517Y6131764D01*
X8390424Y6135119D01*
X8445885Y6221418D01*
X8465761Y6252346D01*
X8465762Y6252347D01*
X8468156Y6256073D01*
X8498355Y6322200D01*
X8538862Y6460155D01*
X8549208Y6532111D01*
X8549208Y7104000D01*
X8529766Y7201740D01*
X8524619Y7209442D01*
X8515756Y7254000D01*
X8524619Y7298557D01*
X8529766Y7306260D01*
X8549208Y7404000D01*
X8549208Y7975889D01*
X8538862Y8047845D01*
X8498355Y8185800D01*
X8468156Y8251927D01*
X8390424Y8372881D01*
X8342816Y8427824D01*
X8234155Y8521978D01*
X8173001Y8561279D01*
X8042216Y8621007D01*
X7972464Y8641488D01*
X7830149Y8661950D01*
X7757451Y8661950D01*
X7753070Y8661320D01*
X7753068Y8661320D01*
X7748547Y8660670D01*
X7730901Y8659408D01*
X7356699Y8659408D01*
X7339053Y8660670D01*
X7334531Y8661320D01*
X7334530Y8661320D01*
X7330149Y8661950D01*
X7257451Y8661950D01*
X7115136Y8641488D01*
X7045384Y8621007D01*
X6914599Y8561279D01*
X6853445Y8521978D01*
X6758450Y8439665D01*
X6752820Y8434787D01*
X6714951Y8412318D01*
X6671618Y8404500D01*
X4894700Y8404500D01*
X4847247Y8413939D01*
X4807019Y8440819D01*
X4684721Y8563117D01*
X4528165Y8719672D01*
X4495913Y8775861D01*
X4496402Y8840648D01*
X4529501Y8896346D01*
X4586172Y8927748D01*
X4599743Y8931093D01*
X4626565Y8937704D01*
X4633202Y8941187D01*
X4633206Y8941189D01*
X4759793Y9007628D01*
X4759795Y9007629D01*
X4766440Y9011117D01*
X4772055Y9016092D01*
X4772060Y9016095D01*
X4784952Y9027516D01*
X4833735Y9054105D01*
X4889232Y9056723D01*
X4940300Y9034845D01*
X4973807Y9010379D01*
X4976683Y9008718D01*
X4976690Y9008714D01*
X5508508Y8701670D01*
X5508527Y8701660D01*
X5511389Y8700008D01*
X5514419Y8698667D01*
X5514430Y8698662D01*
X5559123Y8678890D01*
X5559125Y8678889D01*
X5566217Y8675752D01*
X5573858Y8674466D01*
X5573865Y8674465D01*
X5699399Y8653354D01*
X5699405Y8653353D01*
X5708146Y8651884D01*
X5716952Y8652937D01*
X5842247Y8667919D01*
X5842248Y8667919D01*
X5851051Y8668972D01*
X5859194Y8672459D01*
X5859201Y8672461D01*
X5975204Y8722136D01*
X5975206Y8722137D01*
X5983353Y8725626D01*
X5990185Y8731267D01*
X5990188Y8731269D01*
X6088353Y8812321D01*
X6088355Y8812323D01*
X6094334Y8817260D01*
X6101451Y8827006D01*
X6120158Y8852626D01*
X6129689Y8865679D01*
X6627561Y9728020D01*
X6651817Y9782849D01*
X6675684Y9924778D01*
X6658597Y10067682D01*
X6627565Y10140149D01*
X7582086Y10140149D01*
X7583139Y10131342D01*
X7583139Y10131341D01*
X7598120Y10006047D01*
X7598120Y10006043D01*
X7599173Y9997245D01*
X7602661Y9989099D01*
X7602662Y9989096D01*
X7652336Y9873093D01*
X7652338Y9873089D01*
X7655827Y9864942D01*
X7661472Y9858105D01*
X7661474Y9858102D01*
X7742521Y9759944D01*
X7742524Y9759940D01*
X7747461Y9753962D01*
X7753715Y9749394D01*
X7753723Y9749388D01*
X7793197Y9720565D01*
X7793207Y9720558D01*
X7795881Y9718606D01*
X7798753Y9716947D01*
X7798762Y9716942D01*
X8915150Y9072396D01*
X8915167Y9072387D01*
X8918029Y9070735D01*
X8921051Y9069397D01*
X8921065Y9069391D01*
X8965764Y9049616D01*
X8965773Y9049613D01*
X8972858Y9046479D01*
X8980501Y9045193D01*
X8980507Y9045192D01*
X9106040Y9024081D01*
X9106046Y9024080D01*
X9114787Y9022611D01*
X9123593Y9023664D01*
X9248887Y9038646D01*
X9248888Y9038646D01*
X9257691Y9039699D01*
X9265834Y9043186D01*
X9265841Y9043188D01*
X9381844Y9092863D01*
X9381846Y9092864D01*
X9389993Y9096353D01*
X9396825Y9101994D01*
X9396828Y9101996D01*
X9494993Y9183048D01*
X9494995Y9183050D01*
X9500974Y9187987D01*
X9536329Y9236406D01*
X10169919Y10333817D01*
X10307539Y10572182D01*
X10307540Y10572184D01*
X10309201Y10575061D01*
X10333457Y10629890D01*
X10357324Y10771819D01*
X10340237Y10914723D01*
X10283583Y11047026D01*
X10191949Y11158006D01*
X10143529Y11193362D01*
X9021381Y11841233D01*
X8966552Y11865489D01*
X8824623Y11889357D01*
X8681719Y11872269D01*
X8673570Y11868779D01*
X8673568Y11868779D01*
X8599828Y11837202D01*
X8549417Y11815615D01*
X8542582Y11809971D01*
X8542581Y11809971D01*
X8444416Y11728919D01*
X8444414Y11728917D01*
X8438436Y11723981D01*
X8433862Y11717718D01*
X8433860Y11717715D01*
X8418146Y11696194D01*
X8403081Y11675562D01*
X8277189Y11457511D01*
X7631870Y10339785D01*
X7631865Y10339776D01*
X7630209Y10336907D01*
X7628868Y10333876D01*
X7628865Y10333870D01*
X7622212Y10318830D01*
X7605953Y10282078D01*
X7604667Y10274431D01*
X7583556Y10148896D01*
X7583555Y10148889D01*
X7582086Y10140149D01*
X6627565Y10140149D01*
X6601942Y10199985D01*
X6518594Y10300928D01*
X6493176Y10352939D01*
X6494140Y10410826D01*
X6521279Y10461965D01*
X6568676Y10495210D01*
X6626001Y10503314D01*
X6736264Y10492786D01*
X6736265Y10492786D01*
X6742140Y10492225D01*
X6748015Y10492786D01*
X6945477Y10511641D01*
X6945481Y10511641D01*
X6951358Y10512203D01*
X7072886Y10547887D01*
X7147352Y10569752D01*
X7147353Y10569752D01*
X7153015Y10571415D01*
X7339822Y10667720D01*
X7468285Y10768744D01*
X7500381Y10793984D01*
X7500383Y10793986D01*
X7505027Y10797638D01*
X7591667Y10897626D01*
X7638792Y10952011D01*
X7638792Y10952012D01*
X7642659Y10956474D01*
X7803445Y11234963D01*
X7844938Y11306831D01*
X7844940Y11306835D01*
X7846414Y11309388D01*
X7911845Y11452661D01*
X7961394Y11656907D01*
X7971395Y11866839D01*
X7941484Y12074869D01*
X7872745Y12273481D01*
X7767661Y12455493D01*
X7630029Y12614329D01*
X7464823Y12744248D01*
X7278017Y12840554D01*
X7076360Y12899765D01*
X6867142Y12919743D01*
X6657924Y12899766D01*
X6456267Y12840553D01*
X6269460Y12744248D01*
X6104255Y12614330D01*
X6100387Y12609866D01*
X6100386Y12609865D01*
X6032910Y12531993D01*
X5966623Y12455494D01*
X5963670Y12450379D01*
X5764343Y12105136D01*
X5764337Y12105124D01*
X5762868Y12102580D01*
X5761647Y12099908D01*
X5761641Y12099895D01*
X5721303Y12011566D01*
X5697437Y11959308D01*
X5696045Y11953573D01*
X5696045Y11953571D01*
X5659921Y11804662D01*
X5647888Y11755062D01*
X5647607Y11749164D01*
X5638167Y11551019D01*
X5638167Y11551012D01*
X5637887Y11545129D01*
X5638725Y11539296D01*
X5638726Y11539288D01*
X5666524Y11345952D01*
X5661440Y11289146D01*
X5631467Y11240624D01*
X5411419Y11020576D01*
X5400809Y11012026D01*
X5400885Y11011939D01*
X5394176Y11006125D01*
X5386720Y11001334D01*
X5380915Y10994635D01*
X5380913Y10994633D01*
X5354202Y10963806D01*
X5348170Y10957327D01*
X5338627Y10947784D01*
X5335968Y10944232D01*
X5330537Y10936977D01*
X5324992Y10930095D01*
X5304044Y10905920D01*
X5296857Y10897626D01*
X5250868Y10864381D01*
X5194884Y10855105D01*
X5140630Y10871742D01*
X5099469Y10910805D01*
X5080022Y10964110D01*
X5078101Y10980182D01*
X5021446Y11112485D01*
X4929812Y11223465D01*
X4881393Y11258821D01*
X4343811Y11569192D01*
X4288983Y11593448D01*
X4147054Y11617316D01*
X4004149Y11600228D01*
X3996000Y11596738D01*
X3995998Y11596738D01*
X3931672Y11569192D01*
X3871847Y11543574D01*
X3865012Y11537930D01*
X3865011Y11537930D01*
X3766846Y11456878D01*
X3766843Y11456875D01*
X3760866Y11451940D01*
X3756292Y11445677D01*
X3756290Y11445674D01*
X3733640Y11414653D01*
X3725511Y11403521D01*
X3581599Y11154257D01*
X3581075Y11153350D01*
X3535688Y11107963D01*
X3473688Y11091350D01*
X3409226Y11091350D01*
X3361773Y11100789D01*
X3321545Y11127669D01*
X3043009Y11406205D01*
X2126071Y12323141D01*
X2102268Y12356537D01*
X2090659Y12395875D01*
X2089962Y12401617D01*
X2084037Y12450418D01*
X2028020Y12598123D01*
X1938283Y12728130D01*
X1820040Y12832883D01*
X1680165Y12906296D01*
X1526785Y12944100D01*
X1368815Y12944100D01*
X1215435Y12906296D01*
X1075560Y12832883D01*
X1069943Y12827907D01*
X1054726Y12814426D01*
X957317Y12728130D01*
X953059Y12721961D01*
X953057Y12721959D01*
X881288Y12617983D01*
X867580Y12598123D01*
X864919Y12591107D01*
X864918Y12591105D01*
X815180Y12459956D01*
X811563Y12450418D01*
X810659Y12442975D01*
X810658Y12442970D01*
X793949Y12305359D01*
X792522Y12293600D01*
X793426Y12286155D01*
X810658Y12144229D01*
X810659Y12144222D01*
X811563Y12136782D01*
X814222Y12129770D01*
X814223Y12129767D01*
X864918Y11996094D01*
X864920Y11996088D01*
X867580Y11989077D01*
X871840Y11982903D01*
X871843Y11982900D01*
X953057Y11865240D01*
X953062Y11865234D01*
X957317Y11859070D01*
X962927Y11854099D01*
X962928Y11854099D01*
X982001Y11837202D01*
X1018878Y11778885D01*
X1018878Y11709887D01*
X982001Y11651570D01*
X902729Y11581342D01*
X898471Y11575173D01*
X898469Y11575171D01*
X854639Y11511671D01*
X812992Y11451335D01*
X810331Y11444319D01*
X810330Y11444317D01*
X772468Y11344481D01*
X756975Y11303630D01*
X756071Y11296187D01*
X756070Y11296182D01*
X747766Y11227789D01*
X737934Y11146812D01*
X738838Y11139367D01*
X756070Y10997441D01*
X756071Y10997434D01*
X756975Y10989994D01*
X759634Y10982982D01*
X759635Y10982979D01*
X810330Y10849306D01*
X810332Y10849300D01*
X812992Y10842289D01*
X817252Y10836115D01*
X817255Y10836112D01*
X898469Y10718452D01*
X898474Y10718446D01*
X902729Y10712282D01*
X908334Y10707315D01*
X908339Y10707311D01*
X1015355Y10612504D01*
X1015360Y10612499D01*
X1020972Y10607529D01*
X1027612Y10604043D01*
X1027618Y10604040D01*
X1154205Y10537601D01*
X1154212Y10537598D01*
X1160847Y10534116D01*
X1168121Y10532322D01*
X1168127Y10532321D01*
X1309424Y10497495D01*
X1367430Y10464779D01*
X2598054Y9234154D01*
X2628188Y9185147D01*
X2632961Y9127815D01*
X2611347Y9074500D01*
X2568003Y9036679D01*
X2503084Y9002607D01*
X2497467Y8997631D01*
X2493155Y8993811D01*
X2384841Y8897854D01*
X2380583Y8891685D01*
X2380581Y8891683D01*
X2333070Y8822851D01*
X2295104Y8767847D01*
X2292443Y8760831D01*
X2292442Y8760829D01*
X2251524Y8652937D01*
X2239087Y8620142D01*
X2238183Y8612699D01*
X2238182Y8612694D01*
X2231649Y8558887D01*
X2220046Y8463324D01*
X2220950Y8455879D01*
X2238182Y8313953D01*
X2238183Y8313946D01*
X2239087Y8306506D01*
X2241746Y8299494D01*
X2241747Y8299491D01*
X2292442Y8165818D01*
X2292444Y8165812D01*
X2295104Y8158801D01*
X2299364Y8152627D01*
X2299367Y8152624D01*
X2352874Y8075106D01*
X2369209Y8041556D01*
X2374824Y8004666D01*
X2374824Y6680520D01*
X2373367Y6666970D01*
X2373483Y6666962D01*
X2372849Y6658113D01*
X2370965Y6649449D01*
X2371597Y6640607D01*
X2371597Y6640602D01*
X2374508Y6599915D01*
X2374824Y6591068D01*
X2374824Y6577577D01*
X2375453Y6573195D01*
X2375454Y6573193D01*
X2376744Y6564220D01*
X2377689Y6555430D01*
X2381233Y6505893D01*
X2384331Y6497584D01*
X2386216Y6488921D01*
X2386103Y6488896D01*
X2386288Y6488170D01*
X2386399Y6488203D01*
X2388896Y6479695D01*
X2390159Y6470919D01*
X2393840Y6462858D01*
X2393842Y6462852D01*
X2410790Y6425742D01*
X2414173Y6417572D01*
X2431528Y6371045D01*
X2436843Y6363944D01*
X2441092Y6356163D01*
X2440991Y6356108D01*
X2441372Y6355467D01*
X2441468Y6355529D01*
X2446264Y6348065D01*
X2449947Y6340003D01*
X2455749Y6333306D01*
X2455753Y6333301D01*
X2482456Y6302483D01*
X2487998Y6295606D01*
X2493441Y6288336D01*
X2493456Y6288318D01*
X2496103Y6284783D01*
X2499226Y6281659D01*
X2499231Y6281654D01*
X2505651Y6275234D01*
X2511677Y6268761D01*
X2530514Y6247022D01*
X2544196Y6231233D01*
X2551652Y6226440D01*
X2558357Y6220631D01*
X2558281Y6220543D01*
X2568894Y6211990D01*
X2955737Y5825147D01*
X2987034Y5772399D01*
X2989222Y5711105D01*
X2969300Y5671311D01*
X2971766Y5669727D01*
X2969156Y5665666D01*
X2962078Y5656883D01*
X2961766Y5656260D01*
X2961162Y5655563D01*
X2961074Y5655638D01*
X2952523Y5645027D01*
X2924931Y5617435D01*
X2866924Y5584719D01*
X2725630Y5549894D01*
X2725628Y5549893D01*
X2718348Y5548099D01*
X2578473Y5474686D01*
X2572856Y5469710D01*
X2525102Y5427404D01*
X2460230Y5369933D01*
X2455972Y5363764D01*
X2455970Y5363762D01*
X2383022Y5258077D01*
X2370493Y5239926D01*
X2367832Y5232910D01*
X2367831Y5232908D01*
X2330412Y5134240D01*
X2314476Y5092221D01*
X2313572Y5084778D01*
X2313571Y5084773D01*
X2300500Y4977117D01*
X2295435Y4935403D01*
X2296339Y4927958D01*
X2313571Y4786032D01*
X2313572Y4786025D01*
X2314476Y4778585D01*
X2317135Y4771573D01*
X2317136Y4771570D01*
X2328523Y4741546D01*
X2355788Y4669653D01*
X2356237Y4668471D01*
X2363391Y4609554D01*
X2342345Y4554060D01*
X2297921Y4514703D01*
X2240295Y4500500D01*
X1874444Y4500500D01*
X1825631Y4510512D01*
X1784701Y4538930D01*
X1758262Y4581166D01*
X1755900Y4587500D01*
X1687574Y4770689D01*
X1560716Y5003011D01*
X1402087Y5214915D01*
X1214915Y5402087D01*
X1003011Y5560716D01*
X855672Y5641169D01*
X808459Y5686726D01*
X791101Y5750000D01*
X808459Y5813274D01*
X855672Y5858830D01*
X1003011Y5939284D01*
X1214915Y6097913D01*
X1402087Y6285085D01*
X1560716Y6496989D01*
X1687574Y6729311D01*
X1780077Y6977322D01*
X1836343Y7235974D01*
X1855227Y7500000D01*
X1836343Y7764026D01*
X1780077Y8022678D01*
X1687574Y8270689D01*
X1560716Y8503011D01*
X1402087Y8714915D01*
X1214915Y8902087D01*
X1003011Y9060716D01*
X770689Y9187574D01*
X522678Y9280077D01*
X264026Y9336343D01*
X0Y9355227D01*
X-264026Y9336343D01*
X-522678Y9280077D01*
X-770689Y9187574D01*
X-1003011Y9060716D01*
X-1214915Y8902087D01*
X-1402087Y8714915D01*
X-1560716Y8503011D01*
X-1687574Y8270689D01*
X-1780077Y8022678D01*
X-1836343Y7764026D01*
X-1855227Y7500000D01*
X-1836343Y7235974D01*
X-1780077Y6977322D01*
X-1687574Y6729311D01*
X-1560716Y6496989D01*
X-1402087Y6285085D01*
X-1214915Y6097913D01*
X-1003011Y5939284D01*
X-855672Y5858830D01*
X-808459Y5813274D01*
X-791101Y5750000D01*
X-808459Y5686726D01*
X-855672Y5641169D01*
X-1003011Y5560716D01*
X-1214915Y5402087D01*
X-1402087Y5214915D01*
X-1560716Y5003011D01*
X-1687574Y4770689D01*
X-1780077Y4522678D01*
X-1836343Y4264026D01*
X-1855227Y4000000D01*
X-6032571Y4000000D01*
X-6043058Y4086370D01*
X-6043059Y4086375D01*
X-6043963Y4093818D01*
X-6046623Y4100832D01*
X-6097318Y4234505D01*
X-6097319Y4234507D01*
X-6099980Y4241523D01*
X-6152104Y4317038D01*
X-6185457Y4365359D01*
X-6185459Y4365361D01*
X-6189717Y4371530D01*
X-6241298Y4417226D01*
X-6302343Y4471307D01*
X-6307960Y4476283D01*
X-6447835Y4549696D01*
X-6455115Y4551490D01*
X-6455117Y4551491D01*
X-6596411Y4586316D01*
X-6654418Y4619032D01*
X-6659813Y4624427D01*
X-6668364Y4635038D01*
X-6668452Y4634963D01*
X-6674264Y4641670D01*
X-6679057Y4649128D01*
X-6685756Y4654933D01*
X-6685759Y4654936D01*
X-6716584Y4681645D01*
X-6723063Y4687677D01*
X-6729470Y4694084D01*
X-6732607Y4697221D01*
X-6740590Y4703197D01*
X-6743407Y4705306D01*
X-6750299Y4710860D01*
X-6781119Y4737566D01*
X-6781125Y4737570D01*
X-6787827Y4743377D01*
X-6795894Y4747061D01*
X-6803354Y4751855D01*
X-6803290Y4751953D01*
X-6803929Y4752332D01*
X-6803985Y4752230D01*
X-6811765Y4756478D01*
X-6818869Y4761796D01*
X-6865422Y4779159D01*
X-6873560Y4782530D01*
X-6918743Y4803165D01*
X-6927526Y4804427D01*
X-6936032Y4806925D01*
X-6935998Y4807037D01*
X-6936715Y4807220D01*
X-6936740Y4807106D01*
X-6945404Y4808990D01*
X-6953717Y4812091D01*
X-7003252Y4815633D01*
X-7012037Y4816578D01*
X-7025401Y4818500D01*
X-7029836Y4818500D01*
X-7038892Y4818500D01*
X-7047739Y4818816D01*
X-7097273Y4822359D01*
X-7105939Y4820473D01*
X-7114786Y4819841D01*
X-7114794Y4819956D01*
X-7128344Y4818500D01*
X-7205018Y4818500D01*
X-7248351Y4826318D01*
X-7286220Y4848787D01*
X-7297378Y4858455D01*
X-7361358Y4913894D01*
X-7383490Y4933071D01*
X-7386845Y4935978D01*
X-7447999Y4975279D01*
X-7578784Y5035007D01*
X-7648536Y5055488D01*
X-7790851Y5075950D01*
X-7863549Y5075950D01*
X-7867930Y5075320D01*
X-7867931Y5075320D01*
X-7872453Y5074670D01*
X-7890099Y5073408D01*
X-8264301Y5073408D01*
X-8281947Y5074670D01*
X-8286468Y5075320D01*
X-8286470Y5075320D01*
X-8290851Y5075950D01*
X-8363549Y5075950D01*
X-8505864Y5055488D01*
X-8575616Y5035007D01*
X-8706401Y4975279D01*
X-8767555Y4935978D01*
X-8876216Y4841824D01*
X-8923824Y4786881D01*
X-9001556Y4665927D01*
X-9031755Y4599800D01*
X-9072262Y4461845D01*
X-9082608Y4389889D01*
X-9082608Y3818000D01*
X-9063166Y3720260D01*
X-9058019Y3712557D01*
X-9049156Y3668000D01*
X-9058019Y3623442D01*
X-9063166Y3615740D01*
X-9082608Y3518000D01*
X-9082608Y2946111D01*
X-9072262Y2874155D01*
X-9031755Y2736200D01*
X-9029912Y2732166D01*
X-9029912Y2732164D01*
X-9023332Y2717757D01*
X-9001556Y2670073D01*
X-8999162Y2666347D01*
X-8999161Y2666346D01*
X-8991858Y2654983D01*
X-8923824Y2549119D01*
X-8906097Y2528661D01*
X-8878647Y2473819D01*
X-8880836Y2412526D01*
X-8912129Y2359783D01*
X-9010197Y2261716D01*
X-9050424Y2234839D01*
X-9097876Y2225400D01*
X-9352748Y2225400D01*
X-9418542Y2244294D01*
X-9464285Y2295219D01*
X-9476037Y2362656D01*
X-9475454Y2368076D01*
X-9475452Y2368096D01*
X-9475100Y2371379D01*
X-9475100Y2660255D01*
X-9475100Y2950108D01*
X-9475100Y2950126D01*
X-9475101Y2953420D01*
X-9475454Y2956707D01*
X-9475454Y2956711D01*
X-9480600Y3004579D01*
X-9480601Y3004584D01*
X-9481429Y3012291D01*
X-9531097Y3145454D01*
X-9587676Y3221035D01*
X-9610954Y3252131D01*
X-9616269Y3259231D01*
X-9730046Y3344403D01*
X-9760224Y3355659D01*
X-9809434Y3389308D01*
X-9837255Y3442032D01*
X-9837255Y3501647D01*
X-9809436Y3554372D01*
X-9760226Y3588022D01*
X-9729982Y3599302D01*
X-9729973Y3599306D01*
X-9721669Y3602404D01*
X-9714572Y3607716D01*
X-9714568Y3607719D01*
X-9613550Y3683341D01*
X-9613546Y3683344D01*
X-9606454Y3688654D01*
X-9601144Y3695746D01*
X-9601141Y3695750D01*
X-9525519Y3796768D01*
X-9525516Y3796772D01*
X-9520204Y3803869D01*
X-9473326Y3929555D01*
X-9472620Y3931447D01*
X-9472619Y3931450D01*
X-9469909Y3938717D01*
X-9469079Y3946427D01*
X-9469079Y3946432D01*
X-9463855Y3995019D01*
X-9463854Y3995038D01*
X-9463500Y3998327D01*
X-9463500Y4308676D01*
X-9463500Y4615760D01*
X-9463500Y4615778D01*
X-9463501Y4619072D01*
X-9463853Y4622350D01*
X-9463854Y4622361D01*
X-9469079Y4670968D01*
X-9469080Y4670973D01*
X-9469909Y4678683D01*
X-9472620Y4685952D01*
X-9472620Y4685953D01*
X-9517104Y4805219D01*
X-9520204Y4813531D01*
X-9553834Y4858455D01*
X-9601141Y4921649D01*
X-9606454Y4928746D01*
X-9721669Y5014996D01*
X-9856517Y5065291D01*
X-9916127Y5071700D01*
X-10911872Y5071699D01*
X-10971483Y5065291D01*
X-11106331Y5014996D01*
X-11221546Y4928746D01*
X-11307796Y4813531D01*
X-11358091Y4678683D01*
X-11364500Y4619073D01*
X-11364499Y3998328D01*
X-11358091Y3938717D01*
X-11307796Y3803869D01*
X-11221546Y3688654D01*
X-11214449Y3683341D01*
X-11156745Y3640144D01*
X-11106331Y3602404D01*
X-11084893Y3594408D01*
X-11079375Y3592350D01*
X-11030164Y3558701D01*
X-11002344Y3505975D01*
X-11002344Y3446361D01*
X-11030164Y3393635D01*
X-11079374Y3359986D01*
X-11121154Y3344403D01*
X-11234931Y3259231D01*
X-11320103Y3145454D01*
X-11369771Y3012291D01*
X-11376100Y2953421D01*
X-11376099Y2371380D01*
X-11375385Y2364743D01*
X-11375161Y2362650D01*
X-11386916Y2295216D01*
X-11432659Y2244293D01*
X-11498451Y2225400D01*
X-11787962Y2225400D01*
X-11801507Y2226856D01*
X-11801516Y2226740D01*
X-11810359Y2227372D01*
X-11819027Y2229258D01*
X-11865233Y2225953D01*
X-11868553Y2225716D01*
X-11877399Y2225400D01*
X-11890899Y2225400D01*
X-11904287Y2223474D01*
X-11913040Y2222533D01*
X-11962583Y2218991D01*
X-11970893Y2215891D01*
X-11979564Y2214005D01*
X-11979589Y2214120D01*
X-11980299Y2213939D01*
X-11980266Y2213826D01*
X-11988776Y2211327D01*
X-11997557Y2210065D01*
X-12042726Y2189436D01*
X-12042733Y2189433D01*
X-12050893Y2186052D01*
X-12097431Y2168695D01*
X-12104528Y2163381D01*
X-12112318Y2159128D01*
X-12112373Y2159230D01*
X-12113002Y2158857D01*
X-12112939Y2158758D01*
X-12120397Y2153964D01*
X-12128473Y2150277D01*
X-12128474Y2150275D01*
X-12128476Y2150275D01*
X-12128536Y2150407D01*
X-12186073Y2132391D01*
X-12249926Y2147479D01*
X-12297141Y2193038D01*
X-12314500Y2256312D01*
X-12314500Y3184560D01*
X-12314500Y3184578D01*
X-12314501Y3187872D01*
X-12314853Y3191150D01*
X-12314854Y3191161D01*
X-12320079Y3239768D01*
X-12320080Y3239773D01*
X-12320909Y3247483D01*
X-12323620Y3254752D01*
X-12323620Y3254753D01*
X-12368104Y3374019D01*
X-12371204Y3382331D01*
X-12430148Y3461070D01*
X-12452141Y3490449D01*
X-12457454Y3497546D01*
X-12572669Y3583796D01*
X-12707517Y3634091D01*
X-12767127Y3640500D01*
X-14312872Y3640499D01*
X-14372483Y3634091D01*
X-14507331Y3583796D01*
X-14622546Y3497546D01*
X-14708796Y3382331D01*
X-14759091Y3247483D01*
X-14765500Y3187873D01*
X-14765499Y1892128D01*
X-14759091Y1832517D01*
X-14708796Y1697669D01*
X-14622546Y1582454D01*
X-14615449Y1577141D01*
X-14514431Y1501519D01*
X-14507331Y1496204D01*
X-14372483Y1445909D01*
X-14364770Y1445079D01*
X-14364767Y1445079D01*
X-14316180Y1439855D01*
X-14316169Y1439854D01*
X-14312873Y1439500D01*
X-13147675Y1439500D01*
X-13091380Y1425985D01*
X-13047357Y1388386D01*
X-13025202Y1334898D01*
X-13029744Y1277183D01*
X-13059991Y1227821D01*
X-13127060Y1160752D01*
X-13178389Y1129884D01*
X-13238201Y1126678D01*
X-13309915Y1140500D01*
X-13717425Y1140500D01*
X-13874218Y1125528D01*
X-14075875Y1066316D01*
X-14262682Y970011D01*
X-14427886Y840092D01*
X-14565519Y681256D01*
X-14670604Y499244D01*
X-14739344Y300633D01*
X-14769254Y92602D01*
X-17494593Y92602D01*
X-17492246Y318229D01*
X-17492223Y319648D01*
X-17484314Y681611D01*
X-17484138Y686051D01*
X-17457534Y1146743D01*
X-17457441Y1148206D01*
X-17432219Y1510484D01*
X-17431835Y1514864D01*
X-17383597Y1972722D01*
X-17383430Y1974225D01*
X-17340861Y2335887D01*
X-17340276Y2340199D01*
X-17270560Y2794541D01*
X-17270314Y2796080D01*
X-17210446Y3156006D01*
X-17209667Y3160239D01*
X-17118718Y3609969D01*
X-17118389Y3611540D01*
X-17041253Y3969079D01*
X-17040284Y3973225D01*
X-16928403Y4417264D01*
X-16927989Y4418863D01*
X-16833682Y4773166D01*
X-16832530Y4777217D01*
X-16699978Y5214836D01*
X-16699474Y5216458D01*
X-16588194Y5566497D01*
X-16586866Y5570444D01*
X-16434010Y6000654D01*
X-16433414Y6002294D01*
X-16305346Y6347272D01*
X-16303849Y6351109D01*
X-16131070Y6773025D01*
X-16130379Y6774678D01*
X-15985771Y7113750D01*
X-15984112Y7117468D01*
X-15856498Y7391400D01*
X-11678878Y7391400D01*
X-11659837Y7234582D01*
X-11603820Y7086877D01*
X-11581936Y7055173D01*
X-11522742Y6969414D01*
X-11514083Y6956870D01*
X-11508472Y6951899D01*
X-11418343Y6872052D01*
X-11395840Y6852117D01*
X-11346680Y6826315D01*
X-11305964Y6792049D01*
X-11283361Y6743867D01*
X-11283037Y6690647D01*
X-11299611Y6654170D01*
X-11298230Y6653416D01*
X-11302479Y6645633D01*
X-11307796Y6638531D01*
X-11358091Y6503683D01*
X-11364500Y6444073D01*
X-11364499Y5823328D01*
X-11358091Y5763717D01*
X-11307796Y5628869D01*
X-11221546Y5513654D01*
X-11214449Y5508341D01*
X-11159744Y5467389D01*
X-11106331Y5427404D01*
X-10971483Y5377109D01*
X-10963770Y5376279D01*
X-10963767Y5376279D01*
X-10915180Y5371055D01*
X-10915169Y5371054D01*
X-10911873Y5370700D01*
X-10908550Y5370700D01*
X-9919439Y5370700D01*
X-9919420Y5370700D01*
X-9916128Y5370701D01*
X-9912850Y5371053D01*
X-9912838Y5371054D01*
X-9864231Y5376279D01*
X-9864225Y5376280D01*
X-9856517Y5377109D01*
X-9849252Y5379818D01*
X-9849246Y5379820D01*
X-9729980Y5424304D01*
X-9729978Y5424304D01*
X-9721669Y5427404D01*
X-9714572Y5432716D01*
X-9714568Y5432719D01*
X-9613550Y5508341D01*
X-9613546Y5508344D01*
X-9606454Y5513654D01*
X-9601144Y5520746D01*
X-9601141Y5520750D01*
X-9525519Y5621768D01*
X-9525516Y5621772D01*
X-9520204Y5628869D01*
X-9514177Y5645027D01*
X-9472620Y5756447D01*
X-9472619Y5756450D01*
X-9469909Y5763717D01*
X-9469079Y5771427D01*
X-9469079Y5771432D01*
X-9463855Y5820019D01*
X-9463854Y5820038D01*
X-9463500Y5823327D01*
X-9463500Y6131764D01*
X-9463500Y6440760D01*
X-9463500Y6440778D01*
X-9463501Y6444072D01*
X-9463853Y6447350D01*
X-9463854Y6447361D01*
X-9469079Y6495968D01*
X-9469080Y6495973D01*
X-9469909Y6503683D01*
X-9472620Y6510952D01*
X-9472620Y6510953D01*
X-9517104Y6630219D01*
X-9520204Y6638531D01*
X-9591267Y6733459D01*
X-9601141Y6746649D01*
X-9606454Y6753746D01*
X-9721669Y6839996D01*
X-9856517Y6890291D01*
X-9861819Y6890861D01*
X-9910768Y6915088D01*
X-9944898Y6959430D01*
X-9949463Y6969426D01*
X-9952845Y6977590D01*
X-9967104Y7015821D01*
X-9967105Y7015823D01*
X-9970204Y7024131D01*
X-9975519Y7031231D01*
X-9979768Y7039012D01*
X-9979666Y7039067D01*
X-9980046Y7039707D01*
X-9980143Y7039645D01*
X-9984939Y7047107D01*
X-9988623Y7055173D01*
X-10021147Y7092707D01*
X-10026689Y7099586D01*
X-10032120Y7106841D01*
X-10034779Y7110393D01*
X-10044322Y7119936D01*
X-10050354Y7126415D01*
X-10077065Y7157242D01*
X-10077067Y7157244D01*
X-10082872Y7163943D01*
X-10090328Y7168734D01*
X-10097037Y7174548D01*
X-10096961Y7174635D01*
X-10107571Y7183185D01*
X-10345324Y7420938D01*
X-10369129Y7454335D01*
X-10380739Y7493670D01*
X-10386458Y7540770D01*
X-10386459Y7540774D01*
X-10387363Y7548218D01*
X-10390023Y7555232D01*
X-10390023Y7555234D01*
X-10440718Y7688905D01*
X-10440719Y7688907D01*
X-10443380Y7695923D01*
X-10487335Y7759603D01*
X-10528857Y7819759D01*
X-10528859Y7819761D01*
X-10533117Y7825930D01*
X-10651360Y7930683D01*
X-10791235Y8004096D01*
X-10944615Y8041900D01*
X-11102585Y8041900D01*
X-11255965Y8004096D01*
X-11395840Y7930683D01*
X-11514083Y7825930D01*
X-11603820Y7695923D01*
X-11659837Y7548218D01*
X-11678878Y7391400D01*
X-15856498Y7391400D01*
X-15791829Y7530217D01*
X-15791041Y7531878D01*
X-15630179Y7864220D01*
X-15628367Y7867813D01*
X-15417081Y8270459D01*
X-15416192Y8272122D01*
X-15239402Y8596931D01*
X-15237445Y8600394D01*
X-15007621Y8992163D01*
X-15006631Y8993821D01*
X-14814276Y9310320D01*
X-14812180Y9313647D01*
X-14564392Y9693659D01*
X-14563299Y9695307D01*
X-14355817Y10002678D01*
X-14353593Y10005864D01*
X-14088368Y10373395D01*
X-14087170Y10375027D01*
X-13865023Y10672507D01*
X-13862679Y10675547D01*
X-13580611Y11029839D01*
X-13579308Y11031448D01*
X-13343006Y11318291D01*
X-13340550Y11321181D01*
X-13042288Y11661474D01*
X-13040879Y11663054D01*
X-12915167Y11801634D01*
X-7902113Y11801634D01*
X-7872202Y11593603D01*
X-7803462Y11394993D01*
X-7599707Y11042079D01*
X-7508344Y10913778D01*
X-7504066Y10909699D01*
X-7386540Y10797638D01*
X-7356236Y10768744D01*
X-7268380Y10712282D01*
X-7184402Y10658312D01*
X-7184399Y10658310D01*
X-7179430Y10655117D01*
X-6984315Y10577006D01*
X-6963276Y10572951D01*
X-6783738Y10538346D01*
X-6783728Y10538345D01*
X-6777943Y10537230D01*
X-6772041Y10537230D01*
X-6567773Y10537230D01*
X-6567773Y10535837D01*
X-6518705Y10528894D01*
X-6471313Y10495644D01*
X-6444181Y10444503D01*
X-6443222Y10386618D01*
X-6465178Y10341701D01*
X-6464679Y10341397D01*
X-6467955Y10336021D01*
X-6468644Y10334611D01*
X-6474942Y10326985D01*
X-6531597Y10194682D01*
X-6548684Y10051778D01*
X-6524817Y9909849D01*
X-6500562Y9855021D01*
X-6002689Y8992681D01*
X-6000740Y8990012D01*
X-6000735Y8990004D01*
X-5971908Y8950524D01*
X-5967334Y8944260D01*
X-5961355Y8939323D01*
X-5961353Y8939321D01*
X-5863188Y8858269D01*
X-5863185Y8858267D01*
X-5856353Y8852626D01*
X-5848206Y8849137D01*
X-5848204Y8849136D01*
X-5732201Y8799461D01*
X-5732194Y8799459D01*
X-5724051Y8795972D01*
X-5715248Y8794919D01*
X-5715247Y8794919D01*
X-5589952Y8779937D01*
X-5581146Y8778884D01*
X-5572405Y8780353D01*
X-5572399Y8780354D01*
X-5446864Y8801465D01*
X-5446856Y8801467D01*
X-5439217Y8802752D01*
X-5432130Y8805886D01*
X-5432120Y8805890D01*
X-5417700Y8812269D01*
X-5369504Y8822851D01*
X-5320996Y8813800D01*
X-5279860Y8786548D01*
X-4963483Y8470171D01*
X-4954933Y8459561D01*
X-4954846Y8459637D01*
X-4949032Y8452928D01*
X-4944241Y8445472D01*
X-4937542Y8439667D01*
X-4937540Y8439665D01*
X-4906713Y8412954D01*
X-4900239Y8406927D01*
X-4890691Y8397379D01*
X-4887139Y8394720D01*
X-4879884Y8389289D01*
X-4873005Y8383747D01*
X-4835471Y8351223D01*
X-4827405Y8347539D01*
X-4819943Y8342743D01*
X-4820005Y8342646D01*
X-4819365Y8342266D01*
X-4819310Y8342368D01*
X-4811529Y8338119D01*
X-4804429Y8332804D01*
X-4796121Y8329705D01*
X-4796119Y8329704D01*
X-4757888Y8315445D01*
X-4749711Y8312057D01*
X-4712625Y8295120D01*
X-4712622Y8295119D01*
X-4704555Y8291435D01*
X-4695774Y8290172D01*
X-4687269Y8287675D01*
X-4687301Y8287564D01*
X-4686577Y8287379D01*
X-4686553Y8287492D01*
X-4677887Y8285606D01*
X-4669581Y8282509D01*
X-4660740Y8281876D01*
X-4660738Y8281876D01*
X-4620044Y8278965D01*
X-4611254Y8278020D01*
X-4597897Y8276100D01*
X-4584406Y8276100D01*
X-4575559Y8275784D01*
X-4534871Y8272873D01*
X-4534865Y8272873D01*
X-4526025Y8272241D01*
X-4517360Y8274125D01*
X-4508512Y8274759D01*
X-4508503Y8274643D01*
X-4494954Y8276100D01*
X-3652768Y8276100D01*
X-3639218Y8274643D01*
X-3639210Y8274759D01*
X-3630361Y8274125D01*
X-3621697Y8272241D01*
X-3612855Y8272873D01*
X-3612850Y8272873D01*
X-3572163Y8275784D01*
X-3563316Y8276100D01*
X-3554254Y8276100D01*
X-3549825Y8276100D01*
X-3545443Y8276729D01*
X-3545441Y8276730D01*
X-3536468Y8278020D01*
X-3527678Y8278965D01*
X-3486986Y8281876D01*
X-3486984Y8281876D01*
X-3478141Y8282509D01*
X-3469832Y8285607D01*
X-3461169Y8287492D01*
X-3461144Y8287379D01*
X-3460418Y8287564D01*
X-3460451Y8287675D01*
X-3451943Y8290172D01*
X-3443167Y8291435D01*
X-3435106Y8295116D01*
X-3435100Y8295118D01*
X-3397990Y8312066D01*
X-3389820Y8315449D01*
X-3377077Y8320202D01*
X-3351603Y8329704D01*
X-3351600Y8329705D01*
X-3343293Y8332804D01*
X-3336192Y8338119D01*
X-3328411Y8342368D01*
X-3328356Y8342267D01*
X-3327715Y8342648D01*
X-3327777Y8342744D01*
X-3320313Y8347540D01*
X-3312251Y8351223D01*
X-3305551Y8357028D01*
X-3305549Y8357029D01*
X-3274731Y8383732D01*
X-3267854Y8389274D01*
X-3260584Y8394717D01*
X-3260566Y8394732D01*
X-3257031Y8397379D01*
X-3253907Y8400502D01*
X-3253902Y8400507D01*
X-3247482Y8406927D01*
X-3241009Y8412953D01*
X-3210181Y8439666D01*
X-3210179Y8439667D01*
X-3203481Y8445472D01*
X-3198688Y8452928D01*
X-3192879Y8459633D01*
X-3192791Y8459557D01*
X-3184238Y8470170D01*
X-1253130Y10401279D01*
X-1195124Y10433995D01*
X-1053827Y10468821D01*
X-1053821Y10468822D01*
X-1046547Y10470616D01*
X-1039912Y10474098D01*
X-1039905Y10474101D01*
X-913318Y10540540D01*
X-913312Y10540543D01*
X-906672Y10544029D01*
X-901060Y10548999D01*
X-901055Y10549004D01*
X-794039Y10643811D01*
X-794034Y10643815D01*
X-788429Y10648782D01*
X-784174Y10654946D01*
X-784169Y10654952D01*
X-702955Y10772612D01*
X-702952Y10772615D01*
X-698692Y10778789D01*
X-696032Y10785800D01*
X-696030Y10785806D01*
X-645335Y10919479D01*
X-645334Y10919482D01*
X-642675Y10926494D01*
X-641771Y10933934D01*
X-641770Y10933941D01*
X-624538Y11075867D01*
X-623634Y11083312D01*
X-627522Y11115335D01*
X-641770Y11232682D01*
X-641771Y11232687D01*
X-642675Y11240130D01*
X-649018Y11256855D01*
X-696030Y11380817D01*
X-696031Y11380819D01*
X-698692Y11387835D01*
X-711372Y11406205D01*
X-784169Y11511671D01*
X-784171Y11511673D01*
X-788429Y11517842D01*
X-870154Y11590243D01*
X-907031Y11648559D01*
X-907031Y11717558D01*
X-870154Y11775874D01*
X-810532Y11828694D01*
X-810525Y11828701D01*
X-804917Y11833670D01*
X-800662Y11839834D01*
X-800657Y11839840D01*
X-719443Y11957500D01*
X-719440Y11957503D01*
X-715180Y11963677D01*
X-712520Y11970688D01*
X-712518Y11970694D01*
X-661823Y12104367D01*
X-661822Y12104370D01*
X-659163Y12111382D01*
X-658259Y12118822D01*
X-658258Y12118829D01*
X-641026Y12260755D01*
X-640122Y12268200D01*
X-643250Y12293962D01*
X-658258Y12417570D01*
X-658259Y12417575D01*
X-659163Y12425018D01*
X-669510Y12452301D01*
X-712518Y12565705D01*
X-712519Y12565707D01*
X-715180Y12572723D01*
X-746417Y12617978D01*
X-800657Y12696559D01*
X-800659Y12696561D01*
X-804917Y12702730D01*
X-923160Y12807483D01*
X-1063035Y12880896D01*
X-1216415Y12918700D01*
X-1374385Y12918700D01*
X-1527765Y12880896D01*
X-1667640Y12807483D01*
X-1785883Y12702730D01*
X-1875620Y12572723D01*
X-1931637Y12425018D01*
X-1934478Y12401617D01*
X-1938259Y12370475D01*
X-1949868Y12331137D01*
X-1973671Y12297741D01*
X-2756482Y11514932D01*
X-3016745Y11254669D01*
X-3056973Y11227789D01*
X-3104426Y11218350D01*
X-3346689Y11218350D01*
X-3408689Y11234963D01*
X-3454076Y11280350D01*
X-3463217Y11296182D01*
X-3569576Y11480402D01*
X-3596852Y11527646D01*
X-3596854Y11527649D01*
X-3598511Y11530519D01*
X-3600456Y11533183D01*
X-3600464Y11533195D01*
X-3629291Y11572675D01*
X-3629293Y11572677D01*
X-3633866Y11578940D01*
X-3639843Y11583875D01*
X-3639846Y11583878D01*
X-3738011Y11664930D01*
X-3738012Y11664930D01*
X-3744847Y11670574D01*
X-3877149Y11727228D01*
X-3885952Y11728280D01*
X-3889850Y11729325D01*
X-3940729Y11756950D01*
X-3973521Y11804662D01*
X-3981078Y11862061D01*
X-3961752Y11916635D01*
X-3919757Y11956487D01*
X-3399344Y12256948D01*
X-3399332Y12256955D01*
X-3396472Y12258607D01*
X-3393815Y12260546D01*
X-3393795Y12260560D01*
X-3354316Y12289387D01*
X-3354313Y12289389D01*
X-3348051Y12293962D01*
X-3343114Y12299940D01*
X-3343110Y12299945D01*
X-3262064Y12398102D01*
X-3262062Y12398105D01*
X-3256417Y12404942D01*
X-3252928Y12413089D01*
X-3252926Y12413093D01*
X-3203252Y12529096D01*
X-3203251Y12529099D01*
X-3199763Y12537245D01*
X-3198710Y12546043D01*
X-3198710Y12546047D01*
X-3183729Y12671341D01*
X-3183729Y12671342D01*
X-3182676Y12680149D01*
X-3184145Y12688889D01*
X-3184146Y12688896D01*
X-3205256Y12814426D01*
X-3205256Y12814427D01*
X-3206543Y12822078D01*
X-3230798Y12876906D01*
X-3232460Y12879785D01*
X-4002012Y14212687D01*
X-4002014Y14212690D01*
X-4003671Y14215560D01*
X-4005616Y14218224D01*
X-4005624Y14218236D01*
X-4034451Y14257716D01*
X-4034453Y14257718D01*
X-4039026Y14263981D01*
X-4045003Y14268916D01*
X-4045006Y14268919D01*
X-4143171Y14349971D01*
X-4143172Y14349971D01*
X-4150007Y14355615D01*
X-4183980Y14370163D01*
X-4274158Y14408779D01*
X-4274160Y14408779D01*
X-4282309Y14412269D01*
X-4425213Y14429357D01*
X-4567142Y14405489D01*
X-4621971Y14381235D01*
X-5744118Y13733361D01*
X-5792539Y13698006D01*
X-5884173Y13587026D01*
X-5940827Y13454723D01*
X-5957914Y13311819D01*
X-5934047Y13169890D01*
X-5909792Y13115062D01*
X-5136919Y11776408D01*
X-5134970Y11773739D01*
X-5134965Y11773731D01*
X-5117027Y11749164D01*
X-5101564Y11727987D01*
X-5095585Y11723050D01*
X-5095583Y11723048D01*
X-4997418Y11641996D01*
X-4997415Y11641994D01*
X-4990583Y11636353D01*
X-4982436Y11632864D01*
X-4982434Y11632863D01*
X-4866431Y11583188D01*
X-4866424Y11583186D01*
X-4858281Y11579699D01*
X-4849479Y11578646D01*
X-4840911Y11576351D01*
X-4841399Y11574527D01*
X-4798741Y11558553D01*
X-4759380Y11514932D01*
X-4744518Y11458088D01*
X-4757491Y11400784D01*
X-4791274Y11360757D01*
X-4790900Y11360360D01*
X-4794372Y11357088D01*
X-4795386Y11355887D01*
X-4802812Y11350465D01*
X-4894446Y11239485D01*
X-4951101Y11107182D01*
X-4968188Y10964278D01*
X-4971162Y10964633D01*
X-4980491Y10922951D01*
X-5019775Y10877310D01*
X-5075929Y10855559D01*
X-5135708Y10862826D01*
X-5185011Y10897397D01*
X-5197995Y10912380D01*
X-5203537Y10919259D01*
X-5208968Y10926514D01*
X-5211627Y10930066D01*
X-5221170Y10939609D01*
X-5227202Y10946088D01*
X-5253913Y10976915D01*
X-5253915Y10976917D01*
X-5259720Y10983616D01*
X-5267176Y10988407D01*
X-5273885Y10994221D01*
X-5273809Y10994308D01*
X-5284419Y11002858D01*
X-5565161Y11283600D01*
X-5596864Y11337763D01*
X-5597985Y11400513D01*
X-5579999Y11474657D01*
X-5579997Y11474664D01*
X-5578606Y11480402D01*
X-5576822Y11517842D01*
X-5568885Y11684443D01*
X-5568885Y11684449D01*
X-5568605Y11690334D01*
X-5569444Y11696172D01*
X-5597675Y11892518D01*
X-5597676Y11892522D01*
X-5598516Y11898364D01*
X-5600448Y11903947D01*
X-5665321Y12091386D01*
X-5665323Y12091391D01*
X-5667256Y12096975D01*
X-5732555Y12210077D01*
X-5869531Y12447326D01*
X-5869533Y12447329D01*
X-5871011Y12449889D01*
X-5962374Y12578190D01*
X-6086516Y12696559D01*
X-6110203Y12719145D01*
X-6114481Y12723224D01*
X-6291288Y12836851D01*
X-6486403Y12914962D01*
X-6692775Y12954737D01*
X-6902945Y12954738D01*
X-7109317Y12914962D01*
X-7304432Y12836850D01*
X-7481238Y12723223D01*
X-7633346Y12578189D01*
X-7755256Y12406989D01*
X-7842563Y12215812D01*
X-7892112Y12011566D01*
X-7902113Y11801634D01*
X-12915167Y11801634D01*
X-12790919Y11938601D01*
X-12788360Y11941337D01*
X-12474630Y12266858D01*
X-12473115Y12268403D01*
X-12210051Y12531990D01*
X-12207399Y12534569D01*
X-11878865Y12844678D01*
X-11877244Y12846181D01*
X-11601703Y13097134D01*
X-11598967Y13099554D01*
X-11256345Y13393614D01*
X-11254619Y13395068D01*
X-10967180Y13632818D01*
X-10964368Y13635076D01*
X-10608509Y13912395D01*
X-10606679Y13913794D01*
X-10307996Y14137764D01*
X-10305118Y14139858D01*
X-9936732Y14399917D01*
X-9934799Y14401254D01*
X-9625595Y14610868D01*
X-9622659Y14612798D01*
X-9242607Y14855016D01*
X-9240575Y14856284D01*
X-8921534Y15051054D01*
X-8918571Y15052806D01*
X-8527667Y15276692D01*
X-8525556Y15277873D01*
X-8197392Y15457332D01*
X-8194370Y15458931D01*
X-7793491Y15664003D01*
X-7791263Y15665115D01*
X-7454781Y15828806D01*
X-7451727Y15830240D01*
X-7041739Y16016071D01*
X-7039419Y16017094D01*
X-6695414Y16164614D01*
X-6692339Y16165884D01*
X-6274181Y16332068D01*
X-6271771Y16332997D01*
X-5920944Y16464028D01*
X-5917856Y16465135D01*
X-5492445Y16611321D01*
X-5489950Y16612149D01*
X-5133201Y16726344D01*
X-5130108Y16727290D01*
X-4698298Y16853194D01*
X-4695721Y16853915D01*
X-4333890Y16950995D01*
X-4330801Y16951782D01*
X-3893608Y17057115D01*
X-3890955Y17057723D01*
X-3524797Y17137480D01*
X-3521720Y17138110D01*
X-3080163Y17222637D01*
X-3077437Y17223127D01*
X-2707714Y17285378D01*
X-2704657Y17285853D01*
X-2259811Y17349383D01*
X-2257020Y17349750D01*
X-1884638Y17394331D01*
X-1881607Y17394656D01*
X-1434218Y17437092D01*
X-1431366Y17437329D01*
X-1057338Y17464114D01*
X-1054342Y17464292D01*
X-605479Y17485532D01*
X-602573Y17485636D01*
X-227645Y17494573D01*
X-224690Y17494608D01*
X224668Y17494608D01*
X227622Y17494573D01*
G37*
%TD.AperFunction*%
%TD*%
M02*
